%TF.GenerationSoftware,KiCad,Pcbnew,8.0.5*%
%TF.CreationDate,2025-02-27T20:45:01-08:00*%
%TF.ProjectId,ledaray,6c656461-7261-4792-9e6b-696361645f70,rev?*%
%TF.SameCoordinates,Original*%
%TF.FileFunction,Legend,Bot*%
%TF.FilePolarity,Positive*%
%FSLAX46Y46*%
G04 Gerber Fmt 4.6, Leading zero omitted, Abs format (unit mm)*
G04 Created by KiCad (PCBNEW 8.0.5) date 2025-02-27 20:45:01*
%MOMM*%
%LPD*%
G01*
G04 APERTURE LIST*
%ADD10C,0.100000*%
%ADD11C,0.200000*%
G04 APERTURE END LIST*
D10*
X124641904Y-60407419D02*
X124641904Y-61216942D01*
X124641904Y-61216942D02*
X124594285Y-61312180D01*
X124594285Y-61312180D02*
X124546666Y-61359800D01*
X124546666Y-61359800D02*
X124451428Y-61407419D01*
X124451428Y-61407419D02*
X124260952Y-61407419D01*
X124260952Y-61407419D02*
X124165714Y-61359800D01*
X124165714Y-61359800D02*
X124118095Y-61312180D01*
X124118095Y-61312180D02*
X124070476Y-61216942D01*
X124070476Y-61216942D02*
X124070476Y-60407419D01*
X123641904Y-60502657D02*
X123594285Y-60455038D01*
X123594285Y-60455038D02*
X123499047Y-60407419D01*
X123499047Y-60407419D02*
X123260952Y-60407419D01*
X123260952Y-60407419D02*
X123165714Y-60455038D01*
X123165714Y-60455038D02*
X123118095Y-60502657D01*
X123118095Y-60502657D02*
X123070476Y-60597895D01*
X123070476Y-60597895D02*
X123070476Y-60693133D01*
X123070476Y-60693133D02*
X123118095Y-60835990D01*
X123118095Y-60835990D02*
X123689523Y-61407419D01*
X123689523Y-61407419D02*
X123070476Y-61407419D01*
X124641904Y-113007419D02*
X124641904Y-113816942D01*
X124641904Y-113816942D02*
X124594285Y-113912180D01*
X124594285Y-113912180D02*
X124546666Y-113959800D01*
X124546666Y-113959800D02*
X124451428Y-114007419D01*
X124451428Y-114007419D02*
X124260952Y-114007419D01*
X124260952Y-114007419D02*
X124165714Y-113959800D01*
X124165714Y-113959800D02*
X124118095Y-113912180D01*
X124118095Y-113912180D02*
X124070476Y-113816942D01*
X124070476Y-113816942D02*
X124070476Y-113007419D01*
X123118095Y-113007419D02*
X123594285Y-113007419D01*
X123594285Y-113007419D02*
X123641904Y-113483609D01*
X123641904Y-113483609D02*
X123594285Y-113435990D01*
X123594285Y-113435990D02*
X123499047Y-113388371D01*
X123499047Y-113388371D02*
X123260952Y-113388371D01*
X123260952Y-113388371D02*
X123165714Y-113435990D01*
X123165714Y-113435990D02*
X123118095Y-113483609D01*
X123118095Y-113483609D02*
X123070476Y-113578847D01*
X123070476Y-113578847D02*
X123070476Y-113816942D01*
X123070476Y-113816942D02*
X123118095Y-113912180D01*
X123118095Y-113912180D02*
X123165714Y-113959800D01*
X123165714Y-113959800D02*
X123260952Y-114007419D01*
X123260952Y-114007419D02*
X123499047Y-114007419D01*
X123499047Y-114007419D02*
X123594285Y-113959800D01*
X123594285Y-113959800D02*
X123641904Y-113912180D01*
X87141904Y-60407419D02*
X87141904Y-61216942D01*
X87141904Y-61216942D02*
X87094285Y-61312180D01*
X87094285Y-61312180D02*
X87046666Y-61359800D01*
X87046666Y-61359800D02*
X86951428Y-61407419D01*
X86951428Y-61407419D02*
X86760952Y-61407419D01*
X86760952Y-61407419D02*
X86665714Y-61359800D01*
X86665714Y-61359800D02*
X86618095Y-61312180D01*
X86618095Y-61312180D02*
X86570476Y-61216942D01*
X86570476Y-61216942D02*
X86570476Y-60407419D01*
X86189523Y-60407419D02*
X85570476Y-60407419D01*
X85570476Y-60407419D02*
X85903809Y-60788371D01*
X85903809Y-60788371D02*
X85760952Y-60788371D01*
X85760952Y-60788371D02*
X85665714Y-60835990D01*
X85665714Y-60835990D02*
X85618095Y-60883609D01*
X85618095Y-60883609D02*
X85570476Y-60978847D01*
X85570476Y-60978847D02*
X85570476Y-61216942D01*
X85570476Y-61216942D02*
X85618095Y-61312180D01*
X85618095Y-61312180D02*
X85665714Y-61359800D01*
X85665714Y-61359800D02*
X85760952Y-61407419D01*
X85760952Y-61407419D02*
X86046666Y-61407419D01*
X86046666Y-61407419D02*
X86141904Y-61359800D01*
X86141904Y-61359800D02*
X86189523Y-61312180D01*
X87141904Y-113007419D02*
X87141904Y-113816942D01*
X87141904Y-113816942D02*
X87094285Y-113912180D01*
X87094285Y-113912180D02*
X87046666Y-113959800D01*
X87046666Y-113959800D02*
X86951428Y-114007419D01*
X86951428Y-114007419D02*
X86760952Y-114007419D01*
X86760952Y-114007419D02*
X86665714Y-113959800D01*
X86665714Y-113959800D02*
X86618095Y-113912180D01*
X86618095Y-113912180D02*
X86570476Y-113816942D01*
X86570476Y-113816942D02*
X86570476Y-113007419D01*
X85665714Y-113340752D02*
X85665714Y-114007419D01*
X85903809Y-112959800D02*
X86141904Y-113674085D01*
X86141904Y-113674085D02*
X85522857Y-113674085D01*
D11*
%TO.C,U2*%
X104740000Y-45730000D02*
X105400000Y-45730000D01*
X104740000Y-56210000D02*
X104740000Y-45730000D01*
X104740000Y-66690000D02*
X105400000Y-66690000D01*
X104740000Y-77170000D02*
X104740000Y-66690000D01*
X105400000Y-35250000D02*
X143020000Y-35250000D01*
X105400000Y-45730000D02*
X105400000Y-35250000D01*
X105400000Y-56210000D02*
X104740000Y-56210000D01*
X105400000Y-66690000D02*
X105400000Y-56210000D01*
X105400000Y-77170000D02*
X104740000Y-77170000D01*
X105400000Y-87650000D02*
X105400000Y-77170000D01*
X116010000Y-41950000D02*
X116510000Y-41950000D01*
X116010000Y-42450000D02*
X116010000Y-41950000D01*
X116010000Y-80450000D02*
X116510000Y-80450000D01*
X116010000Y-80950000D02*
X116010000Y-80450000D01*
X116510000Y-41950000D02*
X116510000Y-42450000D01*
X116510000Y-42450000D02*
X116010000Y-42450000D01*
X116510000Y-80450000D02*
X116510000Y-80950000D01*
X116510000Y-80950000D02*
X116010000Y-80950000D01*
X118550000Y-41950000D02*
X119050000Y-41950000D01*
X118550000Y-42450000D02*
X118550000Y-41950000D01*
X118550000Y-80450000D02*
X119050000Y-80450000D01*
X118550000Y-80950000D02*
X118550000Y-80450000D01*
X119050000Y-41950000D02*
X119050000Y-42450000D01*
X119050000Y-42450000D02*
X118550000Y-42450000D01*
X119050000Y-80450000D02*
X119050000Y-80950000D01*
X119050000Y-80950000D02*
X118550000Y-80950000D01*
X121090000Y-41950000D02*
X121590000Y-41950000D01*
X121090000Y-42450000D02*
X121090000Y-41950000D01*
X121090000Y-80450000D02*
X121590000Y-80450000D01*
X121090000Y-80950000D02*
X121090000Y-80450000D01*
X121590000Y-41950000D02*
X121590000Y-42450000D01*
X121590000Y-42450000D02*
X121090000Y-42450000D01*
X121590000Y-80450000D02*
X121590000Y-80950000D01*
X121590000Y-80950000D02*
X121090000Y-80950000D01*
X123630000Y-41950000D02*
X124130000Y-41950000D01*
X123630000Y-42450000D02*
X123630000Y-41950000D01*
X123630000Y-80450000D02*
X124130000Y-80450000D01*
X123630000Y-80950000D02*
X123630000Y-80450000D01*
X124130000Y-41950000D02*
X124130000Y-42450000D01*
X124130000Y-42450000D02*
X123630000Y-42450000D01*
X124130000Y-80450000D02*
X124130000Y-80950000D01*
X124130000Y-80950000D02*
X123630000Y-80950000D01*
X126170000Y-41950000D02*
X126670000Y-41950000D01*
X126170000Y-42450000D02*
X126170000Y-41950000D01*
X126170000Y-80450000D02*
X126670000Y-80450000D01*
X126170000Y-80950000D02*
X126170000Y-80450000D01*
X126670000Y-41950000D02*
X126670000Y-42450000D01*
X126670000Y-42450000D02*
X126170000Y-42450000D01*
X126670000Y-80450000D02*
X126670000Y-80950000D01*
X126670000Y-80950000D02*
X126170000Y-80950000D01*
X128710000Y-41950000D02*
X129210000Y-41950000D01*
X128710000Y-42450000D02*
X128710000Y-41950000D01*
X128710000Y-80450000D02*
X129210000Y-80450000D01*
X128710000Y-80950000D02*
X128710000Y-80450000D01*
X129210000Y-41950000D02*
X129210000Y-42450000D01*
X129210000Y-42450000D02*
X128710000Y-42450000D01*
X129210000Y-80450000D02*
X129210000Y-80950000D01*
X129210000Y-80950000D02*
X128710000Y-80950000D01*
X131250000Y-41950000D02*
X131750000Y-41950000D01*
X131250000Y-42450000D02*
X131250000Y-41950000D01*
X131250000Y-80450000D02*
X131750000Y-80450000D01*
X131250000Y-80950000D02*
X131250000Y-80450000D01*
X131750000Y-41950000D02*
X131750000Y-42450000D01*
X131750000Y-42450000D02*
X131250000Y-42450000D01*
X131750000Y-80450000D02*
X131750000Y-80950000D01*
X131750000Y-80950000D02*
X131250000Y-80950000D01*
X142360000Y-45730000D02*
X142360000Y-56210000D01*
X142360000Y-56210000D02*
X143020000Y-56210000D01*
X142360000Y-66690000D02*
X142360000Y-77170000D01*
X142360000Y-77170000D02*
X143020000Y-77170000D01*
X143020000Y-35250000D02*
X143020000Y-45730000D01*
X143020000Y-45730000D02*
X142360000Y-45730000D01*
X143020000Y-56210000D02*
X143020000Y-66690000D01*
X143020000Y-66690000D02*
X142360000Y-66690000D01*
X143020000Y-77170000D02*
X143020000Y-87650000D01*
X143020000Y-87650000D02*
X105400000Y-87650000D01*
X111380000Y-38950000D02*
G75*
G02*
X106380000Y-38950000I-2500000J0D01*
G01*
X106380000Y-38950000D02*
G75*
G02*
X111380000Y-38950000I2500000J0D01*
G01*
X111380000Y-46450000D02*
G75*
G02*
X106380000Y-46450000I-2500000J0D01*
G01*
X106380000Y-46450000D02*
G75*
G02*
X111380000Y-46450000I2500000J0D01*
G01*
X111380000Y-53950000D02*
G75*
G02*
X106380000Y-53950000I-2500000J0D01*
G01*
X106380000Y-53950000D02*
G75*
G02*
X111380000Y-53950000I2500000J0D01*
G01*
X111380000Y-61450000D02*
G75*
G02*
X106380000Y-61450000I-2500000J0D01*
G01*
X106380000Y-61450000D02*
G75*
G02*
X111380000Y-61450000I2500000J0D01*
G01*
X111380000Y-68950000D02*
G75*
G02*
X106380000Y-68950000I-2500000J0D01*
G01*
X106380000Y-68950000D02*
G75*
G02*
X111380000Y-68950000I2500000J0D01*
G01*
X111380000Y-76450000D02*
G75*
G02*
X106380000Y-76450000I-2500000J0D01*
G01*
X106380000Y-76450000D02*
G75*
G02*
X111380000Y-76450000I2500000J0D01*
G01*
X111380000Y-83950000D02*
G75*
G02*
X106380000Y-83950000I-2500000J0D01*
G01*
X106380000Y-83950000D02*
G75*
G02*
X111380000Y-83950000I2500000J0D01*
G01*
X118880000Y-38950000D02*
G75*
G02*
X113880000Y-38950000I-2500000J0D01*
G01*
X113880000Y-38950000D02*
G75*
G02*
X118880000Y-38950000I2500000J0D01*
G01*
X118880000Y-46450000D02*
G75*
G02*
X113880000Y-46450000I-2500000J0D01*
G01*
X113880000Y-46450000D02*
G75*
G02*
X118880000Y-46450000I2500000J0D01*
G01*
X118880000Y-53950000D02*
G75*
G02*
X113880000Y-53950000I-2500000J0D01*
G01*
X113880000Y-53950000D02*
G75*
G02*
X118880000Y-53950000I2500000J0D01*
G01*
X118880000Y-61450000D02*
G75*
G02*
X113880000Y-61450000I-2500000J0D01*
G01*
X113880000Y-61450000D02*
G75*
G02*
X118880000Y-61450000I2500000J0D01*
G01*
X118880000Y-68950000D02*
G75*
G02*
X113880000Y-68950000I-2500000J0D01*
G01*
X113880000Y-68950000D02*
G75*
G02*
X118880000Y-68950000I2500000J0D01*
G01*
X118880000Y-76450000D02*
G75*
G02*
X113880000Y-76450000I-2500000J0D01*
G01*
X113880000Y-76450000D02*
G75*
G02*
X118880000Y-76450000I2500000J0D01*
G01*
X118880000Y-83950000D02*
G75*
G02*
X113880000Y-83950000I-2500000J0D01*
G01*
X113880000Y-83950000D02*
G75*
G02*
X118880000Y-83950000I2500000J0D01*
G01*
X126380000Y-38950000D02*
G75*
G02*
X121380000Y-38950000I-2500000J0D01*
G01*
X121380000Y-38950000D02*
G75*
G02*
X126380000Y-38950000I2500000J0D01*
G01*
X126380000Y-46450000D02*
G75*
G02*
X121380000Y-46450000I-2500000J0D01*
G01*
X121380000Y-46450000D02*
G75*
G02*
X126380000Y-46450000I2500000J0D01*
G01*
X126380000Y-53950000D02*
G75*
G02*
X121380000Y-53950000I-2500000J0D01*
G01*
X121380000Y-53950000D02*
G75*
G02*
X126380000Y-53950000I2500000J0D01*
G01*
X126380000Y-61450000D02*
G75*
G02*
X121380000Y-61450000I-2500000J0D01*
G01*
X121380000Y-61450000D02*
G75*
G02*
X126380000Y-61450000I2500000J0D01*
G01*
X126380000Y-68950000D02*
G75*
G02*
X121380000Y-68950000I-2500000J0D01*
G01*
X121380000Y-68950000D02*
G75*
G02*
X126380000Y-68950000I2500000J0D01*
G01*
X126380000Y-76450000D02*
G75*
G02*
X121380000Y-76450000I-2500000J0D01*
G01*
X121380000Y-76450000D02*
G75*
G02*
X126380000Y-76450000I2500000J0D01*
G01*
X126380000Y-83950000D02*
G75*
G02*
X121380000Y-83950000I-2500000J0D01*
G01*
X121380000Y-83950000D02*
G75*
G02*
X126380000Y-83950000I2500000J0D01*
G01*
X133880000Y-38950000D02*
G75*
G02*
X128880000Y-38950000I-2500000J0D01*
G01*
X128880000Y-38950000D02*
G75*
G02*
X133880000Y-38950000I2500000J0D01*
G01*
X133880000Y-46450000D02*
G75*
G02*
X128880000Y-46450000I-2500000J0D01*
G01*
X128880000Y-46450000D02*
G75*
G02*
X133880000Y-46450000I2500000J0D01*
G01*
X133880000Y-53950000D02*
G75*
G02*
X128880000Y-53950000I-2500000J0D01*
G01*
X128880000Y-53950000D02*
G75*
G02*
X133880000Y-53950000I2500000J0D01*
G01*
X133880000Y-61450000D02*
G75*
G02*
X128880000Y-61450000I-2500000J0D01*
G01*
X128880000Y-61450000D02*
G75*
G02*
X133880000Y-61450000I2500000J0D01*
G01*
X133880000Y-68950000D02*
G75*
G02*
X128880000Y-68950000I-2500000J0D01*
G01*
X128880000Y-68950000D02*
G75*
G02*
X133880000Y-68950000I2500000J0D01*
G01*
X133880000Y-76450000D02*
G75*
G02*
X128880000Y-76450000I-2500000J0D01*
G01*
X128880000Y-76450000D02*
G75*
G02*
X133880000Y-76450000I2500000J0D01*
G01*
X133880000Y-83950000D02*
G75*
G02*
X128880000Y-83950000I-2500000J0D01*
G01*
X128880000Y-83950000D02*
G75*
G02*
X133880000Y-83950000I2500000J0D01*
G01*
X141380000Y-38950000D02*
G75*
G02*
X136380000Y-38950000I-2500000J0D01*
G01*
X136380000Y-38950000D02*
G75*
G02*
X141380000Y-38950000I2500000J0D01*
G01*
X141380000Y-46450000D02*
G75*
G02*
X136380000Y-46450000I-2500000J0D01*
G01*
X136380000Y-46450000D02*
G75*
G02*
X141380000Y-46450000I2500000J0D01*
G01*
X141380000Y-53950000D02*
G75*
G02*
X136380000Y-53950000I-2500000J0D01*
G01*
X136380000Y-53950000D02*
G75*
G02*
X141380000Y-53950000I2500000J0D01*
G01*
X141380000Y-61450000D02*
G75*
G02*
X136380000Y-61450000I-2500000J0D01*
G01*
X136380000Y-61450000D02*
G75*
G02*
X141380000Y-61450000I2500000J0D01*
G01*
X141380000Y-68950000D02*
G75*
G02*
X136380000Y-68950000I-2500000J0D01*
G01*
X136380000Y-68950000D02*
G75*
G02*
X141380000Y-68950000I2500000J0D01*
G01*
X141380000Y-76450000D02*
G75*
G02*
X136380000Y-76450000I-2500000J0D01*
G01*
X136380000Y-76450000D02*
G75*
G02*
X141380000Y-76450000I2500000J0D01*
G01*
X141380000Y-83950000D02*
G75*
G02*
X136380000Y-83950000I-2500000J0D01*
G01*
X136380000Y-83950000D02*
G75*
G02*
X141380000Y-83950000I2500000J0D01*
G01*
%TO.C,U5*%
X104740000Y-98330000D02*
X105400000Y-98330000D01*
X104740000Y-108810000D02*
X104740000Y-98330000D01*
X104740000Y-119290000D02*
X105400000Y-119290000D01*
X104740000Y-129770000D02*
X104740000Y-119290000D01*
X105400000Y-87850000D02*
X143020000Y-87850000D01*
X105400000Y-98330000D02*
X105400000Y-87850000D01*
X105400000Y-108810000D02*
X104740000Y-108810000D01*
X105400000Y-119290000D02*
X105400000Y-108810000D01*
X105400000Y-129770000D02*
X104740000Y-129770000D01*
X105400000Y-140250000D02*
X105400000Y-129770000D01*
X116010000Y-94550000D02*
X116510000Y-94550000D01*
X116010000Y-95050000D02*
X116010000Y-94550000D01*
X116010000Y-133050000D02*
X116510000Y-133050000D01*
X116010000Y-133550000D02*
X116010000Y-133050000D01*
X116510000Y-94550000D02*
X116510000Y-95050000D01*
X116510000Y-95050000D02*
X116010000Y-95050000D01*
X116510000Y-133050000D02*
X116510000Y-133550000D01*
X116510000Y-133550000D02*
X116010000Y-133550000D01*
X118550000Y-94550000D02*
X119050000Y-94550000D01*
X118550000Y-95050000D02*
X118550000Y-94550000D01*
X118550000Y-133050000D02*
X119050000Y-133050000D01*
X118550000Y-133550000D02*
X118550000Y-133050000D01*
X119050000Y-94550000D02*
X119050000Y-95050000D01*
X119050000Y-95050000D02*
X118550000Y-95050000D01*
X119050000Y-133050000D02*
X119050000Y-133550000D01*
X119050000Y-133550000D02*
X118550000Y-133550000D01*
X121090000Y-94550000D02*
X121590000Y-94550000D01*
X121090000Y-95050000D02*
X121090000Y-94550000D01*
X121090000Y-133050000D02*
X121590000Y-133050000D01*
X121090000Y-133550000D02*
X121090000Y-133050000D01*
X121590000Y-94550000D02*
X121590000Y-95050000D01*
X121590000Y-95050000D02*
X121090000Y-95050000D01*
X121590000Y-133050000D02*
X121590000Y-133550000D01*
X121590000Y-133550000D02*
X121090000Y-133550000D01*
X123630000Y-94550000D02*
X124130000Y-94550000D01*
X123630000Y-95050000D02*
X123630000Y-94550000D01*
X123630000Y-133050000D02*
X124130000Y-133050000D01*
X123630000Y-133550000D02*
X123630000Y-133050000D01*
X124130000Y-94550000D02*
X124130000Y-95050000D01*
X124130000Y-95050000D02*
X123630000Y-95050000D01*
X124130000Y-133050000D02*
X124130000Y-133550000D01*
X124130000Y-133550000D02*
X123630000Y-133550000D01*
X126170000Y-94550000D02*
X126670000Y-94550000D01*
X126170000Y-95050000D02*
X126170000Y-94550000D01*
X126170000Y-133050000D02*
X126670000Y-133050000D01*
X126170000Y-133550000D02*
X126170000Y-133050000D01*
X126670000Y-94550000D02*
X126670000Y-95050000D01*
X126670000Y-95050000D02*
X126170000Y-95050000D01*
X126670000Y-133050000D02*
X126670000Y-133550000D01*
X126670000Y-133550000D02*
X126170000Y-133550000D01*
X128710000Y-94550000D02*
X129210000Y-94550000D01*
X128710000Y-95050000D02*
X128710000Y-94550000D01*
X128710000Y-133050000D02*
X129210000Y-133050000D01*
X128710000Y-133550000D02*
X128710000Y-133050000D01*
X129210000Y-94550000D02*
X129210000Y-95050000D01*
X129210000Y-95050000D02*
X128710000Y-95050000D01*
X129210000Y-133050000D02*
X129210000Y-133550000D01*
X129210000Y-133550000D02*
X128710000Y-133550000D01*
X131250000Y-94550000D02*
X131750000Y-94550000D01*
X131250000Y-95050000D02*
X131250000Y-94550000D01*
X131250000Y-133050000D02*
X131750000Y-133050000D01*
X131250000Y-133550000D02*
X131250000Y-133050000D01*
X131750000Y-94550000D02*
X131750000Y-95050000D01*
X131750000Y-95050000D02*
X131250000Y-95050000D01*
X131750000Y-133050000D02*
X131750000Y-133550000D01*
X131750000Y-133550000D02*
X131250000Y-133550000D01*
X142360000Y-98330000D02*
X142360000Y-108810000D01*
X142360000Y-108810000D02*
X143020000Y-108810000D01*
X142360000Y-119290000D02*
X142360000Y-129770000D01*
X142360000Y-129770000D02*
X143020000Y-129770000D01*
X143020000Y-87850000D02*
X143020000Y-98330000D01*
X143020000Y-98330000D02*
X142360000Y-98330000D01*
X143020000Y-108810000D02*
X143020000Y-119290000D01*
X143020000Y-119290000D02*
X142360000Y-119290000D01*
X143020000Y-129770000D02*
X143020000Y-140250000D01*
X143020000Y-140250000D02*
X105400000Y-140250000D01*
X111380000Y-91550000D02*
G75*
G02*
X106380000Y-91550000I-2500000J0D01*
G01*
X106380000Y-91550000D02*
G75*
G02*
X111380000Y-91550000I2500000J0D01*
G01*
X111380000Y-99050000D02*
G75*
G02*
X106380000Y-99050000I-2500000J0D01*
G01*
X106380000Y-99050000D02*
G75*
G02*
X111380000Y-99050000I2500000J0D01*
G01*
X111380000Y-106550000D02*
G75*
G02*
X106380000Y-106550000I-2500000J0D01*
G01*
X106380000Y-106550000D02*
G75*
G02*
X111380000Y-106550000I2500000J0D01*
G01*
X111380000Y-114050000D02*
G75*
G02*
X106380000Y-114050000I-2500000J0D01*
G01*
X106380000Y-114050000D02*
G75*
G02*
X111380000Y-114050000I2500000J0D01*
G01*
X111380000Y-121550000D02*
G75*
G02*
X106380000Y-121550000I-2500000J0D01*
G01*
X106380000Y-121550000D02*
G75*
G02*
X111380000Y-121550000I2500000J0D01*
G01*
X111380000Y-129050000D02*
G75*
G02*
X106380000Y-129050000I-2500000J0D01*
G01*
X106380000Y-129050000D02*
G75*
G02*
X111380000Y-129050000I2500000J0D01*
G01*
X111380000Y-136550000D02*
G75*
G02*
X106380000Y-136550000I-2500000J0D01*
G01*
X106380000Y-136550000D02*
G75*
G02*
X111380000Y-136550000I2500000J0D01*
G01*
X118880000Y-91550000D02*
G75*
G02*
X113880000Y-91550000I-2500000J0D01*
G01*
X113880000Y-91550000D02*
G75*
G02*
X118880000Y-91550000I2500000J0D01*
G01*
X118880000Y-99050000D02*
G75*
G02*
X113880000Y-99050000I-2500000J0D01*
G01*
X113880000Y-99050000D02*
G75*
G02*
X118880000Y-99050000I2500000J0D01*
G01*
X118880000Y-106550000D02*
G75*
G02*
X113880000Y-106550000I-2500000J0D01*
G01*
X113880000Y-106550000D02*
G75*
G02*
X118880000Y-106550000I2500000J0D01*
G01*
X118880000Y-114050000D02*
G75*
G02*
X113880000Y-114050000I-2500000J0D01*
G01*
X113880000Y-114050000D02*
G75*
G02*
X118880000Y-114050000I2500000J0D01*
G01*
X118880000Y-121550000D02*
G75*
G02*
X113880000Y-121550000I-2500000J0D01*
G01*
X113880000Y-121550000D02*
G75*
G02*
X118880000Y-121550000I2500000J0D01*
G01*
X118880000Y-129050000D02*
G75*
G02*
X113880000Y-129050000I-2500000J0D01*
G01*
X113880000Y-129050000D02*
G75*
G02*
X118880000Y-129050000I2500000J0D01*
G01*
X118880000Y-136550000D02*
G75*
G02*
X113880000Y-136550000I-2500000J0D01*
G01*
X113880000Y-136550000D02*
G75*
G02*
X118880000Y-136550000I2500000J0D01*
G01*
X126380000Y-91550000D02*
G75*
G02*
X121380000Y-91550000I-2500000J0D01*
G01*
X121380000Y-91550000D02*
G75*
G02*
X126380000Y-91550000I2500000J0D01*
G01*
X126380000Y-99050000D02*
G75*
G02*
X121380000Y-99050000I-2500000J0D01*
G01*
X121380000Y-99050000D02*
G75*
G02*
X126380000Y-99050000I2500000J0D01*
G01*
X126380000Y-106550000D02*
G75*
G02*
X121380000Y-106550000I-2500000J0D01*
G01*
X121380000Y-106550000D02*
G75*
G02*
X126380000Y-106550000I2500000J0D01*
G01*
X126380000Y-114050000D02*
G75*
G02*
X121380000Y-114050000I-2500000J0D01*
G01*
X121380000Y-114050000D02*
G75*
G02*
X126380000Y-114050000I2500000J0D01*
G01*
X126380000Y-121550000D02*
G75*
G02*
X121380000Y-121550000I-2500000J0D01*
G01*
X121380000Y-121550000D02*
G75*
G02*
X126380000Y-121550000I2500000J0D01*
G01*
X126380000Y-129050000D02*
G75*
G02*
X121380000Y-129050000I-2500000J0D01*
G01*
X121380000Y-129050000D02*
G75*
G02*
X126380000Y-129050000I2500000J0D01*
G01*
X126380000Y-136550000D02*
G75*
G02*
X121380000Y-136550000I-2500000J0D01*
G01*
X121380000Y-136550000D02*
G75*
G02*
X126380000Y-136550000I2500000J0D01*
G01*
X133880000Y-91550000D02*
G75*
G02*
X128880000Y-91550000I-2500000J0D01*
G01*
X128880000Y-91550000D02*
G75*
G02*
X133880000Y-91550000I2500000J0D01*
G01*
X133880000Y-99050000D02*
G75*
G02*
X128880000Y-99050000I-2500000J0D01*
G01*
X128880000Y-99050000D02*
G75*
G02*
X133880000Y-99050000I2500000J0D01*
G01*
X133880000Y-106550000D02*
G75*
G02*
X128880000Y-106550000I-2500000J0D01*
G01*
X128880000Y-106550000D02*
G75*
G02*
X133880000Y-106550000I2500000J0D01*
G01*
X133880000Y-114050000D02*
G75*
G02*
X128880000Y-114050000I-2500000J0D01*
G01*
X128880000Y-114050000D02*
G75*
G02*
X133880000Y-114050000I2500000J0D01*
G01*
X133880000Y-121550000D02*
G75*
G02*
X128880000Y-121550000I-2500000J0D01*
G01*
X128880000Y-121550000D02*
G75*
G02*
X133880000Y-121550000I2500000J0D01*
G01*
X133880000Y-129050000D02*
G75*
G02*
X128880000Y-129050000I-2500000J0D01*
G01*
X128880000Y-129050000D02*
G75*
G02*
X133880000Y-129050000I2500000J0D01*
G01*
X133880000Y-136550000D02*
G75*
G02*
X128880000Y-136550000I-2500000J0D01*
G01*
X128880000Y-136550000D02*
G75*
G02*
X133880000Y-136550000I2500000J0D01*
G01*
X141380000Y-91550000D02*
G75*
G02*
X136380000Y-91550000I-2500000J0D01*
G01*
X136380000Y-91550000D02*
G75*
G02*
X141380000Y-91550000I2500000J0D01*
G01*
X141380000Y-99050000D02*
G75*
G02*
X136380000Y-99050000I-2500000J0D01*
G01*
X136380000Y-99050000D02*
G75*
G02*
X141380000Y-99050000I2500000J0D01*
G01*
X141380000Y-106550000D02*
G75*
G02*
X136380000Y-106550000I-2500000J0D01*
G01*
X136380000Y-106550000D02*
G75*
G02*
X141380000Y-106550000I2500000J0D01*
G01*
X141380000Y-114050000D02*
G75*
G02*
X136380000Y-114050000I-2500000J0D01*
G01*
X136380000Y-114050000D02*
G75*
G02*
X141380000Y-114050000I2500000J0D01*
G01*
X141380000Y-121550000D02*
G75*
G02*
X136380000Y-121550000I-2500000J0D01*
G01*
X136380000Y-121550000D02*
G75*
G02*
X141380000Y-121550000I2500000J0D01*
G01*
X141380000Y-129050000D02*
G75*
G02*
X136380000Y-129050000I-2500000J0D01*
G01*
X136380000Y-129050000D02*
G75*
G02*
X141380000Y-129050000I2500000J0D01*
G01*
X141380000Y-136550000D02*
G75*
G02*
X136380000Y-136550000I-2500000J0D01*
G01*
X136380000Y-136550000D02*
G75*
G02*
X141380000Y-136550000I2500000J0D01*
G01*
%TO.C,U3*%
X67240000Y-45730000D02*
X67900000Y-45730000D01*
X67240000Y-56210000D02*
X67240000Y-45730000D01*
X67240000Y-66690000D02*
X67900000Y-66690000D01*
X67240000Y-77170000D02*
X67240000Y-66690000D01*
X67900000Y-35250000D02*
X105520000Y-35250000D01*
X67900000Y-45730000D02*
X67900000Y-35250000D01*
X67900000Y-56210000D02*
X67240000Y-56210000D01*
X67900000Y-66690000D02*
X67900000Y-56210000D01*
X67900000Y-77170000D02*
X67240000Y-77170000D01*
X67900000Y-87650000D02*
X67900000Y-77170000D01*
X78510000Y-41950000D02*
X79010000Y-41950000D01*
X78510000Y-42450000D02*
X78510000Y-41950000D01*
X78510000Y-80450000D02*
X79010000Y-80450000D01*
X78510000Y-80950000D02*
X78510000Y-80450000D01*
X79010000Y-41950000D02*
X79010000Y-42450000D01*
X79010000Y-42450000D02*
X78510000Y-42450000D01*
X79010000Y-80450000D02*
X79010000Y-80950000D01*
X79010000Y-80950000D02*
X78510000Y-80950000D01*
X81050000Y-41950000D02*
X81550000Y-41950000D01*
X81050000Y-42450000D02*
X81050000Y-41950000D01*
X81050000Y-80450000D02*
X81550000Y-80450000D01*
X81050000Y-80950000D02*
X81050000Y-80450000D01*
X81550000Y-41950000D02*
X81550000Y-42450000D01*
X81550000Y-42450000D02*
X81050000Y-42450000D01*
X81550000Y-80450000D02*
X81550000Y-80950000D01*
X81550000Y-80950000D02*
X81050000Y-80950000D01*
X83590000Y-41950000D02*
X84090000Y-41950000D01*
X83590000Y-42450000D02*
X83590000Y-41950000D01*
X83590000Y-80450000D02*
X84090000Y-80450000D01*
X83590000Y-80950000D02*
X83590000Y-80450000D01*
X84090000Y-41950000D02*
X84090000Y-42450000D01*
X84090000Y-42450000D02*
X83590000Y-42450000D01*
X84090000Y-80450000D02*
X84090000Y-80950000D01*
X84090000Y-80950000D02*
X83590000Y-80950000D01*
X86130000Y-41950000D02*
X86630000Y-41950000D01*
X86130000Y-42450000D02*
X86130000Y-41950000D01*
X86130000Y-80450000D02*
X86630000Y-80450000D01*
X86130000Y-80950000D02*
X86130000Y-80450000D01*
X86630000Y-41950000D02*
X86630000Y-42450000D01*
X86630000Y-42450000D02*
X86130000Y-42450000D01*
X86630000Y-80450000D02*
X86630000Y-80950000D01*
X86630000Y-80950000D02*
X86130000Y-80950000D01*
X88670000Y-41950000D02*
X89170000Y-41950000D01*
X88670000Y-42450000D02*
X88670000Y-41950000D01*
X88670000Y-80450000D02*
X89170000Y-80450000D01*
X88670000Y-80950000D02*
X88670000Y-80450000D01*
X89170000Y-41950000D02*
X89170000Y-42450000D01*
X89170000Y-42450000D02*
X88670000Y-42450000D01*
X89170000Y-80450000D02*
X89170000Y-80950000D01*
X89170000Y-80950000D02*
X88670000Y-80950000D01*
X91210000Y-41950000D02*
X91710000Y-41950000D01*
X91210000Y-42450000D02*
X91210000Y-41950000D01*
X91210000Y-80450000D02*
X91710000Y-80450000D01*
X91210000Y-80950000D02*
X91210000Y-80450000D01*
X91710000Y-41950000D02*
X91710000Y-42450000D01*
X91710000Y-42450000D02*
X91210000Y-42450000D01*
X91710000Y-80450000D02*
X91710000Y-80950000D01*
X91710000Y-80950000D02*
X91210000Y-80950000D01*
X93750000Y-41950000D02*
X94250000Y-41950000D01*
X93750000Y-42450000D02*
X93750000Y-41950000D01*
X93750000Y-80450000D02*
X94250000Y-80450000D01*
X93750000Y-80950000D02*
X93750000Y-80450000D01*
X94250000Y-41950000D02*
X94250000Y-42450000D01*
X94250000Y-42450000D02*
X93750000Y-42450000D01*
X94250000Y-80450000D02*
X94250000Y-80950000D01*
X94250000Y-80950000D02*
X93750000Y-80950000D01*
X104860000Y-45730000D02*
X104860000Y-56210000D01*
X104860000Y-56210000D02*
X105520000Y-56210000D01*
X104860000Y-66690000D02*
X104860000Y-77170000D01*
X104860000Y-77170000D02*
X105520000Y-77170000D01*
X105520000Y-35250000D02*
X105520000Y-45730000D01*
X105520000Y-45730000D02*
X104860000Y-45730000D01*
X105520000Y-56210000D02*
X105520000Y-66690000D01*
X105520000Y-66690000D02*
X104860000Y-66690000D01*
X105520000Y-77170000D02*
X105520000Y-87650000D01*
X105520000Y-87650000D02*
X67900000Y-87650000D01*
X73880000Y-38950000D02*
G75*
G02*
X68880000Y-38950000I-2500000J0D01*
G01*
X68880000Y-38950000D02*
G75*
G02*
X73880000Y-38950000I2500000J0D01*
G01*
X73880000Y-46450000D02*
G75*
G02*
X68880000Y-46450000I-2500000J0D01*
G01*
X68880000Y-46450000D02*
G75*
G02*
X73880000Y-46450000I2500000J0D01*
G01*
X73880000Y-53950000D02*
G75*
G02*
X68880000Y-53950000I-2500000J0D01*
G01*
X68880000Y-53950000D02*
G75*
G02*
X73880000Y-53950000I2500000J0D01*
G01*
X73880000Y-61450000D02*
G75*
G02*
X68880000Y-61450000I-2500000J0D01*
G01*
X68880000Y-61450000D02*
G75*
G02*
X73880000Y-61450000I2500000J0D01*
G01*
X73880000Y-68950000D02*
G75*
G02*
X68880000Y-68950000I-2500000J0D01*
G01*
X68880000Y-68950000D02*
G75*
G02*
X73880000Y-68950000I2500000J0D01*
G01*
X73880000Y-76450000D02*
G75*
G02*
X68880000Y-76450000I-2500000J0D01*
G01*
X68880000Y-76450000D02*
G75*
G02*
X73880000Y-76450000I2500000J0D01*
G01*
X73880000Y-83950000D02*
G75*
G02*
X68880000Y-83950000I-2500000J0D01*
G01*
X68880000Y-83950000D02*
G75*
G02*
X73880000Y-83950000I2500000J0D01*
G01*
X81380000Y-38950000D02*
G75*
G02*
X76380000Y-38950000I-2500000J0D01*
G01*
X76380000Y-38950000D02*
G75*
G02*
X81380000Y-38950000I2500000J0D01*
G01*
X81380000Y-46450000D02*
G75*
G02*
X76380000Y-46450000I-2500000J0D01*
G01*
X76380000Y-46450000D02*
G75*
G02*
X81380000Y-46450000I2500000J0D01*
G01*
X81380000Y-53950000D02*
G75*
G02*
X76380000Y-53950000I-2500000J0D01*
G01*
X76380000Y-53950000D02*
G75*
G02*
X81380000Y-53950000I2500000J0D01*
G01*
X81380000Y-61450000D02*
G75*
G02*
X76380000Y-61450000I-2500000J0D01*
G01*
X76380000Y-61450000D02*
G75*
G02*
X81380000Y-61450000I2500000J0D01*
G01*
X81380000Y-68950000D02*
G75*
G02*
X76380000Y-68950000I-2500000J0D01*
G01*
X76380000Y-68950000D02*
G75*
G02*
X81380000Y-68950000I2500000J0D01*
G01*
X81380000Y-76450000D02*
G75*
G02*
X76380000Y-76450000I-2500000J0D01*
G01*
X76380000Y-76450000D02*
G75*
G02*
X81380000Y-76450000I2500000J0D01*
G01*
X81380000Y-83950000D02*
G75*
G02*
X76380000Y-83950000I-2500000J0D01*
G01*
X76380000Y-83950000D02*
G75*
G02*
X81380000Y-83950000I2500000J0D01*
G01*
X88880000Y-38950000D02*
G75*
G02*
X83880000Y-38950000I-2500000J0D01*
G01*
X83880000Y-38950000D02*
G75*
G02*
X88880000Y-38950000I2500000J0D01*
G01*
X88880000Y-46450000D02*
G75*
G02*
X83880000Y-46450000I-2500000J0D01*
G01*
X83880000Y-46450000D02*
G75*
G02*
X88880000Y-46450000I2500000J0D01*
G01*
X88880000Y-53950000D02*
G75*
G02*
X83880000Y-53950000I-2500000J0D01*
G01*
X83880000Y-53950000D02*
G75*
G02*
X88880000Y-53950000I2500000J0D01*
G01*
X88880000Y-61450000D02*
G75*
G02*
X83880000Y-61450000I-2500000J0D01*
G01*
X83880000Y-61450000D02*
G75*
G02*
X88880000Y-61450000I2500000J0D01*
G01*
X88880000Y-68950000D02*
G75*
G02*
X83880000Y-68950000I-2500000J0D01*
G01*
X83880000Y-68950000D02*
G75*
G02*
X88880000Y-68950000I2500000J0D01*
G01*
X88880000Y-76450000D02*
G75*
G02*
X83880000Y-76450000I-2500000J0D01*
G01*
X83880000Y-76450000D02*
G75*
G02*
X88880000Y-76450000I2500000J0D01*
G01*
X88880000Y-83950000D02*
G75*
G02*
X83880000Y-83950000I-2500000J0D01*
G01*
X83880000Y-83950000D02*
G75*
G02*
X88880000Y-83950000I2500000J0D01*
G01*
X96380000Y-38950000D02*
G75*
G02*
X91380000Y-38950000I-2500000J0D01*
G01*
X91380000Y-38950000D02*
G75*
G02*
X96380000Y-38950000I2500000J0D01*
G01*
X96380000Y-46450000D02*
G75*
G02*
X91380000Y-46450000I-2500000J0D01*
G01*
X91380000Y-46450000D02*
G75*
G02*
X96380000Y-46450000I2500000J0D01*
G01*
X96380000Y-53950000D02*
G75*
G02*
X91380000Y-53950000I-2500000J0D01*
G01*
X91380000Y-53950000D02*
G75*
G02*
X96380000Y-53950000I2500000J0D01*
G01*
X96380000Y-61450000D02*
G75*
G02*
X91380000Y-61450000I-2500000J0D01*
G01*
X91380000Y-61450000D02*
G75*
G02*
X96380000Y-61450000I2500000J0D01*
G01*
X96380000Y-68950000D02*
G75*
G02*
X91380000Y-68950000I-2500000J0D01*
G01*
X91380000Y-68950000D02*
G75*
G02*
X96380000Y-68950000I2500000J0D01*
G01*
X96380000Y-76450000D02*
G75*
G02*
X91380000Y-76450000I-2500000J0D01*
G01*
X91380000Y-76450000D02*
G75*
G02*
X96380000Y-76450000I2500000J0D01*
G01*
X96380000Y-83950000D02*
G75*
G02*
X91380000Y-83950000I-2500000J0D01*
G01*
X91380000Y-83950000D02*
G75*
G02*
X96380000Y-83950000I2500000J0D01*
G01*
X103880000Y-38950000D02*
G75*
G02*
X98880000Y-38950000I-2500000J0D01*
G01*
X98880000Y-38950000D02*
G75*
G02*
X103880000Y-38950000I2500000J0D01*
G01*
X103880000Y-46450000D02*
G75*
G02*
X98880000Y-46450000I-2500000J0D01*
G01*
X98880000Y-46450000D02*
G75*
G02*
X103880000Y-46450000I2500000J0D01*
G01*
X103880000Y-53950000D02*
G75*
G02*
X98880000Y-53950000I-2500000J0D01*
G01*
X98880000Y-53950000D02*
G75*
G02*
X103880000Y-53950000I2500000J0D01*
G01*
X103880000Y-61450000D02*
G75*
G02*
X98880000Y-61450000I-2500000J0D01*
G01*
X98880000Y-61450000D02*
G75*
G02*
X103880000Y-61450000I2500000J0D01*
G01*
X103880000Y-68950000D02*
G75*
G02*
X98880000Y-68950000I-2500000J0D01*
G01*
X98880000Y-68950000D02*
G75*
G02*
X103880000Y-68950000I2500000J0D01*
G01*
X103880000Y-76450000D02*
G75*
G02*
X98880000Y-76450000I-2500000J0D01*
G01*
X98880000Y-76450000D02*
G75*
G02*
X103880000Y-76450000I2500000J0D01*
G01*
X103880000Y-83950000D02*
G75*
G02*
X98880000Y-83950000I-2500000J0D01*
G01*
X98880000Y-83950000D02*
G75*
G02*
X103880000Y-83950000I2500000J0D01*
G01*
%TO.C,U4*%
X67240000Y-98330000D02*
X67900000Y-98330000D01*
X67240000Y-108810000D02*
X67240000Y-98330000D01*
X67240000Y-119290000D02*
X67900000Y-119290000D01*
X67240000Y-129770000D02*
X67240000Y-119290000D01*
X67900000Y-87850000D02*
X105520000Y-87850000D01*
X67900000Y-98330000D02*
X67900000Y-87850000D01*
X67900000Y-108810000D02*
X67240000Y-108810000D01*
X67900000Y-119290000D02*
X67900000Y-108810000D01*
X67900000Y-129770000D02*
X67240000Y-129770000D01*
X67900000Y-140250000D02*
X67900000Y-129770000D01*
X78510000Y-94550000D02*
X79010000Y-94550000D01*
X78510000Y-95050000D02*
X78510000Y-94550000D01*
X78510000Y-133050000D02*
X79010000Y-133050000D01*
X78510000Y-133550000D02*
X78510000Y-133050000D01*
X79010000Y-94550000D02*
X79010000Y-95050000D01*
X79010000Y-95050000D02*
X78510000Y-95050000D01*
X79010000Y-133050000D02*
X79010000Y-133550000D01*
X79010000Y-133550000D02*
X78510000Y-133550000D01*
X81050000Y-94550000D02*
X81550000Y-94550000D01*
X81050000Y-95050000D02*
X81050000Y-94550000D01*
X81050000Y-133050000D02*
X81550000Y-133050000D01*
X81050000Y-133550000D02*
X81050000Y-133050000D01*
X81550000Y-94550000D02*
X81550000Y-95050000D01*
X81550000Y-95050000D02*
X81050000Y-95050000D01*
X81550000Y-133050000D02*
X81550000Y-133550000D01*
X81550000Y-133550000D02*
X81050000Y-133550000D01*
X83590000Y-94550000D02*
X84090000Y-94550000D01*
X83590000Y-95050000D02*
X83590000Y-94550000D01*
X83590000Y-133050000D02*
X84090000Y-133050000D01*
X83590000Y-133550000D02*
X83590000Y-133050000D01*
X84090000Y-94550000D02*
X84090000Y-95050000D01*
X84090000Y-95050000D02*
X83590000Y-95050000D01*
X84090000Y-133050000D02*
X84090000Y-133550000D01*
X84090000Y-133550000D02*
X83590000Y-133550000D01*
X86130000Y-94550000D02*
X86630000Y-94550000D01*
X86130000Y-95050000D02*
X86130000Y-94550000D01*
X86130000Y-133050000D02*
X86630000Y-133050000D01*
X86130000Y-133550000D02*
X86130000Y-133050000D01*
X86630000Y-94550000D02*
X86630000Y-95050000D01*
X86630000Y-95050000D02*
X86130000Y-95050000D01*
X86630000Y-133050000D02*
X86630000Y-133550000D01*
X86630000Y-133550000D02*
X86130000Y-133550000D01*
X88670000Y-94550000D02*
X89170000Y-94550000D01*
X88670000Y-95050000D02*
X88670000Y-94550000D01*
X88670000Y-133050000D02*
X89170000Y-133050000D01*
X88670000Y-133550000D02*
X88670000Y-133050000D01*
X89170000Y-94550000D02*
X89170000Y-95050000D01*
X89170000Y-95050000D02*
X88670000Y-95050000D01*
X89170000Y-133050000D02*
X89170000Y-133550000D01*
X89170000Y-133550000D02*
X88670000Y-133550000D01*
X91210000Y-94550000D02*
X91710000Y-94550000D01*
X91210000Y-95050000D02*
X91210000Y-94550000D01*
X91210000Y-133050000D02*
X91710000Y-133050000D01*
X91210000Y-133550000D02*
X91210000Y-133050000D01*
X91710000Y-94550000D02*
X91710000Y-95050000D01*
X91710000Y-95050000D02*
X91210000Y-95050000D01*
X91710000Y-133050000D02*
X91710000Y-133550000D01*
X91710000Y-133550000D02*
X91210000Y-133550000D01*
X93750000Y-94550000D02*
X94250000Y-94550000D01*
X93750000Y-95050000D02*
X93750000Y-94550000D01*
X93750000Y-133050000D02*
X94250000Y-133050000D01*
X93750000Y-133550000D02*
X93750000Y-133050000D01*
X94250000Y-94550000D02*
X94250000Y-95050000D01*
X94250000Y-95050000D02*
X93750000Y-95050000D01*
X94250000Y-133050000D02*
X94250000Y-133550000D01*
X94250000Y-133550000D02*
X93750000Y-133550000D01*
X104860000Y-98330000D02*
X104860000Y-108810000D01*
X104860000Y-108810000D02*
X105520000Y-108810000D01*
X104860000Y-119290000D02*
X104860000Y-129770000D01*
X104860000Y-129770000D02*
X105520000Y-129770000D01*
X105520000Y-87850000D02*
X105520000Y-98330000D01*
X105520000Y-98330000D02*
X104860000Y-98330000D01*
X105520000Y-108810000D02*
X105520000Y-119290000D01*
X105520000Y-119290000D02*
X104860000Y-119290000D01*
X105520000Y-129770000D02*
X105520000Y-140250000D01*
X105520000Y-140250000D02*
X67900000Y-140250000D01*
X73880000Y-91550000D02*
G75*
G02*
X68880000Y-91550000I-2500000J0D01*
G01*
X68880000Y-91550000D02*
G75*
G02*
X73880000Y-91550000I2500000J0D01*
G01*
X73880000Y-99050000D02*
G75*
G02*
X68880000Y-99050000I-2500000J0D01*
G01*
X68880000Y-99050000D02*
G75*
G02*
X73880000Y-99050000I2500000J0D01*
G01*
X73880000Y-106550000D02*
G75*
G02*
X68880000Y-106550000I-2500000J0D01*
G01*
X68880000Y-106550000D02*
G75*
G02*
X73880000Y-106550000I2500000J0D01*
G01*
X73880000Y-114050000D02*
G75*
G02*
X68880000Y-114050000I-2500000J0D01*
G01*
X68880000Y-114050000D02*
G75*
G02*
X73880000Y-114050000I2500000J0D01*
G01*
X73880000Y-121550000D02*
G75*
G02*
X68880000Y-121550000I-2500000J0D01*
G01*
X68880000Y-121550000D02*
G75*
G02*
X73880000Y-121550000I2500000J0D01*
G01*
X73880000Y-129050000D02*
G75*
G02*
X68880000Y-129050000I-2500000J0D01*
G01*
X68880000Y-129050000D02*
G75*
G02*
X73880000Y-129050000I2500000J0D01*
G01*
X73880000Y-136550000D02*
G75*
G02*
X68880000Y-136550000I-2500000J0D01*
G01*
X68880000Y-136550000D02*
G75*
G02*
X73880000Y-136550000I2500000J0D01*
G01*
X81380000Y-91550000D02*
G75*
G02*
X76380000Y-91550000I-2500000J0D01*
G01*
X76380000Y-91550000D02*
G75*
G02*
X81380000Y-91550000I2500000J0D01*
G01*
X81380000Y-99050000D02*
G75*
G02*
X76380000Y-99050000I-2500000J0D01*
G01*
X76380000Y-99050000D02*
G75*
G02*
X81380000Y-99050000I2500000J0D01*
G01*
X81380000Y-106550000D02*
G75*
G02*
X76380000Y-106550000I-2500000J0D01*
G01*
X76380000Y-106550000D02*
G75*
G02*
X81380000Y-106550000I2500000J0D01*
G01*
X81380000Y-114050000D02*
G75*
G02*
X76380000Y-114050000I-2500000J0D01*
G01*
X76380000Y-114050000D02*
G75*
G02*
X81380000Y-114050000I2500000J0D01*
G01*
X81380000Y-121550000D02*
G75*
G02*
X76380000Y-121550000I-2500000J0D01*
G01*
X76380000Y-121550000D02*
G75*
G02*
X81380000Y-121550000I2500000J0D01*
G01*
X81380000Y-129050000D02*
G75*
G02*
X76380000Y-129050000I-2500000J0D01*
G01*
X76380000Y-129050000D02*
G75*
G02*
X81380000Y-129050000I2500000J0D01*
G01*
X81380000Y-136550000D02*
G75*
G02*
X76380000Y-136550000I-2500000J0D01*
G01*
X76380000Y-136550000D02*
G75*
G02*
X81380000Y-136550000I2500000J0D01*
G01*
X88880000Y-91550000D02*
G75*
G02*
X83880000Y-91550000I-2500000J0D01*
G01*
X83880000Y-91550000D02*
G75*
G02*
X88880000Y-91550000I2500000J0D01*
G01*
X88880000Y-99050000D02*
G75*
G02*
X83880000Y-99050000I-2500000J0D01*
G01*
X83880000Y-99050000D02*
G75*
G02*
X88880000Y-99050000I2500000J0D01*
G01*
X88880000Y-106550000D02*
G75*
G02*
X83880000Y-106550000I-2500000J0D01*
G01*
X83880000Y-106550000D02*
G75*
G02*
X88880000Y-106550000I2500000J0D01*
G01*
X88880000Y-114050000D02*
G75*
G02*
X83880000Y-114050000I-2500000J0D01*
G01*
X83880000Y-114050000D02*
G75*
G02*
X88880000Y-114050000I2500000J0D01*
G01*
X88880000Y-121550000D02*
G75*
G02*
X83880000Y-121550000I-2500000J0D01*
G01*
X83880000Y-121550000D02*
G75*
G02*
X88880000Y-121550000I2500000J0D01*
G01*
X88880000Y-129050000D02*
G75*
G02*
X83880000Y-129050000I-2500000J0D01*
G01*
X83880000Y-129050000D02*
G75*
G02*
X88880000Y-129050000I2500000J0D01*
G01*
X88880000Y-136550000D02*
G75*
G02*
X83880000Y-136550000I-2500000J0D01*
G01*
X83880000Y-136550000D02*
G75*
G02*
X88880000Y-136550000I2500000J0D01*
G01*
X96380000Y-91550000D02*
G75*
G02*
X91380000Y-91550000I-2500000J0D01*
G01*
X91380000Y-91550000D02*
G75*
G02*
X96380000Y-91550000I2500000J0D01*
G01*
X96380000Y-99050000D02*
G75*
G02*
X91380000Y-99050000I-2500000J0D01*
G01*
X91380000Y-99050000D02*
G75*
G02*
X96380000Y-99050000I2500000J0D01*
G01*
X96380000Y-106550000D02*
G75*
G02*
X91380000Y-106550000I-2500000J0D01*
G01*
X91380000Y-106550000D02*
G75*
G02*
X96380000Y-106550000I2500000J0D01*
G01*
X96380000Y-114050000D02*
G75*
G02*
X91380000Y-114050000I-2500000J0D01*
G01*
X91380000Y-114050000D02*
G75*
G02*
X96380000Y-114050000I2500000J0D01*
G01*
X96380000Y-121550000D02*
G75*
G02*
X91380000Y-121550000I-2500000J0D01*
G01*
X91380000Y-121550000D02*
G75*
G02*
X96380000Y-121550000I2500000J0D01*
G01*
X96380000Y-129050000D02*
G75*
G02*
X91380000Y-129050000I-2500000J0D01*
G01*
X91380000Y-129050000D02*
G75*
G02*
X96380000Y-129050000I2500000J0D01*
G01*
X96380000Y-136550000D02*
G75*
G02*
X91380000Y-136550000I-2500000J0D01*
G01*
X91380000Y-136550000D02*
G75*
G02*
X96380000Y-136550000I2500000J0D01*
G01*
X103880000Y-91550000D02*
G75*
G02*
X98880000Y-91550000I-2500000J0D01*
G01*
X98880000Y-91550000D02*
G75*
G02*
X103880000Y-91550000I2500000J0D01*
G01*
X103880000Y-99050000D02*
G75*
G02*
X98880000Y-99050000I-2500000J0D01*
G01*
X98880000Y-99050000D02*
G75*
G02*
X103880000Y-99050000I2500000J0D01*
G01*
X103880000Y-106550000D02*
G75*
G02*
X98880000Y-106550000I-2500000J0D01*
G01*
X98880000Y-106550000D02*
G75*
G02*
X103880000Y-106550000I2500000J0D01*
G01*
X103880000Y-114050000D02*
G75*
G02*
X98880000Y-114050000I-2500000J0D01*
G01*
X98880000Y-114050000D02*
G75*
G02*
X103880000Y-114050000I2500000J0D01*
G01*
X103880000Y-121550000D02*
G75*
G02*
X98880000Y-121550000I-2500000J0D01*
G01*
X98880000Y-121550000D02*
G75*
G02*
X103880000Y-121550000I2500000J0D01*
G01*
X103880000Y-129050000D02*
G75*
G02*
X98880000Y-129050000I-2500000J0D01*
G01*
X98880000Y-129050000D02*
G75*
G02*
X103880000Y-129050000I2500000J0D01*
G01*
X103880000Y-136550000D02*
G75*
G02*
X98880000Y-136550000I-2500000J0D01*
G01*
X98880000Y-136550000D02*
G75*
G02*
X103880000Y-136550000I2500000J0D01*
G01*
%TD*%
M02*
