%TF.GenerationSoftware,KiCad,Pcbnew,8.0.5*%
%TF.CreationDate,2025-02-27T20:45:01-08:00*%
%TF.ProjectId,ledaray,6c656461-7261-4792-9e6b-696361645f70,rev?*%
%TF.SameCoordinates,Original*%
%TF.FileFunction,Legend,Top*%
%TF.FilePolarity,Positive*%
%FSLAX46Y46*%
G04 Gerber Fmt 4.6, Leading zero omitted, Abs format (unit mm)*
G04 Created by KiCad (PCBNEW 8.0.5) date 2025-02-27 20:45:01*
%MOMM*%
%LPD*%
G01*
G04 APERTURE LIST*
%ADD10C,0.100000*%
%ADD11C,0.150000*%
%ADD12C,0.120000*%
G04 APERTURE END LIST*
D10*
X77575312Y-138177180D02*
X77527693Y-138224800D01*
X77527693Y-138224800D02*
X77384836Y-138272419D01*
X77384836Y-138272419D02*
X77289598Y-138272419D01*
X77289598Y-138272419D02*
X77146741Y-138224800D01*
X77146741Y-138224800D02*
X77051503Y-138129561D01*
X77051503Y-138129561D02*
X77003884Y-138034323D01*
X77003884Y-138034323D02*
X76956265Y-137843847D01*
X76956265Y-137843847D02*
X76956265Y-137700990D01*
X76956265Y-137700990D02*
X77003884Y-137510514D01*
X77003884Y-137510514D02*
X77051503Y-137415276D01*
X77051503Y-137415276D02*
X77146741Y-137320038D01*
X77146741Y-137320038D02*
X77289598Y-137272419D01*
X77289598Y-137272419D02*
X77384836Y-137272419D01*
X77384836Y-137272419D02*
X77527693Y-137320038D01*
X77527693Y-137320038D02*
X77575312Y-137367657D01*
X78003884Y-138272419D02*
X78003884Y-137272419D01*
X78432455Y-138272419D02*
X78432455Y-137748609D01*
X78432455Y-137748609D02*
X78384836Y-137653371D01*
X78384836Y-137653371D02*
X78289598Y-137605752D01*
X78289598Y-137605752D02*
X78146741Y-137605752D01*
X78146741Y-137605752D02*
X78051503Y-137653371D01*
X78051503Y-137653371D02*
X78003884Y-137700990D01*
X79289598Y-138224800D02*
X79194360Y-138272419D01*
X79194360Y-138272419D02*
X79003884Y-138272419D01*
X79003884Y-138272419D02*
X78908646Y-138224800D01*
X78908646Y-138224800D02*
X78861027Y-138129561D01*
X78861027Y-138129561D02*
X78861027Y-137748609D01*
X78861027Y-137748609D02*
X78908646Y-137653371D01*
X78908646Y-137653371D02*
X79003884Y-137605752D01*
X79003884Y-137605752D02*
X79194360Y-137605752D01*
X79194360Y-137605752D02*
X79289598Y-137653371D01*
X79289598Y-137653371D02*
X79337217Y-137748609D01*
X79337217Y-137748609D02*
X79337217Y-137843847D01*
X79337217Y-137843847D02*
X78861027Y-137939085D01*
X80194360Y-138272419D02*
X80194360Y-137748609D01*
X80194360Y-137748609D02*
X80146741Y-137653371D01*
X80146741Y-137653371D02*
X80051503Y-137605752D01*
X80051503Y-137605752D02*
X79861027Y-137605752D01*
X79861027Y-137605752D02*
X79765789Y-137653371D01*
X80194360Y-138224800D02*
X80099122Y-138272419D01*
X80099122Y-138272419D02*
X79861027Y-138272419D01*
X79861027Y-138272419D02*
X79765789Y-138224800D01*
X79765789Y-138224800D02*
X79718170Y-138129561D01*
X79718170Y-138129561D02*
X79718170Y-138034323D01*
X79718170Y-138034323D02*
X79765789Y-137939085D01*
X79765789Y-137939085D02*
X79861027Y-137891466D01*
X79861027Y-137891466D02*
X80099122Y-137891466D01*
X80099122Y-137891466D02*
X80194360Y-137843847D01*
X80670551Y-137605752D02*
X80670551Y-138605752D01*
X80670551Y-137653371D02*
X80765789Y-137605752D01*
X80765789Y-137605752D02*
X80956265Y-137605752D01*
X80956265Y-137605752D02*
X81051503Y-137653371D01*
X81051503Y-137653371D02*
X81099122Y-137700990D01*
X81099122Y-137700990D02*
X81146741Y-137796228D01*
X81146741Y-137796228D02*
X81146741Y-138081942D01*
X81146741Y-138081942D02*
X81099122Y-138177180D01*
X81099122Y-138177180D02*
X81051503Y-138224800D01*
X81051503Y-138224800D02*
X80956265Y-138272419D01*
X80956265Y-138272419D02*
X80765789Y-138272419D01*
X80765789Y-138272419D02*
X80670551Y-138224800D01*
X81527694Y-138224800D02*
X81622932Y-138272419D01*
X81622932Y-138272419D02*
X81813408Y-138272419D01*
X81813408Y-138272419D02*
X81908646Y-138224800D01*
X81908646Y-138224800D02*
X81956265Y-138129561D01*
X81956265Y-138129561D02*
X81956265Y-138081942D01*
X81956265Y-138081942D02*
X81908646Y-137986704D01*
X81908646Y-137986704D02*
X81813408Y-137939085D01*
X81813408Y-137939085D02*
X81670551Y-137939085D01*
X81670551Y-137939085D02*
X81575313Y-137891466D01*
X81575313Y-137891466D02*
X81527694Y-137796228D01*
X81527694Y-137796228D02*
X81527694Y-137748609D01*
X81527694Y-137748609D02*
X81575313Y-137653371D01*
X81575313Y-137653371D02*
X81670551Y-137605752D01*
X81670551Y-137605752D02*
X81813408Y-137605752D01*
X81813408Y-137605752D02*
X81908646Y-137653371D01*
X82384837Y-138272419D02*
X82384837Y-137272419D01*
X82480075Y-137891466D02*
X82765789Y-138272419D01*
X82765789Y-137605752D02*
X82384837Y-137986704D01*
X83622932Y-138272419D02*
X83622932Y-137748609D01*
X83622932Y-137748609D02*
X83575313Y-137653371D01*
X83575313Y-137653371D02*
X83480075Y-137605752D01*
X83480075Y-137605752D02*
X83289599Y-137605752D01*
X83289599Y-137605752D02*
X83194361Y-137653371D01*
X83622932Y-138224800D02*
X83527694Y-138272419D01*
X83527694Y-138272419D02*
X83289599Y-138272419D01*
X83289599Y-138272419D02*
X83194361Y-138224800D01*
X83194361Y-138224800D02*
X83146742Y-138129561D01*
X83146742Y-138129561D02*
X83146742Y-138034323D01*
X83146742Y-138034323D02*
X83194361Y-137939085D01*
X83194361Y-137939085D02*
X83289599Y-137891466D01*
X83289599Y-137891466D02*
X83527694Y-137891466D01*
X83527694Y-137891466D02*
X83622932Y-137843847D01*
X83956266Y-137605752D02*
X84337218Y-137605752D01*
X84099123Y-137272419D02*
X84099123Y-138129561D01*
X84099123Y-138129561D02*
X84146742Y-138224800D01*
X84146742Y-138224800D02*
X84241980Y-138272419D01*
X84241980Y-138272419D02*
X84337218Y-138272419D01*
X85051504Y-138224800D02*
X84956266Y-138272419D01*
X84956266Y-138272419D02*
X84765790Y-138272419D01*
X84765790Y-138272419D02*
X84670552Y-138224800D01*
X84670552Y-138224800D02*
X84622933Y-138129561D01*
X84622933Y-138129561D02*
X84622933Y-137748609D01*
X84622933Y-137748609D02*
X84670552Y-137653371D01*
X84670552Y-137653371D02*
X84765790Y-137605752D01*
X84765790Y-137605752D02*
X84956266Y-137605752D01*
X84956266Y-137605752D02*
X85051504Y-137653371D01*
X85051504Y-137653371D02*
X85099123Y-137748609D01*
X85099123Y-137748609D02*
X85099123Y-137843847D01*
X85099123Y-137843847D02*
X84622933Y-137939085D01*
X86765790Y-138272419D02*
X86289600Y-138272419D01*
X86289600Y-138272419D02*
X86289600Y-137272419D01*
X87099124Y-137748609D02*
X87432457Y-137748609D01*
X87575314Y-138272419D02*
X87099124Y-138272419D01*
X87099124Y-138272419D02*
X87099124Y-137272419D01*
X87099124Y-137272419D02*
X87575314Y-137272419D01*
X88003886Y-138272419D02*
X88003886Y-137272419D01*
X88003886Y-137272419D02*
X88241981Y-137272419D01*
X88241981Y-137272419D02*
X88384838Y-137320038D01*
X88384838Y-137320038D02*
X88480076Y-137415276D01*
X88480076Y-137415276D02*
X88527695Y-137510514D01*
X88527695Y-137510514D02*
X88575314Y-137700990D01*
X88575314Y-137700990D02*
X88575314Y-137843847D01*
X88575314Y-137843847D02*
X88527695Y-138034323D01*
X88527695Y-138034323D02*
X88480076Y-138129561D01*
X88480076Y-138129561D02*
X88384838Y-138224800D01*
X88384838Y-138224800D02*
X88241981Y-138272419D01*
X88241981Y-138272419D02*
X88003886Y-138272419D01*
X89003886Y-138272419D02*
X89003886Y-137272419D01*
X89003886Y-137272419D02*
X89337219Y-137986704D01*
X89337219Y-137986704D02*
X89670552Y-137272419D01*
X89670552Y-137272419D02*
X89670552Y-138272419D01*
X90575314Y-138272419D02*
X90575314Y-137748609D01*
X90575314Y-137748609D02*
X90527695Y-137653371D01*
X90527695Y-137653371D02*
X90432457Y-137605752D01*
X90432457Y-137605752D02*
X90241981Y-137605752D01*
X90241981Y-137605752D02*
X90146743Y-137653371D01*
X90575314Y-138224800D02*
X90480076Y-138272419D01*
X90480076Y-138272419D02*
X90241981Y-138272419D01*
X90241981Y-138272419D02*
X90146743Y-138224800D01*
X90146743Y-138224800D02*
X90099124Y-138129561D01*
X90099124Y-138129561D02*
X90099124Y-138034323D01*
X90099124Y-138034323D02*
X90146743Y-137939085D01*
X90146743Y-137939085D02*
X90241981Y-137891466D01*
X90241981Y-137891466D02*
X90480076Y-137891466D01*
X90480076Y-137891466D02*
X90575314Y-137843847D01*
X90908648Y-137605752D02*
X91289600Y-137605752D01*
X91051505Y-137272419D02*
X91051505Y-138129561D01*
X91051505Y-138129561D02*
X91099124Y-138224800D01*
X91099124Y-138224800D02*
X91194362Y-138272419D01*
X91194362Y-138272419D02*
X91289600Y-138272419D01*
X91622934Y-138272419D02*
X91622934Y-137605752D01*
X91622934Y-137796228D02*
X91670553Y-137700990D01*
X91670553Y-137700990D02*
X91718172Y-137653371D01*
X91718172Y-137653371D02*
X91813410Y-137605752D01*
X91813410Y-137605752D02*
X91908648Y-137605752D01*
X92241982Y-138272419D02*
X92241982Y-137605752D01*
X92241982Y-137272419D02*
X92194363Y-137320038D01*
X92194363Y-137320038D02*
X92241982Y-137367657D01*
X92241982Y-137367657D02*
X92289601Y-137320038D01*
X92289601Y-137320038D02*
X92241982Y-137272419D01*
X92241982Y-137272419D02*
X92241982Y-137367657D01*
X92622934Y-138272419D02*
X93146743Y-137605752D01*
X92622934Y-137605752D02*
X93146743Y-138272419D01*
X94622934Y-137748609D02*
X94765791Y-137796228D01*
X94765791Y-137796228D02*
X94813410Y-137843847D01*
X94813410Y-137843847D02*
X94861029Y-137939085D01*
X94861029Y-137939085D02*
X94861029Y-138081942D01*
X94861029Y-138081942D02*
X94813410Y-138177180D01*
X94813410Y-138177180D02*
X94765791Y-138224800D01*
X94765791Y-138224800D02*
X94670553Y-138272419D01*
X94670553Y-138272419D02*
X94289601Y-138272419D01*
X94289601Y-138272419D02*
X94289601Y-137272419D01*
X94289601Y-137272419D02*
X94622934Y-137272419D01*
X94622934Y-137272419D02*
X94718172Y-137320038D01*
X94718172Y-137320038D02*
X94765791Y-137367657D01*
X94765791Y-137367657D02*
X94813410Y-137462895D01*
X94813410Y-137462895D02*
X94813410Y-137558133D01*
X94813410Y-137558133D02*
X94765791Y-137653371D01*
X94765791Y-137653371D02*
X94718172Y-137700990D01*
X94718172Y-137700990D02*
X94622934Y-137748609D01*
X94622934Y-137748609D02*
X94289601Y-137748609D01*
X95432458Y-138272419D02*
X95337220Y-138224800D01*
X95337220Y-138224800D02*
X95289601Y-138177180D01*
X95289601Y-138177180D02*
X95241982Y-138081942D01*
X95241982Y-138081942D02*
X95241982Y-137796228D01*
X95241982Y-137796228D02*
X95289601Y-137700990D01*
X95289601Y-137700990D02*
X95337220Y-137653371D01*
X95337220Y-137653371D02*
X95432458Y-137605752D01*
X95432458Y-137605752D02*
X95575315Y-137605752D01*
X95575315Y-137605752D02*
X95670553Y-137653371D01*
X95670553Y-137653371D02*
X95718172Y-137700990D01*
X95718172Y-137700990D02*
X95765791Y-137796228D01*
X95765791Y-137796228D02*
X95765791Y-138081942D01*
X95765791Y-138081942D02*
X95718172Y-138177180D01*
X95718172Y-138177180D02*
X95670553Y-138224800D01*
X95670553Y-138224800D02*
X95575315Y-138272419D01*
X95575315Y-138272419D02*
X95432458Y-138272419D01*
X96622934Y-138272419D02*
X96622934Y-137748609D01*
X96622934Y-137748609D02*
X96575315Y-137653371D01*
X96575315Y-137653371D02*
X96480077Y-137605752D01*
X96480077Y-137605752D02*
X96289601Y-137605752D01*
X96289601Y-137605752D02*
X96194363Y-137653371D01*
X96622934Y-138224800D02*
X96527696Y-138272419D01*
X96527696Y-138272419D02*
X96289601Y-138272419D01*
X96289601Y-138272419D02*
X96194363Y-138224800D01*
X96194363Y-138224800D02*
X96146744Y-138129561D01*
X96146744Y-138129561D02*
X96146744Y-138034323D01*
X96146744Y-138034323D02*
X96194363Y-137939085D01*
X96194363Y-137939085D02*
X96289601Y-137891466D01*
X96289601Y-137891466D02*
X96527696Y-137891466D01*
X96527696Y-137891466D02*
X96622934Y-137843847D01*
X97099125Y-138272419D02*
X97099125Y-137605752D01*
X97099125Y-137796228D02*
X97146744Y-137700990D01*
X97146744Y-137700990D02*
X97194363Y-137653371D01*
X97194363Y-137653371D02*
X97289601Y-137605752D01*
X97289601Y-137605752D02*
X97384839Y-137605752D01*
X98146744Y-138272419D02*
X98146744Y-137272419D01*
X98146744Y-138224800D02*
X98051506Y-138272419D01*
X98051506Y-138272419D02*
X97861030Y-138272419D01*
X97861030Y-138272419D02*
X97765792Y-138224800D01*
X97765792Y-138224800D02*
X97718173Y-138177180D01*
X97718173Y-138177180D02*
X97670554Y-138081942D01*
X97670554Y-138081942D02*
X97670554Y-137796228D01*
X97670554Y-137796228D02*
X97718173Y-137700990D01*
X97718173Y-137700990D02*
X97765792Y-137653371D01*
X97765792Y-137653371D02*
X97861030Y-137605752D01*
X97861030Y-137605752D02*
X98051506Y-137605752D01*
X98051506Y-137605752D02*
X98146744Y-137653371D01*
X99289602Y-137605752D02*
X99527697Y-138272419D01*
X99527697Y-138272419D02*
X99765792Y-137605752D01*
X100670554Y-138272419D02*
X100099126Y-138272419D01*
X100384840Y-138272419D02*
X100384840Y-137272419D01*
X100384840Y-137272419D02*
X100289602Y-137415276D01*
X100289602Y-137415276D02*
X100194364Y-137510514D01*
X100194364Y-137510514D02*
X100099126Y-137558133D01*
X101099126Y-138177180D02*
X101146745Y-138224800D01*
X101146745Y-138224800D02*
X101099126Y-138272419D01*
X101099126Y-138272419D02*
X101051507Y-138224800D01*
X101051507Y-138224800D02*
X101099126Y-138177180D01*
X101099126Y-138177180D02*
X101099126Y-138272419D01*
X101765792Y-137272419D02*
X101861030Y-137272419D01*
X101861030Y-137272419D02*
X101956268Y-137320038D01*
X101956268Y-137320038D02*
X102003887Y-137367657D01*
X102003887Y-137367657D02*
X102051506Y-137462895D01*
X102051506Y-137462895D02*
X102099125Y-137653371D01*
X102099125Y-137653371D02*
X102099125Y-137891466D01*
X102099125Y-137891466D02*
X102051506Y-138081942D01*
X102051506Y-138081942D02*
X102003887Y-138177180D01*
X102003887Y-138177180D02*
X101956268Y-138224800D01*
X101956268Y-138224800D02*
X101861030Y-138272419D01*
X101861030Y-138272419D02*
X101765792Y-138272419D01*
X101765792Y-138272419D02*
X101670554Y-138224800D01*
X101670554Y-138224800D02*
X101622935Y-138177180D01*
X101622935Y-138177180D02*
X101575316Y-138081942D01*
X101575316Y-138081942D02*
X101527697Y-137891466D01*
X101527697Y-137891466D02*
X101527697Y-137653371D01*
X101527697Y-137653371D02*
X101575316Y-137462895D01*
X101575316Y-137462895D02*
X101622935Y-137367657D01*
X101622935Y-137367657D02*
X101670554Y-137320038D01*
X101670554Y-137320038D02*
X101765792Y-137272419D01*
X103575316Y-138653371D02*
X103527697Y-138605752D01*
X103527697Y-138605752D02*
X103432459Y-138462895D01*
X103432459Y-138462895D02*
X103384840Y-138367657D01*
X103384840Y-138367657D02*
X103337221Y-138224800D01*
X103337221Y-138224800D02*
X103289602Y-137986704D01*
X103289602Y-137986704D02*
X103289602Y-137796228D01*
X103289602Y-137796228D02*
X103337221Y-137558133D01*
X103337221Y-137558133D02*
X103384840Y-137415276D01*
X103384840Y-137415276D02*
X103432459Y-137320038D01*
X103432459Y-137320038D02*
X103527697Y-137177180D01*
X103527697Y-137177180D02*
X103575316Y-137129561D01*
X104527697Y-138177180D02*
X104480078Y-138224800D01*
X104480078Y-138224800D02*
X104337221Y-138272419D01*
X104337221Y-138272419D02*
X104241983Y-138272419D01*
X104241983Y-138272419D02*
X104099126Y-138224800D01*
X104099126Y-138224800D02*
X104003888Y-138129561D01*
X104003888Y-138129561D02*
X103956269Y-138034323D01*
X103956269Y-138034323D02*
X103908650Y-137843847D01*
X103908650Y-137843847D02*
X103908650Y-137700990D01*
X103908650Y-137700990D02*
X103956269Y-137510514D01*
X103956269Y-137510514D02*
X104003888Y-137415276D01*
X104003888Y-137415276D02*
X104099126Y-137320038D01*
X104099126Y-137320038D02*
X104241983Y-137272419D01*
X104241983Y-137272419D02*
X104337221Y-137272419D01*
X104337221Y-137272419D02*
X104480078Y-137320038D01*
X104480078Y-137320038D02*
X104527697Y-137367657D01*
X104861031Y-138653371D02*
X104908650Y-138605752D01*
X104908650Y-138605752D02*
X105003888Y-138462895D01*
X105003888Y-138462895D02*
X105051507Y-138367657D01*
X105051507Y-138367657D02*
X105099126Y-138224800D01*
X105099126Y-138224800D02*
X105146745Y-137986704D01*
X105146745Y-137986704D02*
X105146745Y-137796228D01*
X105146745Y-137796228D02*
X105099126Y-137558133D01*
X105099126Y-137558133D02*
X105051507Y-137415276D01*
X105051507Y-137415276D02*
X105003888Y-137320038D01*
X105003888Y-137320038D02*
X104908650Y-137177180D01*
X104908650Y-137177180D02*
X104861031Y-137129561D01*
X105622936Y-138272419D02*
X105622936Y-137272419D01*
X106099126Y-137605752D02*
X106099126Y-138272419D01*
X106099126Y-137700990D02*
X106146745Y-137653371D01*
X106146745Y-137653371D02*
X106241983Y-137605752D01*
X106241983Y-137605752D02*
X106384840Y-137605752D01*
X106384840Y-137605752D02*
X106480078Y-137653371D01*
X106480078Y-137653371D02*
X106527697Y-137748609D01*
X106527697Y-137748609D02*
X106527697Y-138272419D01*
X106861031Y-137605752D02*
X107241983Y-137605752D01*
X107003888Y-138272419D02*
X107003888Y-137415276D01*
X107003888Y-137415276D02*
X107051507Y-137320038D01*
X107051507Y-137320038D02*
X107146745Y-137272419D01*
X107146745Y-137272419D02*
X107241983Y-137272419D01*
X107575317Y-137605752D02*
X107575317Y-138272419D01*
X107575317Y-137700990D02*
X107622936Y-137653371D01*
X107622936Y-137653371D02*
X107718174Y-137605752D01*
X107718174Y-137605752D02*
X107861031Y-137605752D01*
X107861031Y-137605752D02*
X107956269Y-137653371D01*
X107956269Y-137653371D02*
X108003888Y-137748609D01*
X108003888Y-137748609D02*
X108003888Y-138272419D01*
X108622936Y-138272419D02*
X108527698Y-138224800D01*
X108527698Y-138224800D02*
X108480079Y-138177180D01*
X108480079Y-138177180D02*
X108432460Y-138081942D01*
X108432460Y-138081942D02*
X108432460Y-137796228D01*
X108432460Y-137796228D02*
X108480079Y-137700990D01*
X108480079Y-137700990D02*
X108527698Y-137653371D01*
X108527698Y-137653371D02*
X108622936Y-137605752D01*
X108622936Y-137605752D02*
X108765793Y-137605752D01*
X108765793Y-137605752D02*
X108861031Y-137653371D01*
X108861031Y-137653371D02*
X108908650Y-137700990D01*
X108908650Y-137700990D02*
X108956269Y-137796228D01*
X108956269Y-137796228D02*
X108956269Y-138081942D01*
X108956269Y-138081942D02*
X108908650Y-138177180D01*
X108908650Y-138177180D02*
X108861031Y-138224800D01*
X108861031Y-138224800D02*
X108765793Y-138272419D01*
X108765793Y-138272419D02*
X108622936Y-138272419D01*
X109384841Y-138272419D02*
X109384841Y-137605752D01*
X109384841Y-137796228D02*
X109432460Y-137700990D01*
X109432460Y-137700990D02*
X109480079Y-137653371D01*
X109480079Y-137653371D02*
X109575317Y-137605752D01*
X109575317Y-137605752D02*
X109670555Y-137605752D01*
X110003889Y-138272419D02*
X110003889Y-137605752D01*
X110003889Y-137700990D02*
X110051508Y-137653371D01*
X110051508Y-137653371D02*
X110146746Y-137605752D01*
X110146746Y-137605752D02*
X110289603Y-137605752D01*
X110289603Y-137605752D02*
X110384841Y-137653371D01*
X110384841Y-137653371D02*
X110432460Y-137748609D01*
X110432460Y-137748609D02*
X110432460Y-138272419D01*
X110432460Y-137748609D02*
X110480079Y-137653371D01*
X110480079Y-137653371D02*
X110575317Y-137605752D01*
X110575317Y-137605752D02*
X110718174Y-137605752D01*
X110718174Y-137605752D02*
X110813413Y-137653371D01*
X110813413Y-137653371D02*
X110861032Y-137748609D01*
X110861032Y-137748609D02*
X110861032Y-138272419D01*
X136714110Y-67550405D02*
X136618872Y-67502786D01*
X136618872Y-67502786D02*
X136476015Y-67502786D01*
X136476015Y-67502786D02*
X136333158Y-67550405D01*
X136333158Y-67550405D02*
X136237920Y-67645643D01*
X136237920Y-67645643D02*
X136190301Y-67740881D01*
X136190301Y-67740881D02*
X136142682Y-67931357D01*
X136142682Y-67931357D02*
X136142682Y-68074214D01*
X136142682Y-68074214D02*
X136190301Y-68264690D01*
X136190301Y-68264690D02*
X136237920Y-68359928D01*
X136237920Y-68359928D02*
X136333158Y-68455167D01*
X136333158Y-68455167D02*
X136476015Y-68502786D01*
X136476015Y-68502786D02*
X136571253Y-68502786D01*
X136571253Y-68502786D02*
X136714110Y-68455167D01*
X136714110Y-68455167D02*
X136761729Y-68407547D01*
X136761729Y-68407547D02*
X136761729Y-68074214D01*
X136761729Y-68074214D02*
X136571253Y-68074214D01*
X137190301Y-68502786D02*
X137190301Y-67502786D01*
X137190301Y-67502786D02*
X137761729Y-68502786D01*
X137761729Y-68502786D02*
X137761729Y-67502786D01*
X138237920Y-68502786D02*
X138237920Y-67502786D01*
X138237920Y-67502786D02*
X138476015Y-67502786D01*
X138476015Y-67502786D02*
X138618872Y-67550405D01*
X138618872Y-67550405D02*
X138714110Y-67645643D01*
X138714110Y-67645643D02*
X138761729Y-67740881D01*
X138761729Y-67740881D02*
X138809348Y-67931357D01*
X138809348Y-67931357D02*
X138809348Y-68074214D01*
X138809348Y-68074214D02*
X138761729Y-68264690D01*
X138761729Y-68264690D02*
X138714110Y-68359928D01*
X138714110Y-68359928D02*
X138618872Y-68455167D01*
X138618872Y-68455167D02*
X138476015Y-68502786D01*
X138476015Y-68502786D02*
X138237920Y-68502786D01*
X71376265Y-58244800D02*
X71519122Y-58292419D01*
X71519122Y-58292419D02*
X71757217Y-58292419D01*
X71757217Y-58292419D02*
X71852455Y-58244800D01*
X71852455Y-58244800D02*
X71900074Y-58197180D01*
X71900074Y-58197180D02*
X71947693Y-58101942D01*
X71947693Y-58101942D02*
X71947693Y-58006704D01*
X71947693Y-58006704D02*
X71900074Y-57911466D01*
X71900074Y-57911466D02*
X71852455Y-57863847D01*
X71852455Y-57863847D02*
X71757217Y-57816228D01*
X71757217Y-57816228D02*
X71566741Y-57768609D01*
X71566741Y-57768609D02*
X71471503Y-57720990D01*
X71471503Y-57720990D02*
X71423884Y-57673371D01*
X71423884Y-57673371D02*
X71376265Y-57578133D01*
X71376265Y-57578133D02*
X71376265Y-57482895D01*
X71376265Y-57482895D02*
X71423884Y-57387657D01*
X71423884Y-57387657D02*
X71471503Y-57340038D01*
X71471503Y-57340038D02*
X71566741Y-57292419D01*
X71566741Y-57292419D02*
X71804836Y-57292419D01*
X71804836Y-57292419D02*
X71947693Y-57340038D01*
X72376265Y-58292419D02*
X72376265Y-57292419D01*
X72376265Y-57292419D02*
X72614360Y-57292419D01*
X72614360Y-57292419D02*
X72757217Y-57340038D01*
X72757217Y-57340038D02*
X72852455Y-57435276D01*
X72852455Y-57435276D02*
X72900074Y-57530514D01*
X72900074Y-57530514D02*
X72947693Y-57720990D01*
X72947693Y-57720990D02*
X72947693Y-57863847D01*
X72947693Y-57863847D02*
X72900074Y-58054323D01*
X72900074Y-58054323D02*
X72852455Y-58149561D01*
X72852455Y-58149561D02*
X72757217Y-58244800D01*
X72757217Y-58244800D02*
X72614360Y-58292419D01*
X72614360Y-58292419D02*
X72376265Y-58292419D01*
X73328646Y-58006704D02*
X73804836Y-58006704D01*
X73233408Y-58292419D02*
X73566741Y-57292419D01*
X73566741Y-57292419D02*
X73900074Y-58292419D01*
X88457693Y-54800038D02*
X88362455Y-54752419D01*
X88362455Y-54752419D02*
X88219598Y-54752419D01*
X88219598Y-54752419D02*
X88076741Y-54800038D01*
X88076741Y-54800038D02*
X87981503Y-54895276D01*
X87981503Y-54895276D02*
X87933884Y-54990514D01*
X87933884Y-54990514D02*
X87886265Y-55180990D01*
X87886265Y-55180990D02*
X87886265Y-55323847D01*
X87886265Y-55323847D02*
X87933884Y-55514323D01*
X87933884Y-55514323D02*
X87981503Y-55609561D01*
X87981503Y-55609561D02*
X88076741Y-55704800D01*
X88076741Y-55704800D02*
X88219598Y-55752419D01*
X88219598Y-55752419D02*
X88314836Y-55752419D01*
X88314836Y-55752419D02*
X88457693Y-55704800D01*
X88457693Y-55704800D02*
X88505312Y-55657180D01*
X88505312Y-55657180D02*
X88505312Y-55323847D01*
X88505312Y-55323847D02*
X88314836Y-55323847D01*
X88933884Y-55752419D02*
X88933884Y-54752419D01*
X88933884Y-54752419D02*
X89505312Y-55752419D01*
X89505312Y-55752419D02*
X89505312Y-54752419D01*
X89981503Y-55752419D02*
X89981503Y-54752419D01*
X89981503Y-54752419D02*
X90219598Y-54752419D01*
X90219598Y-54752419D02*
X90362455Y-54800038D01*
X90362455Y-54800038D02*
X90457693Y-54895276D01*
X90457693Y-54895276D02*
X90505312Y-54990514D01*
X90505312Y-54990514D02*
X90552931Y-55180990D01*
X90552931Y-55180990D02*
X90552931Y-55323847D01*
X90552931Y-55323847D02*
X90505312Y-55514323D01*
X90505312Y-55514323D02*
X90457693Y-55609561D01*
X90457693Y-55609561D02*
X90362455Y-55704800D01*
X90362455Y-55704800D02*
X90219598Y-55752419D01*
X90219598Y-55752419D02*
X89981503Y-55752419D01*
X136717693Y-64960038D02*
X136622455Y-64912419D01*
X136622455Y-64912419D02*
X136479598Y-64912419D01*
X136479598Y-64912419D02*
X136336741Y-64960038D01*
X136336741Y-64960038D02*
X136241503Y-65055276D01*
X136241503Y-65055276D02*
X136193884Y-65150514D01*
X136193884Y-65150514D02*
X136146265Y-65340990D01*
X136146265Y-65340990D02*
X136146265Y-65483847D01*
X136146265Y-65483847D02*
X136193884Y-65674323D01*
X136193884Y-65674323D02*
X136241503Y-65769561D01*
X136241503Y-65769561D02*
X136336741Y-65864800D01*
X136336741Y-65864800D02*
X136479598Y-65912419D01*
X136479598Y-65912419D02*
X136574836Y-65912419D01*
X136574836Y-65912419D02*
X136717693Y-65864800D01*
X136717693Y-65864800D02*
X136765312Y-65817180D01*
X136765312Y-65817180D02*
X136765312Y-65483847D01*
X136765312Y-65483847D02*
X136574836Y-65483847D01*
X137193884Y-65912419D02*
X137193884Y-64912419D01*
X137193884Y-64912419D02*
X137765312Y-65912419D01*
X137765312Y-65912419D02*
X137765312Y-64912419D01*
X138241503Y-65912419D02*
X138241503Y-64912419D01*
X138241503Y-64912419D02*
X138479598Y-64912419D01*
X138479598Y-64912419D02*
X138622455Y-64960038D01*
X138622455Y-64960038D02*
X138717693Y-65055276D01*
X138717693Y-65055276D02*
X138765312Y-65150514D01*
X138765312Y-65150514D02*
X138812931Y-65340990D01*
X138812931Y-65340990D02*
X138812931Y-65483847D01*
X138812931Y-65483847D02*
X138765312Y-65674323D01*
X138765312Y-65674323D02*
X138717693Y-65769561D01*
X138717693Y-65769561D02*
X138622455Y-65864800D01*
X138622455Y-65864800D02*
X138479598Y-65912419D01*
X138479598Y-65912419D02*
X138241503Y-65912419D01*
X119683884Y-62102419D02*
X119683884Y-61102419D01*
X120160074Y-62102419D02*
X120160074Y-61102419D01*
X120160074Y-61102419D02*
X120731502Y-62102419D01*
X120731502Y-62102419D02*
X120731502Y-61102419D01*
X121064836Y-61102419D02*
X121636264Y-61102419D01*
X121350550Y-62102419D02*
X121350550Y-61102419D01*
X122302931Y-61578609D02*
X122445788Y-61626228D01*
X122445788Y-61626228D02*
X122493407Y-61673847D01*
X122493407Y-61673847D02*
X122541026Y-61769085D01*
X122541026Y-61769085D02*
X122541026Y-61911942D01*
X122541026Y-61911942D02*
X122493407Y-62007180D01*
X122493407Y-62007180D02*
X122445788Y-62054800D01*
X122445788Y-62054800D02*
X122350550Y-62102419D01*
X122350550Y-62102419D02*
X121969598Y-62102419D01*
X121969598Y-62102419D02*
X121969598Y-61102419D01*
X121969598Y-61102419D02*
X122302931Y-61102419D01*
X122302931Y-61102419D02*
X122398169Y-61150038D01*
X122398169Y-61150038D02*
X122445788Y-61197657D01*
X122445788Y-61197657D02*
X122493407Y-61292895D01*
X122493407Y-61292895D02*
X122493407Y-61388133D01*
X122493407Y-61388133D02*
X122445788Y-61483371D01*
X122445788Y-61483371D02*
X122398169Y-61530990D01*
X122398169Y-61530990D02*
X122302931Y-61578609D01*
X122302931Y-61578609D02*
X121969598Y-61578609D01*
X119545789Y-60824800D02*
X122631503Y-60824800D01*
X71281027Y-67452419D02*
X71614360Y-68452419D01*
X71614360Y-68452419D02*
X71947693Y-67452419D01*
X72852455Y-68357180D02*
X72804836Y-68404800D01*
X72804836Y-68404800D02*
X72661979Y-68452419D01*
X72661979Y-68452419D02*
X72566741Y-68452419D01*
X72566741Y-68452419D02*
X72423884Y-68404800D01*
X72423884Y-68404800D02*
X72328646Y-68309561D01*
X72328646Y-68309561D02*
X72281027Y-68214323D01*
X72281027Y-68214323D02*
X72233408Y-68023847D01*
X72233408Y-68023847D02*
X72233408Y-67880990D01*
X72233408Y-67880990D02*
X72281027Y-67690514D01*
X72281027Y-67690514D02*
X72328646Y-67595276D01*
X72328646Y-67595276D02*
X72423884Y-67500038D01*
X72423884Y-67500038D02*
X72566741Y-67452419D01*
X72566741Y-67452419D02*
X72661979Y-67452419D01*
X72661979Y-67452419D02*
X72804836Y-67500038D01*
X72804836Y-67500038D02*
X72852455Y-67547657D01*
X73852455Y-68357180D02*
X73804836Y-68404800D01*
X73804836Y-68404800D02*
X73661979Y-68452419D01*
X73661979Y-68452419D02*
X73566741Y-68452419D01*
X73566741Y-68452419D02*
X73423884Y-68404800D01*
X73423884Y-68404800D02*
X73328646Y-68309561D01*
X73328646Y-68309561D02*
X73281027Y-68214323D01*
X73281027Y-68214323D02*
X73233408Y-68023847D01*
X73233408Y-68023847D02*
X73233408Y-67880990D01*
X73233408Y-67880990D02*
X73281027Y-67690514D01*
X73281027Y-67690514D02*
X73328646Y-67595276D01*
X73328646Y-67595276D02*
X73423884Y-67500038D01*
X73423884Y-67500038D02*
X73566741Y-67452419D01*
X73566741Y-67452419D02*
X73661979Y-67452419D01*
X73661979Y-67452419D02*
X73804836Y-67500038D01*
X73804836Y-67500038D02*
X73852455Y-67547657D01*
X88507630Y-67499608D02*
X88412392Y-67451989D01*
X88412392Y-67451989D02*
X88269535Y-67451989D01*
X88269535Y-67451989D02*
X88126678Y-67499608D01*
X88126678Y-67499608D02*
X88031440Y-67594846D01*
X88031440Y-67594846D02*
X87983821Y-67690084D01*
X87983821Y-67690084D02*
X87936202Y-67880560D01*
X87936202Y-67880560D02*
X87936202Y-68023417D01*
X87936202Y-68023417D02*
X87983821Y-68213893D01*
X87983821Y-68213893D02*
X88031440Y-68309131D01*
X88031440Y-68309131D02*
X88126678Y-68404370D01*
X88126678Y-68404370D02*
X88269535Y-68451989D01*
X88269535Y-68451989D02*
X88364773Y-68451989D01*
X88364773Y-68451989D02*
X88507630Y-68404370D01*
X88507630Y-68404370D02*
X88555249Y-68356750D01*
X88555249Y-68356750D02*
X88555249Y-68023417D01*
X88555249Y-68023417D02*
X88364773Y-68023417D01*
X88983821Y-68451989D02*
X88983821Y-67451989D01*
X88983821Y-67451989D02*
X89555249Y-68451989D01*
X89555249Y-68451989D02*
X89555249Y-67451989D01*
X90031440Y-68451989D02*
X90031440Y-67451989D01*
X90031440Y-67451989D02*
X90269535Y-67451989D01*
X90269535Y-67451989D02*
X90412392Y-67499608D01*
X90412392Y-67499608D02*
X90507630Y-67594846D01*
X90507630Y-67594846D02*
X90555249Y-67690084D01*
X90555249Y-67690084D02*
X90602868Y-67880560D01*
X90602868Y-67880560D02*
X90602868Y-68023417D01*
X90602868Y-68023417D02*
X90555249Y-68213893D01*
X90555249Y-68213893D02*
X90507630Y-68309131D01*
X90507630Y-68309131D02*
X90412392Y-68404370D01*
X90412392Y-68404370D02*
X90269535Y-68451989D01*
X90269535Y-68451989D02*
X90031440Y-68451989D01*
X136717693Y-57340038D02*
X136622455Y-57292419D01*
X136622455Y-57292419D02*
X136479598Y-57292419D01*
X136479598Y-57292419D02*
X136336741Y-57340038D01*
X136336741Y-57340038D02*
X136241503Y-57435276D01*
X136241503Y-57435276D02*
X136193884Y-57530514D01*
X136193884Y-57530514D02*
X136146265Y-57720990D01*
X136146265Y-57720990D02*
X136146265Y-57863847D01*
X136146265Y-57863847D02*
X136193884Y-58054323D01*
X136193884Y-58054323D02*
X136241503Y-58149561D01*
X136241503Y-58149561D02*
X136336741Y-58244800D01*
X136336741Y-58244800D02*
X136479598Y-58292419D01*
X136479598Y-58292419D02*
X136574836Y-58292419D01*
X136574836Y-58292419D02*
X136717693Y-58244800D01*
X136717693Y-58244800D02*
X136765312Y-58197180D01*
X136765312Y-58197180D02*
X136765312Y-57863847D01*
X136765312Y-57863847D02*
X136574836Y-57863847D01*
X137193884Y-58292419D02*
X137193884Y-57292419D01*
X137193884Y-57292419D02*
X137765312Y-58292419D01*
X137765312Y-58292419D02*
X137765312Y-57292419D01*
X138241503Y-58292419D02*
X138241503Y-57292419D01*
X138241503Y-57292419D02*
X138479598Y-57292419D01*
X138479598Y-57292419D02*
X138622455Y-57340038D01*
X138622455Y-57340038D02*
X138717693Y-57435276D01*
X138717693Y-57435276D02*
X138765312Y-57530514D01*
X138765312Y-57530514D02*
X138812931Y-57720990D01*
X138812931Y-57720990D02*
X138812931Y-57863847D01*
X138812931Y-57863847D02*
X138765312Y-58054323D01*
X138765312Y-58054323D02*
X138717693Y-58149561D01*
X138717693Y-58149561D02*
X138622455Y-58244800D01*
X138622455Y-58244800D02*
X138479598Y-58292419D01*
X138479598Y-58292419D02*
X138241503Y-58292419D01*
X88457693Y-57340038D02*
X88362455Y-57292419D01*
X88362455Y-57292419D02*
X88219598Y-57292419D01*
X88219598Y-57292419D02*
X88076741Y-57340038D01*
X88076741Y-57340038D02*
X87981503Y-57435276D01*
X87981503Y-57435276D02*
X87933884Y-57530514D01*
X87933884Y-57530514D02*
X87886265Y-57720990D01*
X87886265Y-57720990D02*
X87886265Y-57863847D01*
X87886265Y-57863847D02*
X87933884Y-58054323D01*
X87933884Y-58054323D02*
X87981503Y-58149561D01*
X87981503Y-58149561D02*
X88076741Y-58244800D01*
X88076741Y-58244800D02*
X88219598Y-58292419D01*
X88219598Y-58292419D02*
X88314836Y-58292419D01*
X88314836Y-58292419D02*
X88457693Y-58244800D01*
X88457693Y-58244800D02*
X88505312Y-58197180D01*
X88505312Y-58197180D02*
X88505312Y-57863847D01*
X88505312Y-57863847D02*
X88314836Y-57863847D01*
X88933884Y-58292419D02*
X88933884Y-57292419D01*
X88933884Y-57292419D02*
X89505312Y-58292419D01*
X89505312Y-58292419D02*
X89505312Y-57292419D01*
X89981503Y-58292419D02*
X89981503Y-57292419D01*
X89981503Y-57292419D02*
X90219598Y-57292419D01*
X90219598Y-57292419D02*
X90362455Y-57340038D01*
X90362455Y-57340038D02*
X90457693Y-57435276D01*
X90457693Y-57435276D02*
X90505312Y-57530514D01*
X90505312Y-57530514D02*
X90552931Y-57720990D01*
X90552931Y-57720990D02*
X90552931Y-57863847D01*
X90552931Y-57863847D02*
X90505312Y-58054323D01*
X90505312Y-58054323D02*
X90457693Y-58149561D01*
X90457693Y-58149561D02*
X90362455Y-58244800D01*
X90362455Y-58244800D02*
X90219598Y-58292419D01*
X90219598Y-58292419D02*
X89981503Y-58292419D01*
X136717693Y-59880038D02*
X136622455Y-59832419D01*
X136622455Y-59832419D02*
X136479598Y-59832419D01*
X136479598Y-59832419D02*
X136336741Y-59880038D01*
X136336741Y-59880038D02*
X136241503Y-59975276D01*
X136241503Y-59975276D02*
X136193884Y-60070514D01*
X136193884Y-60070514D02*
X136146265Y-60260990D01*
X136146265Y-60260990D02*
X136146265Y-60403847D01*
X136146265Y-60403847D02*
X136193884Y-60594323D01*
X136193884Y-60594323D02*
X136241503Y-60689561D01*
X136241503Y-60689561D02*
X136336741Y-60784800D01*
X136336741Y-60784800D02*
X136479598Y-60832419D01*
X136479598Y-60832419D02*
X136574836Y-60832419D01*
X136574836Y-60832419D02*
X136717693Y-60784800D01*
X136717693Y-60784800D02*
X136765312Y-60737180D01*
X136765312Y-60737180D02*
X136765312Y-60403847D01*
X136765312Y-60403847D02*
X136574836Y-60403847D01*
X137193884Y-60832419D02*
X137193884Y-59832419D01*
X137193884Y-59832419D02*
X137765312Y-60832419D01*
X137765312Y-60832419D02*
X137765312Y-59832419D01*
X138241503Y-60832419D02*
X138241503Y-59832419D01*
X138241503Y-59832419D02*
X138479598Y-59832419D01*
X138479598Y-59832419D02*
X138622455Y-59880038D01*
X138622455Y-59880038D02*
X138717693Y-59975276D01*
X138717693Y-59975276D02*
X138765312Y-60070514D01*
X138765312Y-60070514D02*
X138812931Y-60260990D01*
X138812931Y-60260990D02*
X138812931Y-60403847D01*
X138812931Y-60403847D02*
X138765312Y-60594323D01*
X138765312Y-60594323D02*
X138717693Y-60689561D01*
X138717693Y-60689561D02*
X138622455Y-60784800D01*
X138622455Y-60784800D02*
X138479598Y-60832419D01*
X138479598Y-60832419D02*
X138241503Y-60832419D01*
X71376265Y-53164800D02*
X71519122Y-53212419D01*
X71519122Y-53212419D02*
X71757217Y-53212419D01*
X71757217Y-53212419D02*
X71852455Y-53164800D01*
X71852455Y-53164800D02*
X71900074Y-53117180D01*
X71900074Y-53117180D02*
X71947693Y-53021942D01*
X71947693Y-53021942D02*
X71947693Y-52926704D01*
X71947693Y-52926704D02*
X71900074Y-52831466D01*
X71900074Y-52831466D02*
X71852455Y-52783847D01*
X71852455Y-52783847D02*
X71757217Y-52736228D01*
X71757217Y-52736228D02*
X71566741Y-52688609D01*
X71566741Y-52688609D02*
X71471503Y-52640990D01*
X71471503Y-52640990D02*
X71423884Y-52593371D01*
X71423884Y-52593371D02*
X71376265Y-52498133D01*
X71376265Y-52498133D02*
X71376265Y-52402895D01*
X71376265Y-52402895D02*
X71423884Y-52307657D01*
X71423884Y-52307657D02*
X71471503Y-52260038D01*
X71471503Y-52260038D02*
X71566741Y-52212419D01*
X71566741Y-52212419D02*
X71804836Y-52212419D01*
X71804836Y-52212419D02*
X71947693Y-52260038D01*
X72566741Y-52736228D02*
X72566741Y-53212419D01*
X72233408Y-52212419D02*
X72566741Y-52736228D01*
X72566741Y-52736228D02*
X72900074Y-52212419D01*
X73233408Y-53212419D02*
X73233408Y-52212419D01*
X73233408Y-52212419D02*
X73804836Y-53212419D01*
X73804836Y-53212419D02*
X73804836Y-52212419D01*
X74852455Y-53117180D02*
X74804836Y-53164800D01*
X74804836Y-53164800D02*
X74661979Y-53212419D01*
X74661979Y-53212419D02*
X74566741Y-53212419D01*
X74566741Y-53212419D02*
X74423884Y-53164800D01*
X74423884Y-53164800D02*
X74328646Y-53069561D01*
X74328646Y-53069561D02*
X74281027Y-52974323D01*
X74281027Y-52974323D02*
X74233408Y-52783847D01*
X74233408Y-52783847D02*
X74233408Y-52640990D01*
X74233408Y-52640990D02*
X74281027Y-52450514D01*
X74281027Y-52450514D02*
X74328646Y-52355276D01*
X74328646Y-52355276D02*
X74423884Y-52260038D01*
X74423884Y-52260038D02*
X74566741Y-52212419D01*
X74566741Y-52212419D02*
X74661979Y-52212419D01*
X74661979Y-52212419D02*
X74804836Y-52260038D01*
X74804836Y-52260038D02*
X74852455Y-52307657D01*
X136717693Y-54800038D02*
X136622455Y-54752419D01*
X136622455Y-54752419D02*
X136479598Y-54752419D01*
X136479598Y-54752419D02*
X136336741Y-54800038D01*
X136336741Y-54800038D02*
X136241503Y-54895276D01*
X136241503Y-54895276D02*
X136193884Y-54990514D01*
X136193884Y-54990514D02*
X136146265Y-55180990D01*
X136146265Y-55180990D02*
X136146265Y-55323847D01*
X136146265Y-55323847D02*
X136193884Y-55514323D01*
X136193884Y-55514323D02*
X136241503Y-55609561D01*
X136241503Y-55609561D02*
X136336741Y-55704800D01*
X136336741Y-55704800D02*
X136479598Y-55752419D01*
X136479598Y-55752419D02*
X136574836Y-55752419D01*
X136574836Y-55752419D02*
X136717693Y-55704800D01*
X136717693Y-55704800D02*
X136765312Y-55657180D01*
X136765312Y-55657180D02*
X136765312Y-55323847D01*
X136765312Y-55323847D02*
X136574836Y-55323847D01*
X137193884Y-55752419D02*
X137193884Y-54752419D01*
X137193884Y-54752419D02*
X137765312Y-55752419D01*
X137765312Y-55752419D02*
X137765312Y-54752419D01*
X138241503Y-55752419D02*
X138241503Y-54752419D01*
X138241503Y-54752419D02*
X138479598Y-54752419D01*
X138479598Y-54752419D02*
X138622455Y-54800038D01*
X138622455Y-54800038D02*
X138717693Y-54895276D01*
X138717693Y-54895276D02*
X138765312Y-54990514D01*
X138765312Y-54990514D02*
X138812931Y-55180990D01*
X138812931Y-55180990D02*
X138812931Y-55323847D01*
X138812931Y-55323847D02*
X138765312Y-55514323D01*
X138765312Y-55514323D02*
X138717693Y-55609561D01*
X138717693Y-55609561D02*
X138622455Y-55704800D01*
X138622455Y-55704800D02*
X138479598Y-55752419D01*
X138479598Y-55752419D02*
X138241503Y-55752419D01*
X71376265Y-55704800D02*
X71519122Y-55752419D01*
X71519122Y-55752419D02*
X71757217Y-55752419D01*
X71757217Y-55752419D02*
X71852455Y-55704800D01*
X71852455Y-55704800D02*
X71900074Y-55657180D01*
X71900074Y-55657180D02*
X71947693Y-55561942D01*
X71947693Y-55561942D02*
X71947693Y-55466704D01*
X71947693Y-55466704D02*
X71900074Y-55371466D01*
X71900074Y-55371466D02*
X71852455Y-55323847D01*
X71852455Y-55323847D02*
X71757217Y-55276228D01*
X71757217Y-55276228D02*
X71566741Y-55228609D01*
X71566741Y-55228609D02*
X71471503Y-55180990D01*
X71471503Y-55180990D02*
X71423884Y-55133371D01*
X71423884Y-55133371D02*
X71376265Y-55038133D01*
X71376265Y-55038133D02*
X71376265Y-54942895D01*
X71376265Y-54942895D02*
X71423884Y-54847657D01*
X71423884Y-54847657D02*
X71471503Y-54800038D01*
X71471503Y-54800038D02*
X71566741Y-54752419D01*
X71566741Y-54752419D02*
X71804836Y-54752419D01*
X71804836Y-54752419D02*
X71947693Y-54800038D01*
X72947693Y-55657180D02*
X72900074Y-55704800D01*
X72900074Y-55704800D02*
X72757217Y-55752419D01*
X72757217Y-55752419D02*
X72661979Y-55752419D01*
X72661979Y-55752419D02*
X72519122Y-55704800D01*
X72519122Y-55704800D02*
X72423884Y-55609561D01*
X72423884Y-55609561D02*
X72376265Y-55514323D01*
X72376265Y-55514323D02*
X72328646Y-55323847D01*
X72328646Y-55323847D02*
X72328646Y-55180990D01*
X72328646Y-55180990D02*
X72376265Y-54990514D01*
X72376265Y-54990514D02*
X72423884Y-54895276D01*
X72423884Y-54895276D02*
X72519122Y-54800038D01*
X72519122Y-54800038D02*
X72661979Y-54752419D01*
X72661979Y-54752419D02*
X72757217Y-54752419D01*
X72757217Y-54752419D02*
X72900074Y-54800038D01*
X72900074Y-54800038D02*
X72947693Y-54847657D01*
X73852455Y-55752419D02*
X73376265Y-55752419D01*
X73376265Y-55752419D02*
X73376265Y-54752419D01*
X88457693Y-64960038D02*
X88362455Y-64912419D01*
X88362455Y-64912419D02*
X88219598Y-64912419D01*
X88219598Y-64912419D02*
X88076741Y-64960038D01*
X88076741Y-64960038D02*
X87981503Y-65055276D01*
X87981503Y-65055276D02*
X87933884Y-65150514D01*
X87933884Y-65150514D02*
X87886265Y-65340990D01*
X87886265Y-65340990D02*
X87886265Y-65483847D01*
X87886265Y-65483847D02*
X87933884Y-65674323D01*
X87933884Y-65674323D02*
X87981503Y-65769561D01*
X87981503Y-65769561D02*
X88076741Y-65864800D01*
X88076741Y-65864800D02*
X88219598Y-65912419D01*
X88219598Y-65912419D02*
X88314836Y-65912419D01*
X88314836Y-65912419D02*
X88457693Y-65864800D01*
X88457693Y-65864800D02*
X88505312Y-65817180D01*
X88505312Y-65817180D02*
X88505312Y-65483847D01*
X88505312Y-65483847D02*
X88314836Y-65483847D01*
X88933884Y-65912419D02*
X88933884Y-64912419D01*
X88933884Y-64912419D02*
X89505312Y-65912419D01*
X89505312Y-65912419D02*
X89505312Y-64912419D01*
X89981503Y-65912419D02*
X89981503Y-64912419D01*
X89981503Y-64912419D02*
X90219598Y-64912419D01*
X90219598Y-64912419D02*
X90362455Y-64960038D01*
X90362455Y-64960038D02*
X90457693Y-65055276D01*
X90457693Y-65055276D02*
X90505312Y-65150514D01*
X90505312Y-65150514D02*
X90552931Y-65340990D01*
X90552931Y-65340990D02*
X90552931Y-65483847D01*
X90552931Y-65483847D02*
X90505312Y-65674323D01*
X90505312Y-65674323D02*
X90457693Y-65769561D01*
X90457693Y-65769561D02*
X90362455Y-65864800D01*
X90362455Y-65864800D02*
X90219598Y-65912419D01*
X90219598Y-65912419D02*
X89981503Y-65912419D01*
X119541027Y-66182419D02*
X119874360Y-67182419D01*
X119874360Y-67182419D02*
X120207693Y-66182419D01*
X121112455Y-67087180D02*
X121064836Y-67134800D01*
X121064836Y-67134800D02*
X120921979Y-67182419D01*
X120921979Y-67182419D02*
X120826741Y-67182419D01*
X120826741Y-67182419D02*
X120683884Y-67134800D01*
X120683884Y-67134800D02*
X120588646Y-67039561D01*
X120588646Y-67039561D02*
X120541027Y-66944323D01*
X120541027Y-66944323D02*
X120493408Y-66753847D01*
X120493408Y-66753847D02*
X120493408Y-66610990D01*
X120493408Y-66610990D02*
X120541027Y-66420514D01*
X120541027Y-66420514D02*
X120588646Y-66325276D01*
X120588646Y-66325276D02*
X120683884Y-66230038D01*
X120683884Y-66230038D02*
X120826741Y-66182419D01*
X120826741Y-66182419D02*
X120921979Y-66182419D01*
X120921979Y-66182419D02*
X121064836Y-66230038D01*
X121064836Y-66230038D02*
X121112455Y-66277657D01*
X122112455Y-67087180D02*
X122064836Y-67134800D01*
X122064836Y-67134800D02*
X121921979Y-67182419D01*
X121921979Y-67182419D02*
X121826741Y-67182419D01*
X121826741Y-67182419D02*
X121683884Y-67134800D01*
X121683884Y-67134800D02*
X121588646Y-67039561D01*
X121588646Y-67039561D02*
X121541027Y-66944323D01*
X121541027Y-66944323D02*
X121493408Y-66753847D01*
X121493408Y-66753847D02*
X121493408Y-66610990D01*
X121493408Y-66610990D02*
X121541027Y-66420514D01*
X121541027Y-66420514D02*
X121588646Y-66325276D01*
X121588646Y-66325276D02*
X121683884Y-66230038D01*
X121683884Y-66230038D02*
X121826741Y-66182419D01*
X121826741Y-66182419D02*
X121921979Y-66182419D01*
X121921979Y-66182419D02*
X122064836Y-66230038D01*
X122064836Y-66230038D02*
X122112455Y-66277657D01*
X71376265Y-63324800D02*
X71519122Y-63372419D01*
X71519122Y-63372419D02*
X71757217Y-63372419D01*
X71757217Y-63372419D02*
X71852455Y-63324800D01*
X71852455Y-63324800D02*
X71900074Y-63277180D01*
X71900074Y-63277180D02*
X71947693Y-63181942D01*
X71947693Y-63181942D02*
X71947693Y-63086704D01*
X71947693Y-63086704D02*
X71900074Y-62991466D01*
X71900074Y-62991466D02*
X71852455Y-62943847D01*
X71852455Y-62943847D02*
X71757217Y-62896228D01*
X71757217Y-62896228D02*
X71566741Y-62848609D01*
X71566741Y-62848609D02*
X71471503Y-62800990D01*
X71471503Y-62800990D02*
X71423884Y-62753371D01*
X71423884Y-62753371D02*
X71376265Y-62658133D01*
X71376265Y-62658133D02*
X71376265Y-62562895D01*
X71376265Y-62562895D02*
X71423884Y-62467657D01*
X71423884Y-62467657D02*
X71471503Y-62420038D01*
X71471503Y-62420038D02*
X71566741Y-62372419D01*
X71566741Y-62372419D02*
X71804836Y-62372419D01*
X71804836Y-62372419D02*
X71947693Y-62420038D01*
X72376265Y-63372419D02*
X72376265Y-62372419D01*
X72376265Y-62372419D02*
X72614360Y-62372419D01*
X72614360Y-62372419D02*
X72757217Y-62420038D01*
X72757217Y-62420038D02*
X72852455Y-62515276D01*
X72852455Y-62515276D02*
X72900074Y-62610514D01*
X72900074Y-62610514D02*
X72947693Y-62800990D01*
X72947693Y-62800990D02*
X72947693Y-62943847D01*
X72947693Y-62943847D02*
X72900074Y-63134323D01*
X72900074Y-63134323D02*
X72852455Y-63229561D01*
X72852455Y-63229561D02*
X72757217Y-63324800D01*
X72757217Y-63324800D02*
X72614360Y-63372419D01*
X72614360Y-63372419D02*
X72376265Y-63372419D01*
X73709598Y-62848609D02*
X73852455Y-62896228D01*
X73852455Y-62896228D02*
X73900074Y-62943847D01*
X73900074Y-62943847D02*
X73947693Y-63039085D01*
X73947693Y-63039085D02*
X73947693Y-63181942D01*
X73947693Y-63181942D02*
X73900074Y-63277180D01*
X73900074Y-63277180D02*
X73852455Y-63324800D01*
X73852455Y-63324800D02*
X73757217Y-63372419D01*
X73757217Y-63372419D02*
X73376265Y-63372419D01*
X73376265Y-63372419D02*
X73376265Y-62372419D01*
X73376265Y-62372419D02*
X73709598Y-62372419D01*
X73709598Y-62372419D02*
X73804836Y-62420038D01*
X73804836Y-62420038D02*
X73852455Y-62467657D01*
X73852455Y-62467657D02*
X73900074Y-62562895D01*
X73900074Y-62562895D02*
X73900074Y-62658133D01*
X73900074Y-62658133D02*
X73852455Y-62753371D01*
X73852455Y-62753371D02*
X73804836Y-62800990D01*
X73804836Y-62800990D02*
X73709598Y-62848609D01*
X73709598Y-62848609D02*
X73376265Y-62848609D01*
X71285789Y-62094800D02*
X74038170Y-62094800D01*
X136717693Y-62420038D02*
X136622455Y-62372419D01*
X136622455Y-62372419D02*
X136479598Y-62372419D01*
X136479598Y-62372419D02*
X136336741Y-62420038D01*
X136336741Y-62420038D02*
X136241503Y-62515276D01*
X136241503Y-62515276D02*
X136193884Y-62610514D01*
X136193884Y-62610514D02*
X136146265Y-62800990D01*
X136146265Y-62800990D02*
X136146265Y-62943847D01*
X136146265Y-62943847D02*
X136193884Y-63134323D01*
X136193884Y-63134323D02*
X136241503Y-63229561D01*
X136241503Y-63229561D02*
X136336741Y-63324800D01*
X136336741Y-63324800D02*
X136479598Y-63372419D01*
X136479598Y-63372419D02*
X136574836Y-63372419D01*
X136574836Y-63372419D02*
X136717693Y-63324800D01*
X136717693Y-63324800D02*
X136765312Y-63277180D01*
X136765312Y-63277180D02*
X136765312Y-62943847D01*
X136765312Y-62943847D02*
X136574836Y-62943847D01*
X137193884Y-63372419D02*
X137193884Y-62372419D01*
X137193884Y-62372419D02*
X137765312Y-63372419D01*
X137765312Y-63372419D02*
X137765312Y-62372419D01*
X138241503Y-63372419D02*
X138241503Y-62372419D01*
X138241503Y-62372419D02*
X138479598Y-62372419D01*
X138479598Y-62372419D02*
X138622455Y-62420038D01*
X138622455Y-62420038D02*
X138717693Y-62515276D01*
X138717693Y-62515276D02*
X138765312Y-62610514D01*
X138765312Y-62610514D02*
X138812931Y-62800990D01*
X138812931Y-62800990D02*
X138812931Y-62943847D01*
X138812931Y-62943847D02*
X138765312Y-63134323D01*
X138765312Y-63134323D02*
X138717693Y-63229561D01*
X138717693Y-63229561D02*
X138622455Y-63324800D01*
X138622455Y-63324800D02*
X138479598Y-63372419D01*
X138479598Y-63372419D02*
X138241503Y-63372419D01*
X119636265Y-64594800D02*
X119779122Y-64642419D01*
X119779122Y-64642419D02*
X120017217Y-64642419D01*
X120017217Y-64642419D02*
X120112455Y-64594800D01*
X120112455Y-64594800D02*
X120160074Y-64547180D01*
X120160074Y-64547180D02*
X120207693Y-64451942D01*
X120207693Y-64451942D02*
X120207693Y-64356704D01*
X120207693Y-64356704D02*
X120160074Y-64261466D01*
X120160074Y-64261466D02*
X120112455Y-64213847D01*
X120112455Y-64213847D02*
X120017217Y-64166228D01*
X120017217Y-64166228D02*
X119826741Y-64118609D01*
X119826741Y-64118609D02*
X119731503Y-64070990D01*
X119731503Y-64070990D02*
X119683884Y-64023371D01*
X119683884Y-64023371D02*
X119636265Y-63928133D01*
X119636265Y-63928133D02*
X119636265Y-63832895D01*
X119636265Y-63832895D02*
X119683884Y-63737657D01*
X119683884Y-63737657D02*
X119731503Y-63690038D01*
X119731503Y-63690038D02*
X119826741Y-63642419D01*
X119826741Y-63642419D02*
X120064836Y-63642419D01*
X120064836Y-63642419D02*
X120207693Y-63690038D01*
X120636265Y-64642419D02*
X120636265Y-63642419D01*
X120636265Y-63642419D02*
X120874360Y-63642419D01*
X120874360Y-63642419D02*
X121017217Y-63690038D01*
X121017217Y-63690038D02*
X121112455Y-63785276D01*
X121112455Y-63785276D02*
X121160074Y-63880514D01*
X121160074Y-63880514D02*
X121207693Y-64070990D01*
X121207693Y-64070990D02*
X121207693Y-64213847D01*
X121207693Y-64213847D02*
X121160074Y-64404323D01*
X121160074Y-64404323D02*
X121112455Y-64499561D01*
X121112455Y-64499561D02*
X121017217Y-64594800D01*
X121017217Y-64594800D02*
X120874360Y-64642419D01*
X120874360Y-64642419D02*
X120636265Y-64642419D01*
X121969598Y-64118609D02*
X122112455Y-64166228D01*
X122112455Y-64166228D02*
X122160074Y-64213847D01*
X122160074Y-64213847D02*
X122207693Y-64309085D01*
X122207693Y-64309085D02*
X122207693Y-64451942D01*
X122207693Y-64451942D02*
X122160074Y-64547180D01*
X122160074Y-64547180D02*
X122112455Y-64594800D01*
X122112455Y-64594800D02*
X122017217Y-64642419D01*
X122017217Y-64642419D02*
X121636265Y-64642419D01*
X121636265Y-64642419D02*
X121636265Y-63642419D01*
X121636265Y-63642419D02*
X121969598Y-63642419D01*
X121969598Y-63642419D02*
X122064836Y-63690038D01*
X122064836Y-63690038D02*
X122112455Y-63737657D01*
X122112455Y-63737657D02*
X122160074Y-63832895D01*
X122160074Y-63832895D02*
X122160074Y-63928133D01*
X122160074Y-63928133D02*
X122112455Y-64023371D01*
X122112455Y-64023371D02*
X122064836Y-64070990D01*
X122064836Y-64070990D02*
X121969598Y-64118609D01*
X121969598Y-64118609D02*
X121636265Y-64118609D01*
X119545789Y-63364800D02*
X122298170Y-63364800D01*
X136717693Y-52260038D02*
X136622455Y-52212419D01*
X136622455Y-52212419D02*
X136479598Y-52212419D01*
X136479598Y-52212419D02*
X136336741Y-52260038D01*
X136336741Y-52260038D02*
X136241503Y-52355276D01*
X136241503Y-52355276D02*
X136193884Y-52450514D01*
X136193884Y-52450514D02*
X136146265Y-52640990D01*
X136146265Y-52640990D02*
X136146265Y-52783847D01*
X136146265Y-52783847D02*
X136193884Y-52974323D01*
X136193884Y-52974323D02*
X136241503Y-53069561D01*
X136241503Y-53069561D02*
X136336741Y-53164800D01*
X136336741Y-53164800D02*
X136479598Y-53212419D01*
X136479598Y-53212419D02*
X136574836Y-53212419D01*
X136574836Y-53212419D02*
X136717693Y-53164800D01*
X136717693Y-53164800D02*
X136765312Y-53117180D01*
X136765312Y-53117180D02*
X136765312Y-52783847D01*
X136765312Y-52783847D02*
X136574836Y-52783847D01*
X137193884Y-53212419D02*
X137193884Y-52212419D01*
X137193884Y-52212419D02*
X137765312Y-53212419D01*
X137765312Y-53212419D02*
X137765312Y-52212419D01*
X138241503Y-53212419D02*
X138241503Y-52212419D01*
X138241503Y-52212419D02*
X138479598Y-52212419D01*
X138479598Y-52212419D02*
X138622455Y-52260038D01*
X138622455Y-52260038D02*
X138717693Y-52355276D01*
X138717693Y-52355276D02*
X138765312Y-52450514D01*
X138765312Y-52450514D02*
X138812931Y-52640990D01*
X138812931Y-52640990D02*
X138812931Y-52783847D01*
X138812931Y-52783847D02*
X138765312Y-52974323D01*
X138765312Y-52974323D02*
X138717693Y-53069561D01*
X138717693Y-53069561D02*
X138622455Y-53164800D01*
X138622455Y-53164800D02*
X138479598Y-53212419D01*
X138479598Y-53212419D02*
X138241503Y-53212419D01*
X88457693Y-62420038D02*
X88362455Y-62372419D01*
X88362455Y-62372419D02*
X88219598Y-62372419D01*
X88219598Y-62372419D02*
X88076741Y-62420038D01*
X88076741Y-62420038D02*
X87981503Y-62515276D01*
X87981503Y-62515276D02*
X87933884Y-62610514D01*
X87933884Y-62610514D02*
X87886265Y-62800990D01*
X87886265Y-62800990D02*
X87886265Y-62943847D01*
X87886265Y-62943847D02*
X87933884Y-63134323D01*
X87933884Y-63134323D02*
X87981503Y-63229561D01*
X87981503Y-63229561D02*
X88076741Y-63324800D01*
X88076741Y-63324800D02*
X88219598Y-63372419D01*
X88219598Y-63372419D02*
X88314836Y-63372419D01*
X88314836Y-63372419D02*
X88457693Y-63324800D01*
X88457693Y-63324800D02*
X88505312Y-63277180D01*
X88505312Y-63277180D02*
X88505312Y-62943847D01*
X88505312Y-62943847D02*
X88314836Y-62943847D01*
X88933884Y-63372419D02*
X88933884Y-62372419D01*
X88933884Y-62372419D02*
X89505312Y-63372419D01*
X89505312Y-63372419D02*
X89505312Y-62372419D01*
X89981503Y-63372419D02*
X89981503Y-62372419D01*
X89981503Y-62372419D02*
X90219598Y-62372419D01*
X90219598Y-62372419D02*
X90362455Y-62420038D01*
X90362455Y-62420038D02*
X90457693Y-62515276D01*
X90457693Y-62515276D02*
X90505312Y-62610514D01*
X90505312Y-62610514D02*
X90552931Y-62800990D01*
X90552931Y-62800990D02*
X90552931Y-62943847D01*
X90552931Y-62943847D02*
X90505312Y-63134323D01*
X90505312Y-63134323D02*
X90457693Y-63229561D01*
X90457693Y-63229561D02*
X90362455Y-63324800D01*
X90362455Y-63324800D02*
X90219598Y-63372419D01*
X90219598Y-63372419D02*
X89981503Y-63372419D01*
X88457693Y-59880038D02*
X88362455Y-59832419D01*
X88362455Y-59832419D02*
X88219598Y-59832419D01*
X88219598Y-59832419D02*
X88076741Y-59880038D01*
X88076741Y-59880038D02*
X87981503Y-59975276D01*
X87981503Y-59975276D02*
X87933884Y-60070514D01*
X87933884Y-60070514D02*
X87886265Y-60260990D01*
X87886265Y-60260990D02*
X87886265Y-60403847D01*
X87886265Y-60403847D02*
X87933884Y-60594323D01*
X87933884Y-60594323D02*
X87981503Y-60689561D01*
X87981503Y-60689561D02*
X88076741Y-60784800D01*
X88076741Y-60784800D02*
X88219598Y-60832419D01*
X88219598Y-60832419D02*
X88314836Y-60832419D01*
X88314836Y-60832419D02*
X88457693Y-60784800D01*
X88457693Y-60784800D02*
X88505312Y-60737180D01*
X88505312Y-60737180D02*
X88505312Y-60403847D01*
X88505312Y-60403847D02*
X88314836Y-60403847D01*
X88933884Y-60832419D02*
X88933884Y-59832419D01*
X88933884Y-59832419D02*
X89505312Y-60832419D01*
X89505312Y-60832419D02*
X89505312Y-59832419D01*
X89981503Y-60832419D02*
X89981503Y-59832419D01*
X89981503Y-59832419D02*
X90219598Y-59832419D01*
X90219598Y-59832419D02*
X90362455Y-59880038D01*
X90362455Y-59880038D02*
X90457693Y-59975276D01*
X90457693Y-59975276D02*
X90505312Y-60070514D01*
X90505312Y-60070514D02*
X90552931Y-60260990D01*
X90552931Y-60260990D02*
X90552931Y-60403847D01*
X90552931Y-60403847D02*
X90505312Y-60594323D01*
X90505312Y-60594323D02*
X90457693Y-60689561D01*
X90457693Y-60689561D02*
X90362455Y-60784800D01*
X90362455Y-60784800D02*
X90219598Y-60832419D01*
X90219598Y-60832419D02*
X89981503Y-60832419D01*
X119636265Y-59514800D02*
X119779122Y-59562419D01*
X119779122Y-59562419D02*
X120017217Y-59562419D01*
X120017217Y-59562419D02*
X120112455Y-59514800D01*
X120112455Y-59514800D02*
X120160074Y-59467180D01*
X120160074Y-59467180D02*
X120207693Y-59371942D01*
X120207693Y-59371942D02*
X120207693Y-59276704D01*
X120207693Y-59276704D02*
X120160074Y-59181466D01*
X120160074Y-59181466D02*
X120112455Y-59133847D01*
X120112455Y-59133847D02*
X120017217Y-59086228D01*
X120017217Y-59086228D02*
X119826741Y-59038609D01*
X119826741Y-59038609D02*
X119731503Y-58990990D01*
X119731503Y-58990990D02*
X119683884Y-58943371D01*
X119683884Y-58943371D02*
X119636265Y-58848133D01*
X119636265Y-58848133D02*
X119636265Y-58752895D01*
X119636265Y-58752895D02*
X119683884Y-58657657D01*
X119683884Y-58657657D02*
X119731503Y-58610038D01*
X119731503Y-58610038D02*
X119826741Y-58562419D01*
X119826741Y-58562419D02*
X120064836Y-58562419D01*
X120064836Y-58562419D02*
X120207693Y-58610038D01*
X120636265Y-59562419D02*
X120636265Y-58562419D01*
X120636265Y-58562419D02*
X120874360Y-58562419D01*
X120874360Y-58562419D02*
X121017217Y-58610038D01*
X121017217Y-58610038D02*
X121112455Y-58705276D01*
X121112455Y-58705276D02*
X121160074Y-58800514D01*
X121160074Y-58800514D02*
X121207693Y-58990990D01*
X121207693Y-58990990D02*
X121207693Y-59133847D01*
X121207693Y-59133847D02*
X121160074Y-59324323D01*
X121160074Y-59324323D02*
X121112455Y-59419561D01*
X121112455Y-59419561D02*
X121017217Y-59514800D01*
X121017217Y-59514800D02*
X120874360Y-59562419D01*
X120874360Y-59562419D02*
X120636265Y-59562419D01*
X121588646Y-59276704D02*
X122064836Y-59276704D01*
X121493408Y-59562419D02*
X121826741Y-58562419D01*
X121826741Y-58562419D02*
X122160074Y-59562419D01*
X88457693Y-52260038D02*
X88362455Y-52212419D01*
X88362455Y-52212419D02*
X88219598Y-52212419D01*
X88219598Y-52212419D02*
X88076741Y-52260038D01*
X88076741Y-52260038D02*
X87981503Y-52355276D01*
X87981503Y-52355276D02*
X87933884Y-52450514D01*
X87933884Y-52450514D02*
X87886265Y-52640990D01*
X87886265Y-52640990D02*
X87886265Y-52783847D01*
X87886265Y-52783847D02*
X87933884Y-52974323D01*
X87933884Y-52974323D02*
X87981503Y-53069561D01*
X87981503Y-53069561D02*
X88076741Y-53164800D01*
X88076741Y-53164800D02*
X88219598Y-53212419D01*
X88219598Y-53212419D02*
X88314836Y-53212419D01*
X88314836Y-53212419D02*
X88457693Y-53164800D01*
X88457693Y-53164800D02*
X88505312Y-53117180D01*
X88505312Y-53117180D02*
X88505312Y-52783847D01*
X88505312Y-52783847D02*
X88314836Y-52783847D01*
X88933884Y-53212419D02*
X88933884Y-52212419D01*
X88933884Y-52212419D02*
X89505312Y-53212419D01*
X89505312Y-53212419D02*
X89505312Y-52212419D01*
X89981503Y-53212419D02*
X89981503Y-52212419D01*
X89981503Y-52212419D02*
X90219598Y-52212419D01*
X90219598Y-52212419D02*
X90362455Y-52260038D01*
X90362455Y-52260038D02*
X90457693Y-52355276D01*
X90457693Y-52355276D02*
X90505312Y-52450514D01*
X90505312Y-52450514D02*
X90552931Y-52640990D01*
X90552931Y-52640990D02*
X90552931Y-52783847D01*
X90552931Y-52783847D02*
X90505312Y-52974323D01*
X90505312Y-52974323D02*
X90457693Y-53069561D01*
X90457693Y-53069561D02*
X90362455Y-53164800D01*
X90362455Y-53164800D02*
X90219598Y-53212419D01*
X90219598Y-53212419D02*
X89981503Y-53212419D01*
X119636265Y-54434800D02*
X119779122Y-54482419D01*
X119779122Y-54482419D02*
X120017217Y-54482419D01*
X120017217Y-54482419D02*
X120112455Y-54434800D01*
X120112455Y-54434800D02*
X120160074Y-54387180D01*
X120160074Y-54387180D02*
X120207693Y-54291942D01*
X120207693Y-54291942D02*
X120207693Y-54196704D01*
X120207693Y-54196704D02*
X120160074Y-54101466D01*
X120160074Y-54101466D02*
X120112455Y-54053847D01*
X120112455Y-54053847D02*
X120017217Y-54006228D01*
X120017217Y-54006228D02*
X119826741Y-53958609D01*
X119826741Y-53958609D02*
X119731503Y-53910990D01*
X119731503Y-53910990D02*
X119683884Y-53863371D01*
X119683884Y-53863371D02*
X119636265Y-53768133D01*
X119636265Y-53768133D02*
X119636265Y-53672895D01*
X119636265Y-53672895D02*
X119683884Y-53577657D01*
X119683884Y-53577657D02*
X119731503Y-53530038D01*
X119731503Y-53530038D02*
X119826741Y-53482419D01*
X119826741Y-53482419D02*
X120064836Y-53482419D01*
X120064836Y-53482419D02*
X120207693Y-53530038D01*
X120826741Y-54006228D02*
X120826741Y-54482419D01*
X120493408Y-53482419D02*
X120826741Y-54006228D01*
X120826741Y-54006228D02*
X121160074Y-53482419D01*
X121493408Y-54482419D02*
X121493408Y-53482419D01*
X121493408Y-53482419D02*
X122064836Y-54482419D01*
X122064836Y-54482419D02*
X122064836Y-53482419D01*
X123112455Y-54387180D02*
X123064836Y-54434800D01*
X123064836Y-54434800D02*
X122921979Y-54482419D01*
X122921979Y-54482419D02*
X122826741Y-54482419D01*
X122826741Y-54482419D02*
X122683884Y-54434800D01*
X122683884Y-54434800D02*
X122588646Y-54339561D01*
X122588646Y-54339561D02*
X122541027Y-54244323D01*
X122541027Y-54244323D02*
X122493408Y-54053847D01*
X122493408Y-54053847D02*
X122493408Y-53910990D01*
X122493408Y-53910990D02*
X122541027Y-53720514D01*
X122541027Y-53720514D02*
X122588646Y-53625276D01*
X122588646Y-53625276D02*
X122683884Y-53530038D01*
X122683884Y-53530038D02*
X122826741Y-53482419D01*
X122826741Y-53482419D02*
X122921979Y-53482419D01*
X122921979Y-53482419D02*
X123064836Y-53530038D01*
X123064836Y-53530038D02*
X123112455Y-53577657D01*
X88457693Y-49720038D02*
X88362455Y-49672419D01*
X88362455Y-49672419D02*
X88219598Y-49672419D01*
X88219598Y-49672419D02*
X88076741Y-49720038D01*
X88076741Y-49720038D02*
X87981503Y-49815276D01*
X87981503Y-49815276D02*
X87933884Y-49910514D01*
X87933884Y-49910514D02*
X87886265Y-50100990D01*
X87886265Y-50100990D02*
X87886265Y-50243847D01*
X87886265Y-50243847D02*
X87933884Y-50434323D01*
X87933884Y-50434323D02*
X87981503Y-50529561D01*
X87981503Y-50529561D02*
X88076741Y-50624800D01*
X88076741Y-50624800D02*
X88219598Y-50672419D01*
X88219598Y-50672419D02*
X88314836Y-50672419D01*
X88314836Y-50672419D02*
X88457693Y-50624800D01*
X88457693Y-50624800D02*
X88505312Y-50577180D01*
X88505312Y-50577180D02*
X88505312Y-50243847D01*
X88505312Y-50243847D02*
X88314836Y-50243847D01*
X88933884Y-50672419D02*
X88933884Y-49672419D01*
X88933884Y-49672419D02*
X89505312Y-50672419D01*
X89505312Y-50672419D02*
X89505312Y-49672419D01*
X89981503Y-50672419D02*
X89981503Y-49672419D01*
X89981503Y-49672419D02*
X90219598Y-49672419D01*
X90219598Y-49672419D02*
X90362455Y-49720038D01*
X90362455Y-49720038D02*
X90457693Y-49815276D01*
X90457693Y-49815276D02*
X90505312Y-49910514D01*
X90505312Y-49910514D02*
X90552931Y-50100990D01*
X90552931Y-50100990D02*
X90552931Y-50243847D01*
X90552931Y-50243847D02*
X90505312Y-50434323D01*
X90505312Y-50434323D02*
X90457693Y-50529561D01*
X90457693Y-50529561D02*
X90362455Y-50624800D01*
X90362455Y-50624800D02*
X90219598Y-50672419D01*
X90219598Y-50672419D02*
X89981503Y-50672419D01*
X71281027Y-64912419D02*
X71614360Y-65912419D01*
X71614360Y-65912419D02*
X71947693Y-64912419D01*
X72852455Y-65817180D02*
X72804836Y-65864800D01*
X72804836Y-65864800D02*
X72661979Y-65912419D01*
X72661979Y-65912419D02*
X72566741Y-65912419D01*
X72566741Y-65912419D02*
X72423884Y-65864800D01*
X72423884Y-65864800D02*
X72328646Y-65769561D01*
X72328646Y-65769561D02*
X72281027Y-65674323D01*
X72281027Y-65674323D02*
X72233408Y-65483847D01*
X72233408Y-65483847D02*
X72233408Y-65340990D01*
X72233408Y-65340990D02*
X72281027Y-65150514D01*
X72281027Y-65150514D02*
X72328646Y-65055276D01*
X72328646Y-65055276D02*
X72423884Y-64960038D01*
X72423884Y-64960038D02*
X72566741Y-64912419D01*
X72566741Y-64912419D02*
X72661979Y-64912419D01*
X72661979Y-64912419D02*
X72804836Y-64960038D01*
X72804836Y-64960038D02*
X72852455Y-65007657D01*
X73852455Y-65817180D02*
X73804836Y-65864800D01*
X73804836Y-65864800D02*
X73661979Y-65912419D01*
X73661979Y-65912419D02*
X73566741Y-65912419D01*
X73566741Y-65912419D02*
X73423884Y-65864800D01*
X73423884Y-65864800D02*
X73328646Y-65769561D01*
X73328646Y-65769561D02*
X73281027Y-65674323D01*
X73281027Y-65674323D02*
X73233408Y-65483847D01*
X73233408Y-65483847D02*
X73233408Y-65340990D01*
X73233408Y-65340990D02*
X73281027Y-65150514D01*
X73281027Y-65150514D02*
X73328646Y-65055276D01*
X73328646Y-65055276D02*
X73423884Y-64960038D01*
X73423884Y-64960038D02*
X73566741Y-64912419D01*
X73566741Y-64912419D02*
X73661979Y-64912419D01*
X73661979Y-64912419D02*
X73804836Y-64960038D01*
X73804836Y-64960038D02*
X73852455Y-65007657D01*
X119541027Y-68722419D02*
X119874360Y-69722419D01*
X119874360Y-69722419D02*
X120207693Y-68722419D01*
X121112455Y-69627180D02*
X121064836Y-69674800D01*
X121064836Y-69674800D02*
X120921979Y-69722419D01*
X120921979Y-69722419D02*
X120826741Y-69722419D01*
X120826741Y-69722419D02*
X120683884Y-69674800D01*
X120683884Y-69674800D02*
X120588646Y-69579561D01*
X120588646Y-69579561D02*
X120541027Y-69484323D01*
X120541027Y-69484323D02*
X120493408Y-69293847D01*
X120493408Y-69293847D02*
X120493408Y-69150990D01*
X120493408Y-69150990D02*
X120541027Y-68960514D01*
X120541027Y-68960514D02*
X120588646Y-68865276D01*
X120588646Y-68865276D02*
X120683884Y-68770038D01*
X120683884Y-68770038D02*
X120826741Y-68722419D01*
X120826741Y-68722419D02*
X120921979Y-68722419D01*
X120921979Y-68722419D02*
X121064836Y-68770038D01*
X121064836Y-68770038D02*
X121112455Y-68817657D01*
X122112455Y-69627180D02*
X122064836Y-69674800D01*
X122064836Y-69674800D02*
X121921979Y-69722419D01*
X121921979Y-69722419D02*
X121826741Y-69722419D01*
X121826741Y-69722419D02*
X121683884Y-69674800D01*
X121683884Y-69674800D02*
X121588646Y-69579561D01*
X121588646Y-69579561D02*
X121541027Y-69484323D01*
X121541027Y-69484323D02*
X121493408Y-69293847D01*
X121493408Y-69293847D02*
X121493408Y-69150990D01*
X121493408Y-69150990D02*
X121541027Y-68960514D01*
X121541027Y-68960514D02*
X121588646Y-68865276D01*
X121588646Y-68865276D02*
X121683884Y-68770038D01*
X121683884Y-68770038D02*
X121826741Y-68722419D01*
X121826741Y-68722419D02*
X121921979Y-68722419D01*
X121921979Y-68722419D02*
X122064836Y-68770038D01*
X122064836Y-68770038D02*
X122112455Y-68817657D01*
X71281027Y-49672419D02*
X71614360Y-50672419D01*
X71614360Y-50672419D02*
X71947693Y-49672419D01*
X72281027Y-50672419D02*
X72281027Y-49672419D01*
X72947693Y-49672419D02*
X73138169Y-49672419D01*
X73138169Y-49672419D02*
X73233407Y-49720038D01*
X73233407Y-49720038D02*
X73328645Y-49815276D01*
X73328645Y-49815276D02*
X73376264Y-50005752D01*
X73376264Y-50005752D02*
X73376264Y-50339085D01*
X73376264Y-50339085D02*
X73328645Y-50529561D01*
X73328645Y-50529561D02*
X73233407Y-50624800D01*
X73233407Y-50624800D02*
X73138169Y-50672419D01*
X73138169Y-50672419D02*
X72947693Y-50672419D01*
X72947693Y-50672419D02*
X72852455Y-50624800D01*
X72852455Y-50624800D02*
X72757217Y-50529561D01*
X72757217Y-50529561D02*
X72709598Y-50339085D01*
X72709598Y-50339085D02*
X72709598Y-50005752D01*
X72709598Y-50005752D02*
X72757217Y-49815276D01*
X72757217Y-49815276D02*
X72852455Y-49720038D01*
X72852455Y-49720038D02*
X72947693Y-49672419D01*
X71423884Y-60832419D02*
X71423884Y-59832419D01*
X71900074Y-60832419D02*
X71900074Y-59832419D01*
X71900074Y-59832419D02*
X72471502Y-60832419D01*
X72471502Y-60832419D02*
X72471502Y-59832419D01*
X72804836Y-59832419D02*
X73376264Y-59832419D01*
X73090550Y-60832419D02*
X73090550Y-59832419D01*
X74042931Y-60308609D02*
X74185788Y-60356228D01*
X74185788Y-60356228D02*
X74233407Y-60403847D01*
X74233407Y-60403847D02*
X74281026Y-60499085D01*
X74281026Y-60499085D02*
X74281026Y-60641942D01*
X74281026Y-60641942D02*
X74233407Y-60737180D01*
X74233407Y-60737180D02*
X74185788Y-60784800D01*
X74185788Y-60784800D02*
X74090550Y-60832419D01*
X74090550Y-60832419D02*
X73709598Y-60832419D01*
X73709598Y-60832419D02*
X73709598Y-59832419D01*
X73709598Y-59832419D02*
X74042931Y-59832419D01*
X74042931Y-59832419D02*
X74138169Y-59880038D01*
X74138169Y-59880038D02*
X74185788Y-59927657D01*
X74185788Y-59927657D02*
X74233407Y-60022895D01*
X74233407Y-60022895D02*
X74233407Y-60118133D01*
X74233407Y-60118133D02*
X74185788Y-60213371D01*
X74185788Y-60213371D02*
X74138169Y-60260990D01*
X74138169Y-60260990D02*
X74042931Y-60308609D01*
X74042931Y-60308609D02*
X73709598Y-60308609D01*
X71285789Y-59554800D02*
X74371503Y-59554800D01*
X119541027Y-50942419D02*
X119874360Y-51942419D01*
X119874360Y-51942419D02*
X120207693Y-50942419D01*
X120541027Y-51942419D02*
X120541027Y-50942419D01*
X121207693Y-50942419D02*
X121398169Y-50942419D01*
X121398169Y-50942419D02*
X121493407Y-50990038D01*
X121493407Y-50990038D02*
X121588645Y-51085276D01*
X121588645Y-51085276D02*
X121636264Y-51275752D01*
X121636264Y-51275752D02*
X121636264Y-51609085D01*
X121636264Y-51609085D02*
X121588645Y-51799561D01*
X121588645Y-51799561D02*
X121493407Y-51894800D01*
X121493407Y-51894800D02*
X121398169Y-51942419D01*
X121398169Y-51942419D02*
X121207693Y-51942419D01*
X121207693Y-51942419D02*
X121112455Y-51894800D01*
X121112455Y-51894800D02*
X121017217Y-51799561D01*
X121017217Y-51799561D02*
X120969598Y-51609085D01*
X120969598Y-51609085D02*
X120969598Y-51275752D01*
X120969598Y-51275752D02*
X121017217Y-51085276D01*
X121017217Y-51085276D02*
X121112455Y-50990038D01*
X121112455Y-50990038D02*
X121207693Y-50942419D01*
X119636265Y-56974800D02*
X119779122Y-57022419D01*
X119779122Y-57022419D02*
X120017217Y-57022419D01*
X120017217Y-57022419D02*
X120112455Y-56974800D01*
X120112455Y-56974800D02*
X120160074Y-56927180D01*
X120160074Y-56927180D02*
X120207693Y-56831942D01*
X120207693Y-56831942D02*
X120207693Y-56736704D01*
X120207693Y-56736704D02*
X120160074Y-56641466D01*
X120160074Y-56641466D02*
X120112455Y-56593847D01*
X120112455Y-56593847D02*
X120017217Y-56546228D01*
X120017217Y-56546228D02*
X119826741Y-56498609D01*
X119826741Y-56498609D02*
X119731503Y-56450990D01*
X119731503Y-56450990D02*
X119683884Y-56403371D01*
X119683884Y-56403371D02*
X119636265Y-56308133D01*
X119636265Y-56308133D02*
X119636265Y-56212895D01*
X119636265Y-56212895D02*
X119683884Y-56117657D01*
X119683884Y-56117657D02*
X119731503Y-56070038D01*
X119731503Y-56070038D02*
X119826741Y-56022419D01*
X119826741Y-56022419D02*
X120064836Y-56022419D01*
X120064836Y-56022419D02*
X120207693Y-56070038D01*
X121207693Y-56927180D02*
X121160074Y-56974800D01*
X121160074Y-56974800D02*
X121017217Y-57022419D01*
X121017217Y-57022419D02*
X120921979Y-57022419D01*
X120921979Y-57022419D02*
X120779122Y-56974800D01*
X120779122Y-56974800D02*
X120683884Y-56879561D01*
X120683884Y-56879561D02*
X120636265Y-56784323D01*
X120636265Y-56784323D02*
X120588646Y-56593847D01*
X120588646Y-56593847D02*
X120588646Y-56450990D01*
X120588646Y-56450990D02*
X120636265Y-56260514D01*
X120636265Y-56260514D02*
X120683884Y-56165276D01*
X120683884Y-56165276D02*
X120779122Y-56070038D01*
X120779122Y-56070038D02*
X120921979Y-56022419D01*
X120921979Y-56022419D02*
X121017217Y-56022419D01*
X121017217Y-56022419D02*
X121160074Y-56070038D01*
X121160074Y-56070038D02*
X121207693Y-56117657D01*
X122112455Y-57022419D02*
X121636265Y-57022419D01*
X121636265Y-57022419D02*
X121636265Y-56022419D01*
X136717693Y-49720038D02*
X136622455Y-49672419D01*
X136622455Y-49672419D02*
X136479598Y-49672419D01*
X136479598Y-49672419D02*
X136336741Y-49720038D01*
X136336741Y-49720038D02*
X136241503Y-49815276D01*
X136241503Y-49815276D02*
X136193884Y-49910514D01*
X136193884Y-49910514D02*
X136146265Y-50100990D01*
X136146265Y-50100990D02*
X136146265Y-50243847D01*
X136146265Y-50243847D02*
X136193884Y-50434323D01*
X136193884Y-50434323D02*
X136241503Y-50529561D01*
X136241503Y-50529561D02*
X136336741Y-50624800D01*
X136336741Y-50624800D02*
X136479598Y-50672419D01*
X136479598Y-50672419D02*
X136574836Y-50672419D01*
X136574836Y-50672419D02*
X136717693Y-50624800D01*
X136717693Y-50624800D02*
X136765312Y-50577180D01*
X136765312Y-50577180D02*
X136765312Y-50243847D01*
X136765312Y-50243847D02*
X136574836Y-50243847D01*
X137193884Y-50672419D02*
X137193884Y-49672419D01*
X137193884Y-49672419D02*
X137765312Y-50672419D01*
X137765312Y-50672419D02*
X137765312Y-49672419D01*
X138241503Y-50672419D02*
X138241503Y-49672419D01*
X138241503Y-49672419D02*
X138479598Y-49672419D01*
X138479598Y-49672419D02*
X138622455Y-49720038D01*
X138622455Y-49720038D02*
X138717693Y-49815276D01*
X138717693Y-49815276D02*
X138765312Y-49910514D01*
X138765312Y-49910514D02*
X138812931Y-50100990D01*
X138812931Y-50100990D02*
X138812931Y-50243847D01*
X138812931Y-50243847D02*
X138765312Y-50434323D01*
X138765312Y-50434323D02*
X138717693Y-50529561D01*
X138717693Y-50529561D02*
X138622455Y-50624800D01*
X138622455Y-50624800D02*
X138479598Y-50672419D01*
X138479598Y-50672419D02*
X138241503Y-50672419D01*
D11*
X102965477Y-57654819D02*
X102965477Y-58369104D01*
X102965477Y-58369104D02*
X102917858Y-58511961D01*
X102917858Y-58511961D02*
X102822620Y-58607200D01*
X102822620Y-58607200D02*
X102679763Y-58654819D01*
X102679763Y-58654819D02*
X102584525Y-58654819D01*
X103441668Y-58654819D02*
X103441668Y-57654819D01*
X103441668Y-57654819D02*
X103822620Y-57654819D01*
X103822620Y-57654819D02*
X103917858Y-57702438D01*
X103917858Y-57702438D02*
X103965477Y-57750057D01*
X103965477Y-57750057D02*
X104013096Y-57845295D01*
X104013096Y-57845295D02*
X104013096Y-57988152D01*
X104013096Y-57988152D02*
X103965477Y-58083390D01*
X103965477Y-58083390D02*
X103917858Y-58131009D01*
X103917858Y-58131009D02*
X103822620Y-58178628D01*
X103822620Y-58178628D02*
X103441668Y-58178628D01*
X104965477Y-58654819D02*
X104394049Y-58654819D01*
X104679763Y-58654819D02*
X104679763Y-57654819D01*
X104679763Y-57654819D02*
X104584525Y-57797676D01*
X104584525Y-57797676D02*
X104489287Y-57892914D01*
X104489287Y-57892914D02*
X104394049Y-57940533D01*
X105584525Y-57654819D02*
X105679763Y-57654819D01*
X105679763Y-57654819D02*
X105775001Y-57702438D01*
X105775001Y-57702438D02*
X105822620Y-57750057D01*
X105822620Y-57750057D02*
X105870239Y-57845295D01*
X105870239Y-57845295D02*
X105917858Y-58035771D01*
X105917858Y-58035771D02*
X105917858Y-58273866D01*
X105917858Y-58273866D02*
X105870239Y-58464342D01*
X105870239Y-58464342D02*
X105822620Y-58559580D01*
X105822620Y-58559580D02*
X105775001Y-58607200D01*
X105775001Y-58607200D02*
X105679763Y-58654819D01*
X105679763Y-58654819D02*
X105584525Y-58654819D01*
X105584525Y-58654819D02*
X105489287Y-58607200D01*
X105489287Y-58607200D02*
X105441668Y-58559580D01*
X105441668Y-58559580D02*
X105394049Y-58464342D01*
X105394049Y-58464342D02*
X105346430Y-58273866D01*
X105346430Y-58273866D02*
X105346430Y-58035771D01*
X105346430Y-58035771D02*
X105394049Y-57845295D01*
X105394049Y-57845295D02*
X105441668Y-57750057D01*
X105441668Y-57750057D02*
X105489287Y-57702438D01*
X105489287Y-57702438D02*
X105584525Y-57654819D01*
X103441667Y-54654819D02*
X103441667Y-55369104D01*
X103441667Y-55369104D02*
X103394048Y-55511961D01*
X103394048Y-55511961D02*
X103298810Y-55607200D01*
X103298810Y-55607200D02*
X103155953Y-55654819D01*
X103155953Y-55654819D02*
X103060715Y-55654819D01*
X103917858Y-55654819D02*
X103917858Y-54654819D01*
X103917858Y-54654819D02*
X104298810Y-54654819D01*
X104298810Y-54654819D02*
X104394048Y-54702438D01*
X104394048Y-54702438D02*
X104441667Y-54750057D01*
X104441667Y-54750057D02*
X104489286Y-54845295D01*
X104489286Y-54845295D02*
X104489286Y-54988152D01*
X104489286Y-54988152D02*
X104441667Y-55083390D01*
X104441667Y-55083390D02*
X104394048Y-55131009D01*
X104394048Y-55131009D02*
X104298810Y-55178628D01*
X104298810Y-55178628D02*
X103917858Y-55178628D01*
X104965477Y-55654819D02*
X105155953Y-55654819D01*
X105155953Y-55654819D02*
X105251191Y-55607200D01*
X105251191Y-55607200D02*
X105298810Y-55559580D01*
X105298810Y-55559580D02*
X105394048Y-55416723D01*
X105394048Y-55416723D02*
X105441667Y-55226247D01*
X105441667Y-55226247D02*
X105441667Y-54845295D01*
X105441667Y-54845295D02*
X105394048Y-54750057D01*
X105394048Y-54750057D02*
X105346429Y-54702438D01*
X105346429Y-54702438D02*
X105251191Y-54654819D01*
X105251191Y-54654819D02*
X105060715Y-54654819D01*
X105060715Y-54654819D02*
X104965477Y-54702438D01*
X104965477Y-54702438D02*
X104917858Y-54750057D01*
X104917858Y-54750057D02*
X104870239Y-54845295D01*
X104870239Y-54845295D02*
X104870239Y-55083390D01*
X104870239Y-55083390D02*
X104917858Y-55178628D01*
X104917858Y-55178628D02*
X104965477Y-55226247D01*
X104965477Y-55226247D02*
X105060715Y-55273866D01*
X105060715Y-55273866D02*
X105251191Y-55273866D01*
X105251191Y-55273866D02*
X105346429Y-55226247D01*
X105346429Y-55226247D02*
X105394048Y-55178628D01*
X105394048Y-55178628D02*
X105441667Y-55083390D01*
X103441666Y-51654819D02*
X103441666Y-52369104D01*
X103441666Y-52369104D02*
X103394047Y-52511961D01*
X103394047Y-52511961D02*
X103298809Y-52607200D01*
X103298809Y-52607200D02*
X103155952Y-52654819D01*
X103155952Y-52654819D02*
X103060714Y-52654819D01*
X103917857Y-52654819D02*
X103917857Y-51654819D01*
X103917857Y-51654819D02*
X104298809Y-51654819D01*
X104298809Y-51654819D02*
X104394047Y-51702438D01*
X104394047Y-51702438D02*
X104441666Y-51750057D01*
X104441666Y-51750057D02*
X104489285Y-51845295D01*
X104489285Y-51845295D02*
X104489285Y-51988152D01*
X104489285Y-51988152D02*
X104441666Y-52083390D01*
X104441666Y-52083390D02*
X104394047Y-52131009D01*
X104394047Y-52131009D02*
X104298809Y-52178628D01*
X104298809Y-52178628D02*
X103917857Y-52178628D01*
X105060714Y-52083390D02*
X104965476Y-52035771D01*
X104965476Y-52035771D02*
X104917857Y-51988152D01*
X104917857Y-51988152D02*
X104870238Y-51892914D01*
X104870238Y-51892914D02*
X104870238Y-51845295D01*
X104870238Y-51845295D02*
X104917857Y-51750057D01*
X104917857Y-51750057D02*
X104965476Y-51702438D01*
X104965476Y-51702438D02*
X105060714Y-51654819D01*
X105060714Y-51654819D02*
X105251190Y-51654819D01*
X105251190Y-51654819D02*
X105346428Y-51702438D01*
X105346428Y-51702438D02*
X105394047Y-51750057D01*
X105394047Y-51750057D02*
X105441666Y-51845295D01*
X105441666Y-51845295D02*
X105441666Y-51892914D01*
X105441666Y-51892914D02*
X105394047Y-51988152D01*
X105394047Y-51988152D02*
X105346428Y-52035771D01*
X105346428Y-52035771D02*
X105251190Y-52083390D01*
X105251190Y-52083390D02*
X105060714Y-52083390D01*
X105060714Y-52083390D02*
X104965476Y-52131009D01*
X104965476Y-52131009D02*
X104917857Y-52178628D01*
X104917857Y-52178628D02*
X104870238Y-52273866D01*
X104870238Y-52273866D02*
X104870238Y-52464342D01*
X104870238Y-52464342D02*
X104917857Y-52559580D01*
X104917857Y-52559580D02*
X104965476Y-52607200D01*
X104965476Y-52607200D02*
X105060714Y-52654819D01*
X105060714Y-52654819D02*
X105251190Y-52654819D01*
X105251190Y-52654819D02*
X105346428Y-52607200D01*
X105346428Y-52607200D02*
X105394047Y-52559580D01*
X105394047Y-52559580D02*
X105441666Y-52464342D01*
X105441666Y-52464342D02*
X105441666Y-52273866D01*
X105441666Y-52273866D02*
X105394047Y-52178628D01*
X105394047Y-52178628D02*
X105346428Y-52131009D01*
X105346428Y-52131009D02*
X105251190Y-52083390D01*
X103441667Y-48654819D02*
X103441667Y-49369104D01*
X103441667Y-49369104D02*
X103394048Y-49511961D01*
X103394048Y-49511961D02*
X103298810Y-49607200D01*
X103298810Y-49607200D02*
X103155953Y-49654819D01*
X103155953Y-49654819D02*
X103060715Y-49654819D01*
X103917858Y-49654819D02*
X103917858Y-48654819D01*
X103917858Y-48654819D02*
X104298810Y-48654819D01*
X104298810Y-48654819D02*
X104394048Y-48702438D01*
X104394048Y-48702438D02*
X104441667Y-48750057D01*
X104441667Y-48750057D02*
X104489286Y-48845295D01*
X104489286Y-48845295D02*
X104489286Y-48988152D01*
X104489286Y-48988152D02*
X104441667Y-49083390D01*
X104441667Y-49083390D02*
X104394048Y-49131009D01*
X104394048Y-49131009D02*
X104298810Y-49178628D01*
X104298810Y-49178628D02*
X103917858Y-49178628D01*
X104822620Y-48654819D02*
X105489286Y-48654819D01*
X105489286Y-48654819D02*
X105060715Y-49654819D01*
X99441666Y-61254819D02*
X99441666Y-61969104D01*
X99441666Y-61969104D02*
X99394047Y-62111961D01*
X99394047Y-62111961D02*
X99298809Y-62207200D01*
X99298809Y-62207200D02*
X99155952Y-62254819D01*
X99155952Y-62254819D02*
X99060714Y-62254819D01*
X99917857Y-62254819D02*
X99917857Y-61254819D01*
X99917857Y-61254819D02*
X100298809Y-61254819D01*
X100298809Y-61254819D02*
X100394047Y-61302438D01*
X100394047Y-61302438D02*
X100441666Y-61350057D01*
X100441666Y-61350057D02*
X100489285Y-61445295D01*
X100489285Y-61445295D02*
X100489285Y-61588152D01*
X100489285Y-61588152D02*
X100441666Y-61683390D01*
X100441666Y-61683390D02*
X100394047Y-61731009D01*
X100394047Y-61731009D02*
X100298809Y-61778628D01*
X100298809Y-61778628D02*
X99917857Y-61778628D01*
X101346428Y-61254819D02*
X101155952Y-61254819D01*
X101155952Y-61254819D02*
X101060714Y-61302438D01*
X101060714Y-61302438D02*
X101013095Y-61350057D01*
X101013095Y-61350057D02*
X100917857Y-61492914D01*
X100917857Y-61492914D02*
X100870238Y-61683390D01*
X100870238Y-61683390D02*
X100870238Y-62064342D01*
X100870238Y-62064342D02*
X100917857Y-62159580D01*
X100917857Y-62159580D02*
X100965476Y-62207200D01*
X100965476Y-62207200D02*
X101060714Y-62254819D01*
X101060714Y-62254819D02*
X101251190Y-62254819D01*
X101251190Y-62254819D02*
X101346428Y-62207200D01*
X101346428Y-62207200D02*
X101394047Y-62159580D01*
X101394047Y-62159580D02*
X101441666Y-62064342D01*
X101441666Y-62064342D02*
X101441666Y-61826247D01*
X101441666Y-61826247D02*
X101394047Y-61731009D01*
X101394047Y-61731009D02*
X101346428Y-61683390D01*
X101346428Y-61683390D02*
X101251190Y-61635771D01*
X101251190Y-61635771D02*
X101060714Y-61635771D01*
X101060714Y-61635771D02*
X100965476Y-61683390D01*
X100965476Y-61683390D02*
X100917857Y-61731009D01*
X100917857Y-61731009D02*
X100870238Y-61826247D01*
X99441667Y-58454820D02*
X99441667Y-59169105D01*
X99441667Y-59169105D02*
X99394048Y-59311962D01*
X99394048Y-59311962D02*
X99298810Y-59407201D01*
X99298810Y-59407201D02*
X99155953Y-59454820D01*
X99155953Y-59454820D02*
X99060715Y-59454820D01*
X99917858Y-59454820D02*
X99917858Y-58454820D01*
X99917858Y-58454820D02*
X100298810Y-58454820D01*
X100298810Y-58454820D02*
X100394048Y-58502439D01*
X100394048Y-58502439D02*
X100441667Y-58550058D01*
X100441667Y-58550058D02*
X100489286Y-58645296D01*
X100489286Y-58645296D02*
X100489286Y-58788153D01*
X100489286Y-58788153D02*
X100441667Y-58883391D01*
X100441667Y-58883391D02*
X100394048Y-58931010D01*
X100394048Y-58931010D02*
X100298810Y-58978629D01*
X100298810Y-58978629D02*
X99917858Y-58978629D01*
X101394048Y-58454820D02*
X100917858Y-58454820D01*
X100917858Y-58454820D02*
X100870239Y-58931010D01*
X100870239Y-58931010D02*
X100917858Y-58883391D01*
X100917858Y-58883391D02*
X101013096Y-58835772D01*
X101013096Y-58835772D02*
X101251191Y-58835772D01*
X101251191Y-58835772D02*
X101346429Y-58883391D01*
X101346429Y-58883391D02*
X101394048Y-58931010D01*
X101394048Y-58931010D02*
X101441667Y-59026248D01*
X101441667Y-59026248D02*
X101441667Y-59264343D01*
X101441667Y-59264343D02*
X101394048Y-59359581D01*
X101394048Y-59359581D02*
X101346429Y-59407201D01*
X101346429Y-59407201D02*
X101251191Y-59454820D01*
X101251191Y-59454820D02*
X101013096Y-59454820D01*
X101013096Y-59454820D02*
X100917858Y-59407201D01*
X100917858Y-59407201D02*
X100870239Y-59359581D01*
X99441666Y-55254819D02*
X99441666Y-55969104D01*
X99441666Y-55969104D02*
X99394047Y-56111961D01*
X99394047Y-56111961D02*
X99298809Y-56207200D01*
X99298809Y-56207200D02*
X99155952Y-56254819D01*
X99155952Y-56254819D02*
X99060714Y-56254819D01*
X99917857Y-56254819D02*
X99917857Y-55254819D01*
X99917857Y-55254819D02*
X100298809Y-55254819D01*
X100298809Y-55254819D02*
X100394047Y-55302438D01*
X100394047Y-55302438D02*
X100441666Y-55350057D01*
X100441666Y-55350057D02*
X100489285Y-55445295D01*
X100489285Y-55445295D02*
X100489285Y-55588152D01*
X100489285Y-55588152D02*
X100441666Y-55683390D01*
X100441666Y-55683390D02*
X100394047Y-55731009D01*
X100394047Y-55731009D02*
X100298809Y-55778628D01*
X100298809Y-55778628D02*
X99917857Y-55778628D01*
X101346428Y-55588152D02*
X101346428Y-56254819D01*
X101108333Y-55207200D02*
X100870238Y-55921485D01*
X100870238Y-55921485D02*
X101489285Y-55921485D01*
X99441667Y-52254819D02*
X99441667Y-52969104D01*
X99441667Y-52969104D02*
X99394048Y-53111961D01*
X99394048Y-53111961D02*
X99298810Y-53207200D01*
X99298810Y-53207200D02*
X99155953Y-53254819D01*
X99155953Y-53254819D02*
X99060715Y-53254819D01*
X99917858Y-53254819D02*
X99917858Y-52254819D01*
X99917858Y-52254819D02*
X100298810Y-52254819D01*
X100298810Y-52254819D02*
X100394048Y-52302438D01*
X100394048Y-52302438D02*
X100441667Y-52350057D01*
X100441667Y-52350057D02*
X100489286Y-52445295D01*
X100489286Y-52445295D02*
X100489286Y-52588152D01*
X100489286Y-52588152D02*
X100441667Y-52683390D01*
X100441667Y-52683390D02*
X100394048Y-52731009D01*
X100394048Y-52731009D02*
X100298810Y-52778628D01*
X100298810Y-52778628D02*
X99917858Y-52778628D01*
X100822620Y-52254819D02*
X101441667Y-52254819D01*
X101441667Y-52254819D02*
X101108334Y-52635771D01*
X101108334Y-52635771D02*
X101251191Y-52635771D01*
X101251191Y-52635771D02*
X101346429Y-52683390D01*
X101346429Y-52683390D02*
X101394048Y-52731009D01*
X101394048Y-52731009D02*
X101441667Y-52826247D01*
X101441667Y-52826247D02*
X101441667Y-53064342D01*
X101441667Y-53064342D02*
X101394048Y-53159580D01*
X101394048Y-53159580D02*
X101346429Y-53207200D01*
X101346429Y-53207200D02*
X101251191Y-53254819D01*
X101251191Y-53254819D02*
X100965477Y-53254819D01*
X100965477Y-53254819D02*
X100870239Y-53207200D01*
X100870239Y-53207200D02*
X100822620Y-53159580D01*
X118359580Y-111216666D02*
X118407200Y-111264285D01*
X118407200Y-111264285D02*
X118454819Y-111407142D01*
X118454819Y-111407142D02*
X118454819Y-111502380D01*
X118454819Y-111502380D02*
X118407200Y-111645237D01*
X118407200Y-111645237D02*
X118311961Y-111740475D01*
X118311961Y-111740475D02*
X118216723Y-111788094D01*
X118216723Y-111788094D02*
X118026247Y-111835713D01*
X118026247Y-111835713D02*
X117883390Y-111835713D01*
X117883390Y-111835713D02*
X117692914Y-111788094D01*
X117692914Y-111788094D02*
X117597676Y-111740475D01*
X117597676Y-111740475D02*
X117502438Y-111645237D01*
X117502438Y-111645237D02*
X117454819Y-111502380D01*
X117454819Y-111502380D02*
X117454819Y-111407142D01*
X117454819Y-111407142D02*
X117502438Y-111264285D01*
X117502438Y-111264285D02*
X117550057Y-111216666D01*
X117454819Y-110883332D02*
X117454819Y-110264285D01*
X117454819Y-110264285D02*
X117835771Y-110597618D01*
X117835771Y-110597618D02*
X117835771Y-110454761D01*
X117835771Y-110454761D02*
X117883390Y-110359523D01*
X117883390Y-110359523D02*
X117931009Y-110311904D01*
X117931009Y-110311904D02*
X118026247Y-110264285D01*
X118026247Y-110264285D02*
X118264342Y-110264285D01*
X118264342Y-110264285D02*
X118359580Y-110311904D01*
X118359580Y-110311904D02*
X118407200Y-110359523D01*
X118407200Y-110359523D02*
X118454819Y-110454761D01*
X118454819Y-110454761D02*
X118454819Y-110740475D01*
X118454819Y-110740475D02*
X118407200Y-110835713D01*
X118407200Y-110835713D02*
X118359580Y-110883332D01*
X105833333Y-106359580D02*
X105785714Y-106407200D01*
X105785714Y-106407200D02*
X105642857Y-106454819D01*
X105642857Y-106454819D02*
X105547619Y-106454819D01*
X105547619Y-106454819D02*
X105404762Y-106407200D01*
X105404762Y-106407200D02*
X105309524Y-106311961D01*
X105309524Y-106311961D02*
X105261905Y-106216723D01*
X105261905Y-106216723D02*
X105214286Y-106026247D01*
X105214286Y-106026247D02*
X105214286Y-105883390D01*
X105214286Y-105883390D02*
X105261905Y-105692914D01*
X105261905Y-105692914D02*
X105309524Y-105597676D01*
X105309524Y-105597676D02*
X105404762Y-105502438D01*
X105404762Y-105502438D02*
X105547619Y-105454819D01*
X105547619Y-105454819D02*
X105642857Y-105454819D01*
X105642857Y-105454819D02*
X105785714Y-105502438D01*
X105785714Y-105502438D02*
X105833333Y-105550057D01*
X106214286Y-105550057D02*
X106261905Y-105502438D01*
X106261905Y-105502438D02*
X106357143Y-105454819D01*
X106357143Y-105454819D02*
X106595238Y-105454819D01*
X106595238Y-105454819D02*
X106690476Y-105502438D01*
X106690476Y-105502438D02*
X106738095Y-105550057D01*
X106738095Y-105550057D02*
X106785714Y-105645295D01*
X106785714Y-105645295D02*
X106785714Y-105740533D01*
X106785714Y-105740533D02*
X106738095Y-105883390D01*
X106738095Y-105883390D02*
X106166667Y-106454819D01*
X106166667Y-106454819D02*
X106785714Y-106454819D01*
X110833333Y-124359580D02*
X110785714Y-124407200D01*
X110785714Y-124407200D02*
X110642857Y-124454819D01*
X110642857Y-124454819D02*
X110547619Y-124454819D01*
X110547619Y-124454819D02*
X110404762Y-124407200D01*
X110404762Y-124407200D02*
X110309524Y-124311961D01*
X110309524Y-124311961D02*
X110261905Y-124216723D01*
X110261905Y-124216723D02*
X110214286Y-124026247D01*
X110214286Y-124026247D02*
X110214286Y-123883390D01*
X110214286Y-123883390D02*
X110261905Y-123692914D01*
X110261905Y-123692914D02*
X110309524Y-123597676D01*
X110309524Y-123597676D02*
X110404762Y-123502438D01*
X110404762Y-123502438D02*
X110547619Y-123454819D01*
X110547619Y-123454819D02*
X110642857Y-123454819D01*
X110642857Y-123454819D02*
X110785714Y-123502438D01*
X110785714Y-123502438D02*
X110833333Y-123550057D01*
X111690476Y-123788152D02*
X111690476Y-124454819D01*
X111452381Y-123407200D02*
X111214286Y-124121485D01*
X111214286Y-124121485D02*
X111833333Y-124121485D01*
X110833333Y-126359580D02*
X110785714Y-126407200D01*
X110785714Y-126407200D02*
X110642857Y-126454819D01*
X110642857Y-126454819D02*
X110547619Y-126454819D01*
X110547619Y-126454819D02*
X110404762Y-126407200D01*
X110404762Y-126407200D02*
X110309524Y-126311961D01*
X110309524Y-126311961D02*
X110261905Y-126216723D01*
X110261905Y-126216723D02*
X110214286Y-126026247D01*
X110214286Y-126026247D02*
X110214286Y-125883390D01*
X110214286Y-125883390D02*
X110261905Y-125692914D01*
X110261905Y-125692914D02*
X110309524Y-125597676D01*
X110309524Y-125597676D02*
X110404762Y-125502438D01*
X110404762Y-125502438D02*
X110547619Y-125454819D01*
X110547619Y-125454819D02*
X110642857Y-125454819D01*
X110642857Y-125454819D02*
X110785714Y-125502438D01*
X110785714Y-125502438D02*
X110833333Y-125550057D01*
X111690476Y-125454819D02*
X111500000Y-125454819D01*
X111500000Y-125454819D02*
X111404762Y-125502438D01*
X111404762Y-125502438D02*
X111357143Y-125550057D01*
X111357143Y-125550057D02*
X111261905Y-125692914D01*
X111261905Y-125692914D02*
X111214286Y-125883390D01*
X111214286Y-125883390D02*
X111214286Y-126264342D01*
X111214286Y-126264342D02*
X111261905Y-126359580D01*
X111261905Y-126359580D02*
X111309524Y-126407200D01*
X111309524Y-126407200D02*
X111404762Y-126454819D01*
X111404762Y-126454819D02*
X111595238Y-126454819D01*
X111595238Y-126454819D02*
X111690476Y-126407200D01*
X111690476Y-126407200D02*
X111738095Y-126359580D01*
X111738095Y-126359580D02*
X111785714Y-126264342D01*
X111785714Y-126264342D02*
X111785714Y-126026247D01*
X111785714Y-126026247D02*
X111738095Y-125931009D01*
X111738095Y-125931009D02*
X111690476Y-125883390D01*
X111690476Y-125883390D02*
X111595238Y-125835771D01*
X111595238Y-125835771D02*
X111404762Y-125835771D01*
X111404762Y-125835771D02*
X111309524Y-125883390D01*
X111309524Y-125883390D02*
X111261905Y-125931009D01*
X111261905Y-125931009D02*
X111214286Y-126026247D01*
X114833333Y-108454819D02*
X114500000Y-107978628D01*
X114261905Y-108454819D02*
X114261905Y-107454819D01*
X114261905Y-107454819D02*
X114642857Y-107454819D01*
X114642857Y-107454819D02*
X114738095Y-107502438D01*
X114738095Y-107502438D02*
X114785714Y-107550057D01*
X114785714Y-107550057D02*
X114833333Y-107645295D01*
X114833333Y-107645295D02*
X114833333Y-107788152D01*
X114833333Y-107788152D02*
X114785714Y-107883390D01*
X114785714Y-107883390D02*
X114738095Y-107931009D01*
X114738095Y-107931009D02*
X114642857Y-107978628D01*
X114642857Y-107978628D02*
X114261905Y-107978628D01*
X115214286Y-107550057D02*
X115261905Y-107502438D01*
X115261905Y-107502438D02*
X115357143Y-107454819D01*
X115357143Y-107454819D02*
X115595238Y-107454819D01*
X115595238Y-107454819D02*
X115690476Y-107502438D01*
X115690476Y-107502438D02*
X115738095Y-107550057D01*
X115738095Y-107550057D02*
X115785714Y-107645295D01*
X115785714Y-107645295D02*
X115785714Y-107740533D01*
X115785714Y-107740533D02*
X115738095Y-107883390D01*
X115738095Y-107883390D02*
X115166667Y-108454819D01*
X115166667Y-108454819D02*
X115785714Y-108454819D01*
X104863095Y-109749819D02*
X104863095Y-110559342D01*
X104863095Y-110559342D02*
X104910714Y-110654580D01*
X104910714Y-110654580D02*
X104958333Y-110702200D01*
X104958333Y-110702200D02*
X105053571Y-110749819D01*
X105053571Y-110749819D02*
X105244047Y-110749819D01*
X105244047Y-110749819D02*
X105339285Y-110702200D01*
X105339285Y-110702200D02*
X105386904Y-110654580D01*
X105386904Y-110654580D02*
X105434523Y-110559342D01*
X105434523Y-110559342D02*
X105434523Y-109749819D01*
X106434523Y-110749819D02*
X105863095Y-110749819D01*
X106148809Y-110749819D02*
X106148809Y-109749819D01*
X106148809Y-109749819D02*
X106053571Y-109892676D01*
X106053571Y-109892676D02*
X105958333Y-109987914D01*
X105958333Y-109987914D02*
X105863095Y-110035533D01*
X110745833Y-96454819D02*
X110412500Y-95978628D01*
X110174405Y-96454819D02*
X110174405Y-95454819D01*
X110174405Y-95454819D02*
X110555357Y-95454819D01*
X110555357Y-95454819D02*
X110650595Y-95502438D01*
X110650595Y-95502438D02*
X110698214Y-95550057D01*
X110698214Y-95550057D02*
X110745833Y-95645295D01*
X110745833Y-95645295D02*
X110745833Y-95788152D01*
X110745833Y-95788152D02*
X110698214Y-95883390D01*
X110698214Y-95883390D02*
X110650595Y-95931009D01*
X110650595Y-95931009D02*
X110555357Y-95978628D01*
X110555357Y-95978628D02*
X110174405Y-95978628D01*
X111079167Y-95454819D02*
X111698214Y-95454819D01*
X111698214Y-95454819D02*
X111364881Y-95835771D01*
X111364881Y-95835771D02*
X111507738Y-95835771D01*
X111507738Y-95835771D02*
X111602976Y-95883390D01*
X111602976Y-95883390D02*
X111650595Y-95931009D01*
X111650595Y-95931009D02*
X111698214Y-96026247D01*
X111698214Y-96026247D02*
X111698214Y-96264342D01*
X111698214Y-96264342D02*
X111650595Y-96359580D01*
X111650595Y-96359580D02*
X111602976Y-96407200D01*
X111602976Y-96407200D02*
X111507738Y-96454819D01*
X111507738Y-96454819D02*
X111222024Y-96454819D01*
X111222024Y-96454819D02*
X111126786Y-96407200D01*
X111126786Y-96407200D02*
X111079167Y-96359580D01*
X99454819Y-106166666D02*
X98978628Y-106499999D01*
X99454819Y-106738094D02*
X98454819Y-106738094D01*
X98454819Y-106738094D02*
X98454819Y-106357142D01*
X98454819Y-106357142D02*
X98502438Y-106261904D01*
X98502438Y-106261904D02*
X98550057Y-106214285D01*
X98550057Y-106214285D02*
X98645295Y-106166666D01*
X98645295Y-106166666D02*
X98788152Y-106166666D01*
X98788152Y-106166666D02*
X98883390Y-106214285D01*
X98883390Y-106214285D02*
X98931009Y-106261904D01*
X98931009Y-106261904D02*
X98978628Y-106357142D01*
X98978628Y-106357142D02*
X98978628Y-106738094D01*
X99454819Y-105214285D02*
X99454819Y-105785713D01*
X99454819Y-105499999D02*
X98454819Y-105499999D01*
X98454819Y-105499999D02*
X98597676Y-105595237D01*
X98597676Y-105595237D02*
X98692914Y-105690475D01*
X98692914Y-105690475D02*
X98740533Y-105785713D01*
X107833333Y-104359580D02*
X107785714Y-104407200D01*
X107785714Y-104407200D02*
X107642857Y-104454819D01*
X107642857Y-104454819D02*
X107547619Y-104454819D01*
X107547619Y-104454819D02*
X107404762Y-104407200D01*
X107404762Y-104407200D02*
X107309524Y-104311961D01*
X107309524Y-104311961D02*
X107261905Y-104216723D01*
X107261905Y-104216723D02*
X107214286Y-104026247D01*
X107214286Y-104026247D02*
X107214286Y-103883390D01*
X107214286Y-103883390D02*
X107261905Y-103692914D01*
X107261905Y-103692914D02*
X107309524Y-103597676D01*
X107309524Y-103597676D02*
X107404762Y-103502438D01*
X107404762Y-103502438D02*
X107547619Y-103454819D01*
X107547619Y-103454819D02*
X107642857Y-103454819D01*
X107642857Y-103454819D02*
X107785714Y-103502438D01*
X107785714Y-103502438D02*
X107833333Y-103550057D01*
X108738095Y-103454819D02*
X108261905Y-103454819D01*
X108261905Y-103454819D02*
X108214286Y-103931009D01*
X108214286Y-103931009D02*
X108261905Y-103883390D01*
X108261905Y-103883390D02*
X108357143Y-103835771D01*
X108357143Y-103835771D02*
X108595238Y-103835771D01*
X108595238Y-103835771D02*
X108690476Y-103883390D01*
X108690476Y-103883390D02*
X108738095Y-103931009D01*
X108738095Y-103931009D02*
X108785714Y-104026247D01*
X108785714Y-104026247D02*
X108785714Y-104264342D01*
X108785714Y-104264342D02*
X108738095Y-104359580D01*
X108738095Y-104359580D02*
X108690476Y-104407200D01*
X108690476Y-104407200D02*
X108595238Y-104454819D01*
X108595238Y-104454819D02*
X108357143Y-104454819D01*
X108357143Y-104454819D02*
X108261905Y-104407200D01*
X108261905Y-104407200D02*
X108214286Y-104359580D01*
X116359580Y-111216667D02*
X116407200Y-111264286D01*
X116407200Y-111264286D02*
X116454819Y-111407143D01*
X116454819Y-111407143D02*
X116454819Y-111502381D01*
X116454819Y-111502381D02*
X116407200Y-111645238D01*
X116407200Y-111645238D02*
X116311961Y-111740476D01*
X116311961Y-111740476D02*
X116216723Y-111788095D01*
X116216723Y-111788095D02*
X116026247Y-111835714D01*
X116026247Y-111835714D02*
X115883390Y-111835714D01*
X115883390Y-111835714D02*
X115692914Y-111788095D01*
X115692914Y-111788095D02*
X115597676Y-111740476D01*
X115597676Y-111740476D02*
X115502438Y-111645238D01*
X115502438Y-111645238D02*
X115454819Y-111502381D01*
X115454819Y-111502381D02*
X115454819Y-111407143D01*
X115454819Y-111407143D02*
X115502438Y-111264286D01*
X115502438Y-111264286D02*
X115550057Y-111216667D01*
X115883390Y-110645238D02*
X115835771Y-110740476D01*
X115835771Y-110740476D02*
X115788152Y-110788095D01*
X115788152Y-110788095D02*
X115692914Y-110835714D01*
X115692914Y-110835714D02*
X115645295Y-110835714D01*
X115645295Y-110835714D02*
X115550057Y-110788095D01*
X115550057Y-110788095D02*
X115502438Y-110740476D01*
X115502438Y-110740476D02*
X115454819Y-110645238D01*
X115454819Y-110645238D02*
X115454819Y-110454762D01*
X115454819Y-110454762D02*
X115502438Y-110359524D01*
X115502438Y-110359524D02*
X115550057Y-110311905D01*
X115550057Y-110311905D02*
X115645295Y-110264286D01*
X115645295Y-110264286D02*
X115692914Y-110264286D01*
X115692914Y-110264286D02*
X115788152Y-110311905D01*
X115788152Y-110311905D02*
X115835771Y-110359524D01*
X115835771Y-110359524D02*
X115883390Y-110454762D01*
X115883390Y-110454762D02*
X115883390Y-110645238D01*
X115883390Y-110645238D02*
X115931009Y-110740476D01*
X115931009Y-110740476D02*
X115978628Y-110788095D01*
X115978628Y-110788095D02*
X116073866Y-110835714D01*
X116073866Y-110835714D02*
X116264342Y-110835714D01*
X116264342Y-110835714D02*
X116359580Y-110788095D01*
X116359580Y-110788095D02*
X116407200Y-110740476D01*
X116407200Y-110740476D02*
X116454819Y-110645238D01*
X116454819Y-110645238D02*
X116454819Y-110454762D01*
X116454819Y-110454762D02*
X116407200Y-110359524D01*
X116407200Y-110359524D02*
X116359580Y-110311905D01*
X116359580Y-110311905D02*
X116264342Y-110264286D01*
X116264342Y-110264286D02*
X116073866Y-110264286D01*
X116073866Y-110264286D02*
X115978628Y-110311905D01*
X115978628Y-110311905D02*
X115931009Y-110359524D01*
X115931009Y-110359524D02*
X115883390Y-110454762D01*
X107833333Y-102359580D02*
X107785714Y-102407200D01*
X107785714Y-102407200D02*
X107642857Y-102454819D01*
X107642857Y-102454819D02*
X107547619Y-102454819D01*
X107547619Y-102454819D02*
X107404762Y-102407200D01*
X107404762Y-102407200D02*
X107309524Y-102311961D01*
X107309524Y-102311961D02*
X107261905Y-102216723D01*
X107261905Y-102216723D02*
X107214286Y-102026247D01*
X107214286Y-102026247D02*
X107214286Y-101883390D01*
X107214286Y-101883390D02*
X107261905Y-101692914D01*
X107261905Y-101692914D02*
X107309524Y-101597676D01*
X107309524Y-101597676D02*
X107404762Y-101502438D01*
X107404762Y-101502438D02*
X107547619Y-101454819D01*
X107547619Y-101454819D02*
X107642857Y-101454819D01*
X107642857Y-101454819D02*
X107785714Y-101502438D01*
X107785714Y-101502438D02*
X107833333Y-101550057D01*
X108166667Y-101454819D02*
X108833333Y-101454819D01*
X108833333Y-101454819D02*
X108404762Y-102454819D01*
X116433333Y-76959580D02*
X116385714Y-77007200D01*
X116385714Y-77007200D02*
X116242857Y-77054819D01*
X116242857Y-77054819D02*
X116147619Y-77054819D01*
X116147619Y-77054819D02*
X116004762Y-77007200D01*
X116004762Y-77007200D02*
X115909524Y-76911961D01*
X115909524Y-76911961D02*
X115861905Y-76816723D01*
X115861905Y-76816723D02*
X115814286Y-76626247D01*
X115814286Y-76626247D02*
X115814286Y-76483390D01*
X115814286Y-76483390D02*
X115861905Y-76292914D01*
X115861905Y-76292914D02*
X115909524Y-76197676D01*
X115909524Y-76197676D02*
X116004762Y-76102438D01*
X116004762Y-76102438D02*
X116147619Y-76054819D01*
X116147619Y-76054819D02*
X116242857Y-76054819D01*
X116242857Y-76054819D02*
X116385714Y-76102438D01*
X116385714Y-76102438D02*
X116433333Y-76150057D01*
X116909524Y-77054819D02*
X117100000Y-77054819D01*
X117100000Y-77054819D02*
X117195238Y-77007200D01*
X117195238Y-77007200D02*
X117242857Y-76959580D01*
X117242857Y-76959580D02*
X117338095Y-76816723D01*
X117338095Y-76816723D02*
X117385714Y-76626247D01*
X117385714Y-76626247D02*
X117385714Y-76245295D01*
X117385714Y-76245295D02*
X117338095Y-76150057D01*
X117338095Y-76150057D02*
X117290476Y-76102438D01*
X117290476Y-76102438D02*
X117195238Y-76054819D01*
X117195238Y-76054819D02*
X117004762Y-76054819D01*
X117004762Y-76054819D02*
X116909524Y-76102438D01*
X116909524Y-76102438D02*
X116861905Y-76150057D01*
X116861905Y-76150057D02*
X116814286Y-76245295D01*
X116814286Y-76245295D02*
X116814286Y-76483390D01*
X116814286Y-76483390D02*
X116861905Y-76578628D01*
X116861905Y-76578628D02*
X116909524Y-76626247D01*
X116909524Y-76626247D02*
X117004762Y-76673866D01*
X117004762Y-76673866D02*
X117195238Y-76673866D01*
X117195238Y-76673866D02*
X117290476Y-76626247D01*
X117290476Y-76626247D02*
X117338095Y-76578628D01*
X117338095Y-76578628D02*
X117385714Y-76483390D01*
X130466666Y-44174819D02*
X130466666Y-44889104D01*
X130466666Y-44889104D02*
X130419047Y-45031961D01*
X130419047Y-45031961D02*
X130323809Y-45127200D01*
X130323809Y-45127200D02*
X130180952Y-45174819D01*
X130180952Y-45174819D02*
X130085714Y-45174819D01*
X131466666Y-45174819D02*
X130895238Y-45174819D01*
X131180952Y-45174819D02*
X131180952Y-44174819D01*
X131180952Y-44174819D02*
X131085714Y-44317676D01*
X131085714Y-44317676D02*
X130990476Y-44412914D01*
X130990476Y-44412914D02*
X130895238Y-44460533D01*
X102454819Y-106166666D02*
X101978628Y-106499999D01*
X102454819Y-106738094D02*
X101454819Y-106738094D01*
X101454819Y-106738094D02*
X101454819Y-106357142D01*
X101454819Y-106357142D02*
X101502438Y-106261904D01*
X101502438Y-106261904D02*
X101550057Y-106214285D01*
X101550057Y-106214285D02*
X101645295Y-106166666D01*
X101645295Y-106166666D02*
X101788152Y-106166666D01*
X101788152Y-106166666D02*
X101883390Y-106214285D01*
X101883390Y-106214285D02*
X101931009Y-106261904D01*
X101931009Y-106261904D02*
X101978628Y-106357142D01*
X101978628Y-106357142D02*
X101978628Y-106738094D01*
X101788152Y-105309523D02*
X102454819Y-105309523D01*
X101407200Y-105547618D02*
X102121485Y-105785713D01*
X102121485Y-105785713D02*
X102121485Y-105166666D01*
X79666666Y-44174819D02*
X79666666Y-44889104D01*
X79666666Y-44889104D02*
X79619047Y-45031961D01*
X79619047Y-45031961D02*
X79523809Y-45127200D01*
X79523809Y-45127200D02*
X79380952Y-45174819D01*
X79380952Y-45174819D02*
X79285714Y-45174819D01*
X80047619Y-44174819D02*
X80666666Y-44174819D01*
X80666666Y-44174819D02*
X80333333Y-44555771D01*
X80333333Y-44555771D02*
X80476190Y-44555771D01*
X80476190Y-44555771D02*
X80571428Y-44603390D01*
X80571428Y-44603390D02*
X80619047Y-44651009D01*
X80619047Y-44651009D02*
X80666666Y-44746247D01*
X80666666Y-44746247D02*
X80666666Y-44984342D01*
X80666666Y-44984342D02*
X80619047Y-45079580D01*
X80619047Y-45079580D02*
X80571428Y-45127200D01*
X80571428Y-45127200D02*
X80476190Y-45174819D01*
X80476190Y-45174819D02*
X80190476Y-45174819D01*
X80190476Y-45174819D02*
X80095238Y-45127200D01*
X80095238Y-45127200D02*
X80047619Y-45079580D01*
D12*
%TO.C,JP10*%
X102875001Y-59000000D02*
X105675001Y-59000000D01*
X102875001Y-61000000D02*
X102875001Y-59000000D01*
X105675001Y-59000000D02*
X105675001Y-61000000D01*
X105675001Y-61000000D02*
X102875001Y-61000000D01*
%TO.C,JP9*%
X102875001Y-56000000D02*
X105675001Y-56000000D01*
X102875001Y-58000000D02*
X102875001Y-56000000D01*
X105675001Y-56000000D02*
X105675001Y-58000000D01*
X105675001Y-58000000D02*
X102875001Y-58000000D01*
%TO.C,JP8*%
X102875000Y-53000000D02*
X105675000Y-53000000D01*
X102875000Y-55000000D02*
X102875000Y-53000000D01*
X105675000Y-53000000D02*
X105675000Y-55000000D01*
X105675000Y-55000000D02*
X102875000Y-55000000D01*
%TO.C,JP7*%
X102875001Y-50000000D02*
X105675001Y-50000000D01*
X102875001Y-52000000D02*
X102875001Y-50000000D01*
X105675001Y-50000000D02*
X105675001Y-52000000D01*
X105675001Y-52000000D02*
X102875001Y-52000000D01*
%TO.C,JP6*%
X101675000Y-61000000D02*
X98875000Y-61000000D01*
X101675000Y-59000000D02*
X101675000Y-61000000D01*
X98875000Y-61000000D02*
X98875000Y-59000000D01*
X98875000Y-59000000D02*
X101675000Y-59000000D01*
%TO.C,JP5*%
X101675001Y-58000000D02*
X98875001Y-58000000D01*
X101675001Y-56000000D02*
X101675001Y-58000000D01*
X98875001Y-58000000D02*
X98875001Y-56000000D01*
X98875001Y-56000000D02*
X101675001Y-56000000D01*
%TO.C,JP4*%
X101675000Y-55000000D02*
X98875000Y-55000000D01*
X101675000Y-53000000D02*
X101675000Y-55000000D01*
X98875000Y-55000000D02*
X98875000Y-53000000D01*
X98875000Y-53000000D02*
X101675000Y-53000000D01*
%TO.C,JP3*%
X101675001Y-52000000D02*
X98875001Y-52000000D01*
X101675001Y-50000000D02*
X101675001Y-52000000D01*
X98875001Y-52000000D02*
X98875001Y-50000000D01*
X98875001Y-50000000D02*
X101675001Y-50000000D01*
%TO.C,C3*%
X117265000Y-114261253D02*
X117265000Y-113738747D01*
X118735000Y-114261253D02*
X118735000Y-113738747D01*
%TO.C,C2*%
X108688748Y-105265000D02*
X109211252Y-105265000D01*
X108688748Y-106735000D02*
X109211252Y-106735000D01*
%TO.C,C4*%
X107788748Y-122714999D02*
X108311254Y-122714999D01*
X107788748Y-124184999D02*
X108311254Y-124184999D01*
%TO.C,C6*%
X107688746Y-125265000D02*
X108211252Y-125265000D01*
X107688746Y-126735000D02*
X108211252Y-126735000D01*
%TO.C,R2*%
X117685436Y-107265000D02*
X118139564Y-107265000D01*
X117685436Y-108735000D02*
X118139564Y-108735000D01*
%TO.C,U1*%
X102515000Y-112065000D02*
X102515000Y-111755000D01*
X102515000Y-117735000D02*
X102515000Y-117185000D01*
X103065000Y-111515000D02*
X102815000Y-111515000D01*
X103065000Y-117735000D02*
X102515000Y-117735000D01*
X108185000Y-111515000D02*
X108735000Y-111515000D01*
X108185000Y-117735000D02*
X108735000Y-117735000D01*
X108735000Y-111515000D02*
X108735000Y-112065000D01*
X108735000Y-117735000D02*
X108735000Y-117185000D01*
X102515000Y-111515000D02*
X102275000Y-111185000D01*
X102755000Y-111185000D01*
X102515000Y-111515000D01*
G36*
X102515000Y-111515000D02*
G01*
X102275000Y-111185000D01*
X102755000Y-111185000D01*
X102515000Y-111515000D01*
G37*
%TO.C,R3*%
X111139564Y-97265000D02*
X110685436Y-97265000D01*
X111139564Y-98735000D02*
X110685436Y-98735000D01*
%TO.C,R1*%
X99735000Y-103314564D02*
X99735000Y-102860436D01*
X98265000Y-103314564D02*
X98265000Y-102860436D01*
%TO.C,C5*%
X111311254Y-103265000D02*
X110788748Y-103265000D01*
X111311254Y-104735000D02*
X110788748Y-104735000D01*
%TO.C,C8*%
X115265000Y-114311254D02*
X115265000Y-113788748D01*
X116735000Y-114311254D02*
X116735000Y-113788748D01*
%TO.C,C7*%
X111211252Y-101265000D02*
X110688746Y-101265000D01*
X111211252Y-102735000D02*
X110688746Y-102735000D01*
%TO.C,C9*%
X113840000Y-70140000D02*
X113840000Y-71840000D01*
X113840000Y-75660000D02*
X113840000Y-73960000D01*
X118295563Y-70140000D02*
X113840000Y-70140000D01*
X118295563Y-75660000D02*
X113840000Y-75660000D01*
X119360000Y-71204437D02*
X118295563Y-70140000D01*
X119360000Y-71204437D02*
X119360000Y-71840000D01*
X119360000Y-74595563D02*
X118295563Y-75660000D01*
X119360000Y-74595563D02*
X119360000Y-73960000D01*
X119912500Y-74897500D02*
X119912500Y-74272500D01*
X120225000Y-74585000D02*
X119600000Y-74585000D01*
%TO.C,J1*%
X126215000Y-45610000D02*
X135385000Y-45610000D01*
X126215000Y-49790000D02*
X124715000Y-49790000D01*
X126215000Y-49790000D02*
X126215000Y-45610000D01*
X126215000Y-69590000D02*
X126215000Y-73770000D01*
X126215000Y-73770000D02*
X135385000Y-73770000D01*
X135385000Y-45610000D02*
X135385000Y-49790000D01*
X135385000Y-73770000D02*
X135385000Y-69590000D01*
%TO.C,R4*%
X101265000Y-103314564D02*
X101265000Y-102860436D01*
X102735000Y-103314564D02*
X102735000Y-102860436D01*
%TO.C,J3*%
X75415000Y-45610000D02*
X84585000Y-45610000D01*
X75415000Y-49790000D02*
X73915000Y-49790000D01*
X75415000Y-49790000D02*
X75415000Y-45610000D01*
X75415000Y-69590000D02*
X75415000Y-73770000D01*
X75415000Y-73770000D02*
X84585000Y-73770000D01*
X84585000Y-45610000D02*
X84585000Y-49790000D01*
X84585000Y-73770000D02*
X84585000Y-69590000D01*
%TD*%
M02*
