%TF.GenerationSoftware,KiCad,Pcbnew,8.0.5*%
%TF.CreationDate,2025-02-27T20:45:03-08:00*%
%TF.ProjectId,ledaray,6c656461-7261-4792-9e6b-696361645f70,rev?*%
%TF.SameCoordinates,Original*%
%TF.FileFunction,Drillmap*%
%TF.FilePolarity,Positive*%
%FSLAX45Y45*%
G04 Gerber Fmt 4.5, Leading zero omitted, Abs format (unit mm)*
G04 Created by KiCad (PCBNEW 8.0.5) date 2025-02-27 20:45:03*
%MOMM*%
%LPD*%
G01*
G04 APERTURE LIST*
%ADD10C,0.050000*%
%ADD11C,0.200000*%
%ADD12C,0.100000*%
G04 APERTURE END LIST*
D10*
X7500000Y-14000000D02*
X13500000Y-14000000D01*
X14000000Y-13500000D02*
G75*
G02*
X13500000Y-14000000I-500000J0D01*
G01*
X7000000Y-4500000D02*
X7000000Y-13500000D01*
X7000000Y-4500000D02*
G75*
G02*
X7500000Y-4000000I500000J0D01*
G01*
X7500000Y-14000000D02*
G75*
G02*
X7000000Y-13500000I0J500000D01*
G01*
X13500000Y-4000000D02*
G75*
G02*
X14000000Y-4500000I0J-500000D01*
G01*
X7500000Y-4000000D02*
X13500000Y-4000000D01*
X14000000Y-4500000D02*
X14000000Y-13500000D01*
D11*
D12*
X7625000Y-8785000D02*
X7655000Y-8815000D01*
X7655000Y-8785000D02*
X7625000Y-8815000D01*
X7645000Y-7025000D02*
X7675000Y-7055000D01*
X7675000Y-7025000D02*
X7645000Y-7055000D01*
X7715000Y-11495000D02*
X7745000Y-11525000D01*
X7745000Y-11495000D02*
X7715000Y-11525000D01*
X7755000Y-12455000D02*
X7785000Y-12485000D01*
X7785000Y-12455000D02*
X7755000Y-12485000D01*
X7775000Y-7025000D02*
X7805000Y-7055000D01*
X7805000Y-7025000D02*
X7775000Y-7055000D01*
X7835000Y-4945000D02*
X7865000Y-4975000D01*
X7865000Y-4945000D02*
X7835000Y-4975000D01*
X7859000Y-5700000D02*
X7889000Y-5730000D01*
X7889000Y-5700000D02*
X7859000Y-5730000D01*
X7875000Y-7025000D02*
X7905000Y-7055000D01*
X7905000Y-7025000D02*
X7875000Y-7055000D01*
X7875000Y-8995000D02*
X7905000Y-9025000D01*
X7905000Y-8995000D02*
X7875000Y-9025000D01*
X7915000Y-6355000D02*
X7945000Y-6385000D01*
X7945000Y-6355000D02*
X7915000Y-6385000D01*
X7925000Y-11825000D02*
X7955000Y-11855000D01*
X7955000Y-11825000D02*
X7925000Y-11855000D01*
X7945000Y-5985000D02*
X7975000Y-6015000D01*
X7975000Y-5985000D02*
X7945000Y-6015000D01*
X7965000Y-5315000D02*
X7995000Y-5345000D01*
X7995000Y-5315000D02*
X7965000Y-5345000D01*
X7986000Y-5446000D02*
X8016000Y-5476000D01*
X8016000Y-5446000D02*
X7986000Y-5476000D01*
X8005000Y-8325000D02*
X8035000Y-8355000D01*
X8035000Y-8325000D02*
X8005000Y-8355000D01*
X8095000Y-11474048D02*
X8125000Y-11504048D01*
X8125000Y-11474048D02*
X8095000Y-11504048D01*
X8115000Y-4405000D02*
X8145000Y-4435000D01*
X8145000Y-4405000D02*
X8115000Y-4435000D01*
X8115000Y-4635000D02*
X8145000Y-4665000D01*
X8145000Y-4635000D02*
X8115000Y-4665000D01*
X8195000Y-8305000D02*
X8225000Y-8335000D01*
X8225000Y-8305000D02*
X8195000Y-8335000D01*
X8223867Y-7613867D02*
X8253867Y-7643867D01*
X8253867Y-7613867D02*
X8223867Y-7643867D01*
X8225000Y-12835000D02*
X8255000Y-12865000D01*
X8255000Y-12835000D02*
X8225000Y-12865000D01*
X8235000Y-12095000D02*
X8265000Y-12125000D01*
X8265000Y-12095000D02*
X8235000Y-12125000D01*
X8355000Y-11435000D02*
X8385000Y-11465000D01*
X8385000Y-11435000D02*
X8355000Y-11465000D01*
X8365000Y-4475000D02*
X8395000Y-4505000D01*
X8395000Y-4475000D02*
X8365000Y-4505000D01*
X8385000Y-8315000D02*
X8415000Y-8345000D01*
X8415000Y-8315000D02*
X8385000Y-8345000D01*
X8405000Y-7605000D02*
X8435000Y-7635000D01*
X8435000Y-7605000D02*
X8405000Y-7635000D01*
X8435000Y-12785000D02*
X8465000Y-12815000D01*
X8465000Y-12785000D02*
X8435000Y-12815000D01*
X8435000Y-13125000D02*
X8465000Y-13155000D01*
X8465000Y-13125000D02*
X8435000Y-13155000D01*
X8495000Y-11795000D02*
X8525000Y-11825000D01*
X8525000Y-11795000D02*
X8495000Y-11825000D01*
X8615000Y-4495000D02*
X8645000Y-4525000D01*
X8645000Y-4495000D02*
X8615000Y-4525000D01*
X8625000Y-8615000D02*
X8655000Y-8645000D01*
X8655000Y-8615000D02*
X8625000Y-8645000D01*
X8655000Y-11345000D02*
X8685000Y-11375000D01*
X8685000Y-11345000D02*
X8655000Y-11375000D01*
X8675000Y-5085000D02*
X8705000Y-5115000D01*
X8705000Y-5085000D02*
X8675000Y-5115000D01*
X8675000Y-5355000D02*
X8705000Y-5385000D01*
X8705000Y-5355000D02*
X8675000Y-5385000D01*
X8675000Y-5615000D02*
X8705000Y-5645000D01*
X8705000Y-5615000D02*
X8675000Y-5645000D01*
X8675000Y-5895000D02*
X8705000Y-5925000D01*
X8705000Y-5895000D02*
X8675000Y-5925000D01*
X8675000Y-6105000D02*
X8705000Y-6135000D01*
X8705000Y-6105000D02*
X8675000Y-6135000D01*
X8675000Y-6395000D02*
X8705000Y-6425000D01*
X8705000Y-6395000D02*
X8675000Y-6425000D01*
X8675000Y-6585000D02*
X8705000Y-6615000D01*
X8705000Y-6585000D02*
X8675000Y-6615000D01*
X8685000Y-6845000D02*
X8715000Y-6875000D01*
X8715000Y-6845000D02*
X8685000Y-6875000D01*
X8705000Y-8395000D02*
X8735000Y-8425000D01*
X8735000Y-8395000D02*
X8705000Y-8425000D01*
X8735000Y-11352566D02*
X8765000Y-11382566D01*
X8765000Y-11352566D02*
X8735000Y-11382566D01*
X8795000Y-12785000D02*
X8825000Y-12815000D01*
X8825000Y-12785000D02*
X8795000Y-12815000D01*
X8855000Y-4495000D02*
X8885000Y-4525000D01*
X8885000Y-4495000D02*
X8855000Y-4525000D01*
X8885000Y-11555000D02*
X8915000Y-11585000D01*
X8915000Y-11555000D02*
X8885000Y-11585000D01*
X8915000Y-4745000D02*
X8945000Y-4775000D01*
X8945000Y-4745000D02*
X8915000Y-4775000D01*
X9055000Y-11455000D02*
X9085000Y-11485000D01*
X9085000Y-11455000D02*
X9055000Y-11485000D01*
X9058200Y-8295000D02*
X9088200Y-8325000D01*
X9088200Y-8295000D02*
X9058200Y-8325000D01*
X9065000Y-11075000D02*
X9095000Y-11105000D01*
X9095000Y-11075000D02*
X9065000Y-11105000D01*
X9115000Y-8475000D02*
X9145000Y-8505000D01*
X9145000Y-8475000D02*
X9115000Y-8505000D01*
X9125000Y-7625000D02*
X9155000Y-7655000D01*
X9155000Y-7625000D02*
X9125000Y-7655000D01*
X9165162Y-11805000D02*
X9195162Y-11835000D01*
X9195162Y-11805000D02*
X9165162Y-11835000D01*
X9225000Y-4345000D02*
X9255000Y-4375000D01*
X9255000Y-4345000D02*
X9225000Y-4375000D01*
X9225000Y-4665000D02*
X9255000Y-4695000D01*
X9255000Y-4665000D02*
X9225000Y-4695000D01*
X9225020Y-12855000D02*
X9255020Y-12885000D01*
X9255020Y-12855000D02*
X9225020Y-12885000D01*
X9235000Y-13505000D02*
X9265000Y-13535000D01*
X9265000Y-13505000D02*
X9235000Y-13535000D01*
X9281551Y-12785000D02*
X9311551Y-12815000D01*
X9311551Y-12785000D02*
X9281551Y-12815000D01*
X9310566Y-12995586D02*
X9340566Y-13025586D01*
X9340566Y-12995586D02*
X9310566Y-13025586D01*
X9357478Y-13505000D02*
X9387478Y-13535000D01*
X9387478Y-13505000D02*
X9357478Y-13535000D01*
X9359625Y-13065000D02*
X9389625Y-13095000D01*
X9389625Y-13065000D02*
X9359625Y-13095000D01*
X9375000Y-4585000D02*
X9405000Y-4615000D01*
X9405000Y-4585000D02*
X9375000Y-4615000D01*
X9379993Y-11590007D02*
X9409993Y-11620007D01*
X9409993Y-11590007D02*
X9379993Y-11620007D01*
X9380955Y-11499045D02*
X9410955Y-11529045D01*
X9410955Y-11499045D02*
X9380955Y-11529045D01*
X9415000Y-12605000D02*
X9445000Y-12635000D01*
X9445000Y-12605000D02*
X9415000Y-12635000D01*
X9461271Y-12749661D02*
X9491271Y-12779661D01*
X9491271Y-12749661D02*
X9461271Y-12779661D01*
X9464642Y-11490809D02*
X9494642Y-11520809D01*
X9494642Y-11490809D02*
X9464642Y-11520809D01*
X9485000Y-4385000D02*
X9515000Y-4415000D01*
X9515000Y-4385000D02*
X9485000Y-4415000D01*
X9485000Y-11875000D02*
X9515000Y-11905000D01*
X9515000Y-11875000D02*
X9485000Y-11905000D01*
X9489584Y-11409551D02*
X9519584Y-11439551D01*
X9519584Y-11409551D02*
X9489584Y-11439551D01*
X9500173Y-11321144D02*
X9530173Y-11351144D01*
X9530173Y-11321144D02*
X9500173Y-11351144D01*
X9515000Y-4485000D02*
X9545000Y-4515000D01*
X9545000Y-4485000D02*
X9515000Y-4515000D01*
X9515000Y-4755000D02*
X9545000Y-4785000D01*
X9545000Y-4755000D02*
X9515000Y-4785000D01*
X9515000Y-11165000D02*
X9545000Y-11195000D01*
X9545000Y-11165000D02*
X9515000Y-11195000D01*
X9515000Y-11795000D02*
X9545000Y-11825000D01*
X9545000Y-11795000D02*
X9515000Y-11825000D01*
X9545000Y-7025000D02*
X9575000Y-7055000D01*
X9575000Y-7025000D02*
X9545000Y-7055000D01*
X9545962Y-11045962D02*
X9575962Y-11075962D01*
X9575962Y-11045962D02*
X9545962Y-11075962D01*
X9555000Y-6185000D02*
X9585000Y-6215000D01*
X9585000Y-6185000D02*
X9555000Y-6215000D01*
X9565000Y-4565000D02*
X9595000Y-4595000D01*
X9595000Y-4565000D02*
X9565000Y-4595000D01*
X9565000Y-12095000D02*
X9595000Y-12125000D01*
X9595000Y-12095000D02*
X9565000Y-12125000D01*
X9565000Y-12605000D02*
X9595000Y-12635000D01*
X9595000Y-12605000D02*
X9565000Y-12635000D01*
X9565000Y-13395000D02*
X9595000Y-13425000D01*
X9595000Y-13395000D02*
X9565000Y-13425000D01*
X9725000Y-11355000D02*
X9755000Y-11385000D01*
X9755000Y-11355000D02*
X9725000Y-11385000D01*
X9845000Y-6250000D02*
X9875000Y-6280000D01*
X9875000Y-6250000D02*
X9845000Y-6280000D01*
X9885000Y-10075000D02*
X9915000Y-10105000D01*
X9915000Y-10075000D02*
X9885000Y-10105000D01*
X10077616Y-11729938D02*
X10107616Y-11759938D01*
X10107616Y-11729938D02*
X10077616Y-11759938D01*
X10085000Y-6185000D02*
X10115000Y-6215000D01*
X10115000Y-6185000D02*
X10085000Y-6215000D01*
X10185000Y-5085000D02*
X10215000Y-5115000D01*
X10215000Y-5085000D02*
X10185000Y-5115000D01*
X10185000Y-5385000D02*
X10215000Y-5415000D01*
X10215000Y-5385000D02*
X10185000Y-5415000D01*
X10185000Y-5685000D02*
X10215000Y-5715000D01*
X10215000Y-5685000D02*
X10185000Y-5715000D01*
X10185000Y-10055000D02*
X10215000Y-10085000D01*
X10215000Y-10055000D02*
X10185000Y-10085000D01*
X10240731Y-12600731D02*
X10270731Y-12630731D01*
X10270731Y-12600731D02*
X10240731Y-12630731D01*
X10272500Y-11031250D02*
X10302500Y-11061250D01*
X10302500Y-11031250D02*
X10272500Y-11061250D01*
X10335459Y-12604999D02*
X10365459Y-12634999D01*
X10365459Y-12604999D02*
X10335459Y-12634999D01*
X10375000Y-9765000D02*
X10405000Y-9795000D01*
X10405000Y-9765000D02*
X10375000Y-9795000D01*
X10375000Y-11285000D02*
X10405000Y-11315000D01*
X10405000Y-11285000D02*
X10375000Y-11315000D01*
X10375000Y-11395000D02*
X10405000Y-11425000D01*
X10405000Y-11395000D02*
X10375000Y-11425000D01*
X10375000Y-11515000D02*
X10405000Y-11545000D01*
X10405000Y-11515000D02*
X10375000Y-11545000D01*
X10375000Y-11625000D02*
X10405000Y-11655000D01*
X10405000Y-11625000D02*
X10375000Y-11655000D01*
X10385000Y-12700000D02*
X10415000Y-12730000D01*
X10415000Y-12700000D02*
X10385000Y-12730000D01*
X10405000Y-12465000D02*
X10435000Y-12495000D01*
X10435000Y-12465000D02*
X10405000Y-12495000D01*
X10475000Y-11285000D02*
X10505000Y-11315000D01*
X10505000Y-11285000D02*
X10475000Y-11315000D01*
X10475000Y-11395000D02*
X10505000Y-11425000D01*
X10505000Y-11395000D02*
X10475000Y-11425000D01*
X10475000Y-11515000D02*
X10505000Y-11545000D01*
X10505000Y-11515000D02*
X10475000Y-11545000D01*
X10475000Y-11625000D02*
X10505000Y-11655000D01*
X10505000Y-11625000D02*
X10475000Y-11655000D01*
X10585000Y-11285000D02*
X10615000Y-11315000D01*
X10615000Y-11285000D02*
X10585000Y-11315000D01*
X10585000Y-11395000D02*
X10615000Y-11425000D01*
X10615000Y-11395000D02*
X10585000Y-11425000D01*
X10585000Y-11515000D02*
X10615000Y-11545000D01*
X10615000Y-11515000D02*
X10585000Y-11545000D01*
X10585000Y-11625000D02*
X10615000Y-11655000D01*
X10615000Y-11625000D02*
X10585000Y-11655000D01*
X10631271Y-13010000D02*
X10661271Y-13040000D01*
X10661271Y-13010000D02*
X10631271Y-13040000D01*
X10685000Y-11285000D02*
X10715000Y-11315000D01*
X10715000Y-11285000D02*
X10685000Y-11315000D01*
X10685000Y-11395000D02*
X10715000Y-11425000D01*
X10715000Y-11395000D02*
X10685000Y-11425000D01*
X10685000Y-11515000D02*
X10715000Y-11545000D01*
X10715000Y-11515000D02*
X10685000Y-11545000D01*
X10685000Y-11625000D02*
X10715000Y-11655000D01*
X10715000Y-11625000D02*
X10685000Y-11655000D01*
X10755000Y-9765000D02*
X10785000Y-9795000D01*
X10785000Y-9765000D02*
X10755000Y-9795000D01*
X10785000Y-13285000D02*
X10815000Y-13315000D01*
X10815000Y-13285000D02*
X10785000Y-13315000D01*
X10865000Y-10185000D02*
X10895000Y-10215000D01*
X10895000Y-10185000D02*
X10865000Y-10215000D01*
X10885000Y-10385000D02*
X10915000Y-10415000D01*
X10915000Y-10385000D02*
X10885000Y-10415000D01*
X10885000Y-13285000D02*
X10915000Y-13315000D01*
X10915000Y-13285000D02*
X10885000Y-13315000D01*
X10985000Y-13285000D02*
X11015000Y-13315000D01*
X11015000Y-13285000D02*
X10985000Y-13315000D01*
X11015000Y-11287500D02*
X11045000Y-11317500D01*
X11045000Y-11287500D02*
X11015000Y-11317500D01*
X11025000Y-12335000D02*
X11055000Y-12365000D01*
X11055000Y-12335000D02*
X11025000Y-12365000D01*
X11035000Y-12505000D02*
X11065000Y-12535000D01*
X11065000Y-12505000D02*
X11035000Y-12535000D01*
X11045000Y-12145000D02*
X11075000Y-12175000D01*
X11075000Y-12145000D02*
X11045000Y-12175000D01*
X11075000Y-10545000D02*
X11105000Y-10575000D01*
X11105000Y-10545000D02*
X11075000Y-10575000D01*
X11095000Y-5435000D02*
X11125000Y-5465000D01*
X11125000Y-5435000D02*
X11095000Y-5465000D01*
X11185000Y-12155000D02*
X11215000Y-12185000D01*
X11215000Y-12155000D02*
X11185000Y-12185000D01*
X11199328Y-12238784D02*
X11229328Y-12268784D01*
X11229328Y-12238784D02*
X11199328Y-12268784D01*
X11241009Y-5685000D02*
X11271009Y-5715000D01*
X11271009Y-5685000D02*
X11241009Y-5715000D01*
X11245000Y-12860000D02*
X11275000Y-12890000D01*
X11275000Y-12860000D02*
X11245000Y-12890000D01*
X11285000Y-5195000D02*
X11315000Y-5225000D01*
X11315000Y-5195000D02*
X11285000Y-5225000D01*
X11315000Y-9105000D02*
X11345000Y-9135000D01*
X11345000Y-9105000D02*
X11315000Y-9135000D01*
X11315000Y-9235001D02*
X11345000Y-9265001D01*
X11345000Y-9235001D02*
X11315000Y-9265001D01*
X11315000Y-9375000D02*
X11345000Y-9405000D01*
X11345000Y-9375000D02*
X11315000Y-9405000D01*
X11315000Y-9475000D02*
X11345000Y-9505000D01*
X11345000Y-9475000D02*
X11315000Y-9505000D01*
X11335000Y-4415000D02*
X11365000Y-4445000D01*
X11365000Y-4415000D02*
X11335000Y-4445000D01*
X11345000Y-5965000D02*
X11375000Y-5995000D01*
X11375000Y-5965000D02*
X11345000Y-5995000D01*
X11370000Y-13285000D02*
X11400000Y-13315000D01*
X11400000Y-13285000D02*
X11370000Y-13315000D01*
X11427500Y-13227500D02*
X11457500Y-13257500D01*
X11457500Y-13227500D02*
X11427500Y-13257500D01*
X11485000Y-13170000D02*
X11515000Y-13200000D01*
X11515000Y-13170000D02*
X11485000Y-13200000D01*
X11515000Y-12805000D02*
X11545000Y-12835000D01*
X11545000Y-12805000D02*
X11515000Y-12835000D01*
X11533265Y-4459652D02*
X11563265Y-4489652D01*
X11563265Y-4459652D02*
X11533265Y-4489652D01*
X11555000Y-7615000D02*
X11585000Y-7645000D01*
X11585000Y-7615000D02*
X11555000Y-7645000D01*
X11555000Y-8985000D02*
X11585000Y-9015000D01*
X11585000Y-8985000D02*
X11555000Y-9015000D01*
X11559497Y-4540503D02*
X11589497Y-4570503D01*
X11589497Y-4540503D02*
X11559497Y-4570503D01*
X11584999Y-11185000D02*
X11614999Y-11215000D01*
X11614999Y-11185000D02*
X11584999Y-11215000D01*
X11615000Y-6826798D02*
X11645000Y-6856798D01*
X11645000Y-6826798D02*
X11615000Y-6856798D01*
X11625000Y-13625000D02*
X11655000Y-13655000D01*
X11655000Y-13625000D02*
X11625000Y-13655000D01*
X11665000Y-5005000D02*
X11695000Y-5035000D01*
X11695000Y-5005000D02*
X11665000Y-5035000D01*
X11714101Y-6925899D02*
X11744101Y-6955899D01*
X11744101Y-6925899D02*
X11714101Y-6955899D01*
X11725000Y-11845000D02*
X11755000Y-11875000D01*
X11755000Y-11845000D02*
X11725000Y-11875000D01*
X11765000Y-6435000D02*
X11795000Y-6465000D01*
X11795000Y-6435000D02*
X11765000Y-6465000D01*
X11768125Y-11678054D02*
X11798125Y-11708054D01*
X11798125Y-11678054D02*
X11768125Y-11708054D01*
X11778060Y-11779913D02*
X11808060Y-11809913D01*
X11808060Y-11779913D02*
X11778060Y-11809913D01*
X11779553Y-13195877D02*
X11809553Y-13225877D01*
X11809553Y-13195877D02*
X11779553Y-13225877D01*
X11785000Y-11175000D02*
X11815000Y-11205000D01*
X11815000Y-11175000D02*
X11785000Y-11205000D01*
X11825000Y-4645000D02*
X11855000Y-4675000D01*
X11855000Y-4645000D02*
X11825000Y-4675000D01*
X11845000Y-8805000D02*
X11875000Y-8835000D01*
X11875000Y-8805000D02*
X11845000Y-8835000D01*
X11865000Y-13425000D02*
X11895000Y-13455000D01*
X11895000Y-13425000D02*
X11865000Y-13455000D01*
X11867500Y-10645000D02*
X11897500Y-10675000D01*
X11897500Y-10645000D02*
X11867500Y-10675000D01*
X11875000Y-6435000D02*
X11905000Y-6465000D01*
X11905000Y-6435000D02*
X11875000Y-6465000D01*
X11894497Y-7764497D02*
X11924497Y-7794497D01*
X11924497Y-7764497D02*
X11894497Y-7794497D01*
X11945000Y-13105000D02*
X11975000Y-13135000D01*
X11975000Y-13105000D02*
X11945000Y-13135000D01*
X11975000Y-6435000D02*
X12005000Y-6465000D01*
X12005000Y-6435000D02*
X11975000Y-6465000D01*
X12025000Y-11265000D02*
X12055000Y-11295000D01*
X12055000Y-11265000D02*
X12025000Y-11295000D01*
X12035000Y-11375000D02*
X12065000Y-11405000D01*
X12065000Y-11375000D02*
X12035000Y-11405000D01*
X12061601Y-11756814D02*
X12091601Y-11786814D01*
X12091601Y-11756814D02*
X12061601Y-11786814D01*
X12109352Y-4511653D02*
X12139352Y-4541653D01*
X12139352Y-4511653D02*
X12109352Y-4541653D01*
X12112800Y-7735000D02*
X12142800Y-7765000D01*
X12142800Y-7735000D02*
X12112800Y-7765000D01*
X12131601Y-11825000D02*
X12161601Y-11855000D01*
X12161601Y-11825000D02*
X12131601Y-11855000D01*
X12145000Y-12585000D02*
X12175000Y-12615000D01*
X12175000Y-12585000D02*
X12145000Y-12615000D01*
X12198284Y-12887279D02*
X12228284Y-12917279D01*
X12228284Y-12887279D02*
X12198284Y-12917279D01*
X12225000Y-4495000D02*
X12255000Y-4525000D01*
X12255000Y-4495000D02*
X12225000Y-4525000D01*
X12285000Y-12672424D02*
X12315000Y-12702424D01*
X12315000Y-12672424D02*
X12285000Y-12702424D01*
X12303000Y-12925000D02*
X12333000Y-12955000D01*
X12333000Y-12925000D02*
X12303000Y-12955000D01*
X12305000Y-7715000D02*
X12335000Y-7745000D01*
X12335000Y-7715000D02*
X12305000Y-7745000D01*
X12355000Y-8615000D02*
X12385000Y-8645000D01*
X12385000Y-8615000D02*
X12355000Y-8645000D01*
X12375000Y-7005000D02*
X12405000Y-7035000D01*
X12405000Y-7005000D02*
X12375000Y-7035000D01*
X12375000Y-13015000D02*
X12405000Y-13045000D01*
X12405000Y-13015000D02*
X12375000Y-13045000D01*
X12390000Y-5825000D02*
X12420000Y-5855000D01*
X12420000Y-5825000D02*
X12390000Y-5855000D01*
X12390000Y-6085000D02*
X12420000Y-6115000D01*
X12420000Y-6085000D02*
X12390000Y-6115000D01*
X12390000Y-6335000D02*
X12420000Y-6365000D01*
X12420000Y-6335000D02*
X12390000Y-6365000D01*
X12395000Y-5065000D02*
X12425000Y-5095000D01*
X12425000Y-5065000D02*
X12395000Y-5095000D01*
X12395000Y-5575000D02*
X12425000Y-5605000D01*
X12425000Y-5575000D02*
X12395000Y-5605000D01*
X12405000Y-5305000D02*
X12435000Y-5335000D01*
X12435000Y-5305000D02*
X12405000Y-5335000D01*
X12455000Y-7725000D02*
X12485000Y-7755000D01*
X12485000Y-7725000D02*
X12455000Y-7755000D01*
X12468241Y-4485428D02*
X12498241Y-4515428D01*
X12498241Y-4485428D02*
X12468241Y-4515428D01*
X12505000Y-7005000D02*
X12535000Y-7035000D01*
X12535000Y-7005000D02*
X12505000Y-7035000D01*
X12585502Y-12705502D02*
X12615502Y-12735502D01*
X12615502Y-12705502D02*
X12585502Y-12735502D01*
X12595000Y-4728195D02*
X12625000Y-4758195D01*
X12625000Y-4728195D02*
X12595000Y-4758195D01*
X12605000Y-7005000D02*
X12635000Y-7035000D01*
X12635000Y-7005000D02*
X12605000Y-7035000D01*
X12625000Y-8375000D02*
X12655000Y-8405000D01*
X12655000Y-8375000D02*
X12625000Y-8405000D01*
X12625000Y-11775859D02*
X12655000Y-11805859D01*
X12655000Y-11775859D02*
X12625000Y-11805859D01*
X12625000Y-13085000D02*
X12655000Y-13115000D01*
X12655000Y-13085000D02*
X12625000Y-13115000D01*
X12805000Y-11385000D02*
X12835000Y-11415000D01*
X12835000Y-11385000D02*
X12805000Y-11415000D01*
X12805000Y-13155000D02*
X12835000Y-13185000D01*
X12835000Y-13155000D02*
X12805000Y-13185000D01*
X12835000Y-13485000D02*
X12865000Y-13515000D01*
X12865000Y-13485000D02*
X12835000Y-13515000D01*
X12881000Y-11289000D02*
X12911000Y-11319000D01*
X12911000Y-11289000D02*
X12881000Y-11319000D01*
X12951000Y-8269857D02*
X12981000Y-8299857D01*
X12981000Y-8269857D02*
X12951000Y-8299857D01*
X12955000Y-13545000D02*
X12985000Y-13575000D01*
X12985000Y-13545000D02*
X12955000Y-13575000D01*
X12965000Y-12005000D02*
X12995000Y-12035000D01*
X12995000Y-12005000D02*
X12965000Y-12035000D01*
X13115000Y-11649497D02*
X13145000Y-11679497D01*
X13145000Y-11649497D02*
X13115000Y-11679497D01*
X13205000Y-8485000D02*
X13235000Y-8515000D01*
X13235000Y-8485000D02*
X13205000Y-8515000D01*
X13205000Y-12865000D02*
X13235000Y-12895000D01*
X13235000Y-12865000D02*
X13205000Y-12895000D01*
X13265025Y-12205000D02*
X13295025Y-12235000D01*
X13295025Y-12205000D02*
X13265025Y-12235000D01*
X13365000Y-12105000D02*
X13395000Y-12135000D01*
X13395000Y-12105000D02*
X13365000Y-12135000D01*
X13405000Y-8145000D02*
X13435000Y-8175000D01*
X13435000Y-8145000D02*
X13405000Y-8175000D01*
X13765000Y-5825000D02*
X13795000Y-5855000D01*
X13795000Y-5825000D02*
X13765000Y-5855000D01*
X13765000Y-6105000D02*
X13795000Y-6135000D01*
X13795000Y-6105000D02*
X13765000Y-6135000D01*
X13785000Y-6325000D02*
X13815000Y-6355000D01*
X13815000Y-6325000D02*
X13785000Y-6355000D01*
X13785000Y-6555000D02*
X13815000Y-6585000D01*
X13815000Y-6555000D02*
X13785000Y-6585000D01*
X13825000Y-5335000D02*
X13855000Y-5365000D01*
X13855000Y-5335000D02*
X13825000Y-5365000D01*
X13825000Y-6835000D02*
X13855000Y-6865000D01*
X13855000Y-6835000D02*
X13825000Y-6865000D01*
X13845000Y-5065000D02*
X13875000Y-5095000D01*
X13875000Y-5065000D02*
X13845000Y-5095000D01*
X13845000Y-5595000D02*
X13875000Y-5625000D01*
X13875000Y-5595000D02*
X13845000Y-5625000D01*
X7914100Y-4240000D02*
G75*
G02*
X7837900Y-4240000I-38100J0D01*
G01*
X7837900Y-4240000D02*
G75*
G02*
X7914100Y-4240000I38100J0D01*
G01*
X7914100Y-8050000D02*
G75*
G02*
X7837900Y-8050000I-38100J0D01*
G01*
X7837900Y-8050000D02*
G75*
G02*
X7914100Y-8050000I38100J0D01*
G01*
X7914100Y-9500000D02*
G75*
G02*
X7837900Y-9500000I-38100J0D01*
G01*
X7837900Y-9500000D02*
G75*
G02*
X7914100Y-9500000I38100J0D01*
G01*
X7914100Y-13310000D02*
G75*
G02*
X7837900Y-13310000I-38100J0D01*
G01*
X7837900Y-13310000D02*
G75*
G02*
X7914100Y-13310000I38100J0D01*
G01*
X8168100Y-4240000D02*
G75*
G02*
X8091900Y-4240000I-38100J0D01*
G01*
X8091900Y-4240000D02*
G75*
G02*
X8168100Y-4240000I38100J0D01*
G01*
X8168100Y-8050000D02*
G75*
G02*
X8091900Y-8050000I-38100J0D01*
G01*
X8091900Y-8050000D02*
G75*
G02*
X8168100Y-8050000I38100J0D01*
G01*
X8168100Y-9500000D02*
G75*
G02*
X8091900Y-9500000I-38100J0D01*
G01*
X8091900Y-9500000D02*
G75*
G02*
X8168100Y-9500000I38100J0D01*
G01*
X8168100Y-13310000D02*
G75*
G02*
X8091900Y-13310000I-38100J0D01*
G01*
X8091900Y-13310000D02*
G75*
G02*
X8168100Y-13310000I38100J0D01*
G01*
X8422100Y-4240000D02*
G75*
G02*
X8345900Y-4240000I-38100J0D01*
G01*
X8345900Y-4240000D02*
G75*
G02*
X8422100Y-4240000I38100J0D01*
G01*
X8422100Y-8050000D02*
G75*
G02*
X8345900Y-8050000I-38100J0D01*
G01*
X8345900Y-8050000D02*
G75*
G02*
X8422100Y-8050000I38100J0D01*
G01*
X8422100Y-9500000D02*
G75*
G02*
X8345900Y-9500000I-38100J0D01*
G01*
X8345900Y-9500000D02*
G75*
G02*
X8422100Y-9500000I38100J0D01*
G01*
X8422100Y-13310000D02*
G75*
G02*
X8345900Y-13310000I-38100J0D01*
G01*
X8345900Y-13310000D02*
G75*
G02*
X8422100Y-13310000I38100J0D01*
G01*
X8676100Y-4240000D02*
G75*
G02*
X8599900Y-4240000I-38100J0D01*
G01*
X8599900Y-4240000D02*
G75*
G02*
X8676100Y-4240000I38100J0D01*
G01*
X8676100Y-8050000D02*
G75*
G02*
X8599900Y-8050000I-38100J0D01*
G01*
X8599900Y-8050000D02*
G75*
G02*
X8676100Y-8050000I38100J0D01*
G01*
X8676100Y-9500000D02*
G75*
G02*
X8599900Y-9500000I-38100J0D01*
G01*
X8599900Y-9500000D02*
G75*
G02*
X8676100Y-9500000I38100J0D01*
G01*
X8676100Y-13310000D02*
G75*
G02*
X8599900Y-13310000I-38100J0D01*
G01*
X8599900Y-13310000D02*
G75*
G02*
X8676100Y-13310000I38100J0D01*
G01*
X8930100Y-4240000D02*
G75*
G02*
X8853900Y-4240000I-38100J0D01*
G01*
X8853900Y-4240000D02*
G75*
G02*
X8930100Y-4240000I38100J0D01*
G01*
X8930100Y-8050000D02*
G75*
G02*
X8853900Y-8050000I-38100J0D01*
G01*
X8853900Y-8050000D02*
G75*
G02*
X8930100Y-8050000I38100J0D01*
G01*
X8930100Y-9500000D02*
G75*
G02*
X8853900Y-9500000I-38100J0D01*
G01*
X8853900Y-9500000D02*
G75*
G02*
X8930100Y-9500000I38100J0D01*
G01*
X8930100Y-13310000D02*
G75*
G02*
X8853900Y-13310000I-38100J0D01*
G01*
X8853900Y-13310000D02*
G75*
G02*
X8930100Y-13310000I38100J0D01*
G01*
X9184100Y-4240000D02*
G75*
G02*
X9107900Y-4240000I-38100J0D01*
G01*
X9107900Y-4240000D02*
G75*
G02*
X9184100Y-4240000I38100J0D01*
G01*
X9184100Y-8050000D02*
G75*
G02*
X9107900Y-8050000I-38100J0D01*
G01*
X9107900Y-8050000D02*
G75*
G02*
X9184100Y-8050000I38100J0D01*
G01*
X9184100Y-9500000D02*
G75*
G02*
X9107900Y-9500000I-38100J0D01*
G01*
X9107900Y-9500000D02*
G75*
G02*
X9184100Y-9500000I38100J0D01*
G01*
X9184100Y-13310000D02*
G75*
G02*
X9107900Y-13310000I-38100J0D01*
G01*
X9107900Y-13310000D02*
G75*
G02*
X9184100Y-13310000I38100J0D01*
G01*
X9438100Y-4240000D02*
G75*
G02*
X9361900Y-4240000I-38100J0D01*
G01*
X9361900Y-4240000D02*
G75*
G02*
X9438100Y-4240000I38100J0D01*
G01*
X9438100Y-8050000D02*
G75*
G02*
X9361900Y-8050000I-38100J0D01*
G01*
X9361900Y-8050000D02*
G75*
G02*
X9438100Y-8050000I38100J0D01*
G01*
X9438100Y-9500000D02*
G75*
G02*
X9361900Y-9500000I-38100J0D01*
G01*
X9361900Y-9500000D02*
G75*
G02*
X9438100Y-9500000I38100J0D01*
G01*
X9438100Y-13310000D02*
G75*
G02*
X9361900Y-13310000I-38100J0D01*
G01*
X9361900Y-13310000D02*
G75*
G02*
X9438100Y-13310000I38100J0D01*
G01*
X11664100Y-4240000D02*
G75*
G02*
X11587900Y-4240000I-38100J0D01*
G01*
X11587900Y-4240000D02*
G75*
G02*
X11664100Y-4240000I38100J0D01*
G01*
X11664100Y-8050000D02*
G75*
G02*
X11587900Y-8050000I-38100J0D01*
G01*
X11587900Y-8050000D02*
G75*
G02*
X11664100Y-8050000I38100J0D01*
G01*
X11664100Y-9500000D02*
G75*
G02*
X11587900Y-9500000I-38100J0D01*
G01*
X11587900Y-9500000D02*
G75*
G02*
X11664100Y-9500000I38100J0D01*
G01*
X11664100Y-13310000D02*
G75*
G02*
X11587900Y-13310000I-38100J0D01*
G01*
X11587900Y-13310000D02*
G75*
G02*
X11664100Y-13310000I38100J0D01*
G01*
X11918100Y-4240000D02*
G75*
G02*
X11841900Y-4240000I-38100J0D01*
G01*
X11841900Y-4240000D02*
G75*
G02*
X11918100Y-4240000I38100J0D01*
G01*
X11918100Y-8050000D02*
G75*
G02*
X11841900Y-8050000I-38100J0D01*
G01*
X11841900Y-8050000D02*
G75*
G02*
X11918100Y-8050000I38100J0D01*
G01*
X11918100Y-9500000D02*
G75*
G02*
X11841900Y-9500000I-38100J0D01*
G01*
X11841900Y-9500000D02*
G75*
G02*
X11918100Y-9500000I38100J0D01*
G01*
X11918100Y-13310000D02*
G75*
G02*
X11841900Y-13310000I-38100J0D01*
G01*
X11841900Y-13310000D02*
G75*
G02*
X11918100Y-13310000I38100J0D01*
G01*
X12172100Y-4240000D02*
G75*
G02*
X12095900Y-4240000I-38100J0D01*
G01*
X12095900Y-4240000D02*
G75*
G02*
X12172100Y-4240000I38100J0D01*
G01*
X12172100Y-8050000D02*
G75*
G02*
X12095900Y-8050000I-38100J0D01*
G01*
X12095900Y-8050000D02*
G75*
G02*
X12172100Y-8050000I38100J0D01*
G01*
X12172100Y-9500000D02*
G75*
G02*
X12095900Y-9500000I-38100J0D01*
G01*
X12095900Y-9500000D02*
G75*
G02*
X12172100Y-9500000I38100J0D01*
G01*
X12172100Y-13310000D02*
G75*
G02*
X12095900Y-13310000I-38100J0D01*
G01*
X12095900Y-13310000D02*
G75*
G02*
X12172100Y-13310000I38100J0D01*
G01*
X12426100Y-4240000D02*
G75*
G02*
X12349900Y-4240000I-38100J0D01*
G01*
X12349900Y-4240000D02*
G75*
G02*
X12426100Y-4240000I38100J0D01*
G01*
X12426100Y-8050000D02*
G75*
G02*
X12349900Y-8050000I-38100J0D01*
G01*
X12349900Y-8050000D02*
G75*
G02*
X12426100Y-8050000I38100J0D01*
G01*
X12426100Y-9500000D02*
G75*
G02*
X12349900Y-9500000I-38100J0D01*
G01*
X12349900Y-9500000D02*
G75*
G02*
X12426100Y-9500000I38100J0D01*
G01*
X12426100Y-13310000D02*
G75*
G02*
X12349900Y-13310000I-38100J0D01*
G01*
X12349900Y-13310000D02*
G75*
G02*
X12426100Y-13310000I38100J0D01*
G01*
X12680100Y-4240000D02*
G75*
G02*
X12603900Y-4240000I-38100J0D01*
G01*
X12603900Y-4240000D02*
G75*
G02*
X12680100Y-4240000I38100J0D01*
G01*
X12680100Y-8050000D02*
G75*
G02*
X12603900Y-8050000I-38100J0D01*
G01*
X12603900Y-8050000D02*
G75*
G02*
X12680100Y-8050000I38100J0D01*
G01*
X12680100Y-9500000D02*
G75*
G02*
X12603900Y-9500000I-38100J0D01*
G01*
X12603900Y-9500000D02*
G75*
G02*
X12680100Y-9500000I38100J0D01*
G01*
X12680100Y-13310000D02*
G75*
G02*
X12603900Y-13310000I-38100J0D01*
G01*
X12603900Y-13310000D02*
G75*
G02*
X12680100Y-13310000I38100J0D01*
G01*
X12934100Y-4240000D02*
G75*
G02*
X12857900Y-4240000I-38100J0D01*
G01*
X12857900Y-4240000D02*
G75*
G02*
X12934100Y-4240000I38100J0D01*
G01*
X12934100Y-8050000D02*
G75*
G02*
X12857900Y-8050000I-38100J0D01*
G01*
X12857900Y-8050000D02*
G75*
G02*
X12934100Y-8050000I38100J0D01*
G01*
X12934100Y-9500000D02*
G75*
G02*
X12857900Y-9500000I-38100J0D01*
G01*
X12857900Y-9500000D02*
G75*
G02*
X12934100Y-9500000I38100J0D01*
G01*
X12934100Y-13310000D02*
G75*
G02*
X12857900Y-13310000I-38100J0D01*
G01*
X12857900Y-13310000D02*
G75*
G02*
X12934100Y-13310000I38100J0D01*
G01*
X13188100Y-4240000D02*
G75*
G02*
X13111900Y-4240000I-38100J0D01*
G01*
X13111900Y-4240000D02*
G75*
G02*
X13188100Y-4240000I38100J0D01*
G01*
X13188100Y-8050000D02*
G75*
G02*
X13111900Y-8050000I-38100J0D01*
G01*
X13111900Y-8050000D02*
G75*
G02*
X13188100Y-8050000I38100J0D01*
G01*
X13188100Y-9500000D02*
G75*
G02*
X13111900Y-9500000I-38100J0D01*
G01*
X13111900Y-9500000D02*
G75*
G02*
X13188100Y-9500000I38100J0D01*
G01*
X13188100Y-13310000D02*
G75*
G02*
X13111900Y-13310000I-38100J0D01*
G01*
X13111900Y-13310000D02*
G75*
G02*
X13188100Y-13310000I38100J0D01*
G01*
D11*
X7258277Y-14313984D02*
X7258277Y-14113984D01*
X7258277Y-14113984D02*
X7305896Y-14113984D01*
X7305896Y-14113984D02*
X7334467Y-14123508D01*
X7334467Y-14123508D02*
X7353515Y-14142555D01*
X7353515Y-14142555D02*
X7363039Y-14161603D01*
X7363039Y-14161603D02*
X7372562Y-14199698D01*
X7372562Y-14199698D02*
X7372562Y-14228269D01*
X7372562Y-14228269D02*
X7363039Y-14266365D01*
X7363039Y-14266365D02*
X7353515Y-14285412D01*
X7353515Y-14285412D02*
X7334467Y-14304460D01*
X7334467Y-14304460D02*
X7305896Y-14313984D01*
X7305896Y-14313984D02*
X7258277Y-14313984D01*
X7458277Y-14313984D02*
X7458277Y-14180650D01*
X7458277Y-14218746D02*
X7467801Y-14199698D01*
X7467801Y-14199698D02*
X7477324Y-14190174D01*
X7477324Y-14190174D02*
X7496372Y-14180650D01*
X7496372Y-14180650D02*
X7515420Y-14180650D01*
X7582086Y-14313984D02*
X7582086Y-14180650D01*
X7582086Y-14113984D02*
X7572562Y-14123508D01*
X7572562Y-14123508D02*
X7582086Y-14133031D01*
X7582086Y-14133031D02*
X7591610Y-14123508D01*
X7591610Y-14123508D02*
X7582086Y-14113984D01*
X7582086Y-14113984D02*
X7582086Y-14133031D01*
X7705896Y-14313984D02*
X7686848Y-14304460D01*
X7686848Y-14304460D02*
X7677324Y-14285412D01*
X7677324Y-14285412D02*
X7677324Y-14113984D01*
X7810658Y-14313984D02*
X7791610Y-14304460D01*
X7791610Y-14304460D02*
X7782086Y-14285412D01*
X7782086Y-14285412D02*
X7782086Y-14113984D01*
X8039229Y-14313984D02*
X8039229Y-14113984D01*
X8039229Y-14113984D02*
X8105896Y-14256841D01*
X8105896Y-14256841D02*
X8172562Y-14113984D01*
X8172562Y-14113984D02*
X8172562Y-14313984D01*
X8353515Y-14313984D02*
X8353515Y-14209222D01*
X8353515Y-14209222D02*
X8343991Y-14190174D01*
X8343991Y-14190174D02*
X8324943Y-14180650D01*
X8324943Y-14180650D02*
X8286848Y-14180650D01*
X8286848Y-14180650D02*
X8267801Y-14190174D01*
X8353515Y-14304460D02*
X8334467Y-14313984D01*
X8334467Y-14313984D02*
X8286848Y-14313984D01*
X8286848Y-14313984D02*
X8267801Y-14304460D01*
X8267801Y-14304460D02*
X8258277Y-14285412D01*
X8258277Y-14285412D02*
X8258277Y-14266365D01*
X8258277Y-14266365D02*
X8267801Y-14247317D01*
X8267801Y-14247317D02*
X8286848Y-14237793D01*
X8286848Y-14237793D02*
X8334467Y-14237793D01*
X8334467Y-14237793D02*
X8353515Y-14228269D01*
X8448753Y-14180650D02*
X8448753Y-14380650D01*
X8448753Y-14190174D02*
X8467801Y-14180650D01*
X8467801Y-14180650D02*
X8505896Y-14180650D01*
X8505896Y-14180650D02*
X8524944Y-14190174D01*
X8524944Y-14190174D02*
X8534467Y-14199698D01*
X8534467Y-14199698D02*
X8543991Y-14218746D01*
X8543991Y-14218746D02*
X8543991Y-14275888D01*
X8543991Y-14275888D02*
X8534467Y-14294936D01*
X8534467Y-14294936D02*
X8524944Y-14304460D01*
X8524944Y-14304460D02*
X8505896Y-14313984D01*
X8505896Y-14313984D02*
X8467801Y-14313984D01*
X8467801Y-14313984D02*
X8448753Y-14304460D01*
X8629705Y-14294936D02*
X8639229Y-14304460D01*
X8639229Y-14304460D02*
X8629705Y-14313984D01*
X8629705Y-14313984D02*
X8620182Y-14304460D01*
X8620182Y-14304460D02*
X8629705Y-14294936D01*
X8629705Y-14294936D02*
X8629705Y-14313984D01*
X8629705Y-14190174D02*
X8639229Y-14199698D01*
X8639229Y-14199698D02*
X8629705Y-14209222D01*
X8629705Y-14209222D02*
X8620182Y-14199698D01*
X8620182Y-14199698D02*
X8629705Y-14190174D01*
X8629705Y-14190174D02*
X8629705Y-14209222D01*
D12*
X6967500Y-14627500D02*
X6997500Y-14657500D01*
X6997500Y-14627500D02*
X6967500Y-14657500D01*
D11*
X7296372Y-14533984D02*
X7315420Y-14533984D01*
X7315420Y-14533984D02*
X7334467Y-14543508D01*
X7334467Y-14543508D02*
X7343991Y-14553031D01*
X7343991Y-14553031D02*
X7353515Y-14572079D01*
X7353515Y-14572079D02*
X7363039Y-14610174D01*
X7363039Y-14610174D02*
X7363039Y-14657793D01*
X7363039Y-14657793D02*
X7353515Y-14695888D01*
X7353515Y-14695888D02*
X7343991Y-14714936D01*
X7343991Y-14714936D02*
X7334467Y-14724460D01*
X7334467Y-14724460D02*
X7315420Y-14733984D01*
X7315420Y-14733984D02*
X7296372Y-14733984D01*
X7296372Y-14733984D02*
X7277324Y-14724460D01*
X7277324Y-14724460D02*
X7267801Y-14714936D01*
X7267801Y-14714936D02*
X7258277Y-14695888D01*
X7258277Y-14695888D02*
X7248753Y-14657793D01*
X7248753Y-14657793D02*
X7248753Y-14610174D01*
X7248753Y-14610174D02*
X7258277Y-14572079D01*
X7258277Y-14572079D02*
X7267801Y-14553031D01*
X7267801Y-14553031D02*
X7277324Y-14543508D01*
X7277324Y-14543508D02*
X7296372Y-14533984D01*
X7448753Y-14714936D02*
X7458277Y-14724460D01*
X7458277Y-14724460D02*
X7448753Y-14733984D01*
X7448753Y-14733984D02*
X7439229Y-14724460D01*
X7439229Y-14724460D02*
X7448753Y-14714936D01*
X7448753Y-14714936D02*
X7448753Y-14733984D01*
X7524943Y-14533984D02*
X7648753Y-14533984D01*
X7648753Y-14533984D02*
X7582086Y-14610174D01*
X7582086Y-14610174D02*
X7610658Y-14610174D01*
X7610658Y-14610174D02*
X7629705Y-14619698D01*
X7629705Y-14619698D02*
X7639229Y-14629222D01*
X7639229Y-14629222D02*
X7648753Y-14648269D01*
X7648753Y-14648269D02*
X7648753Y-14695888D01*
X7648753Y-14695888D02*
X7639229Y-14714936D01*
X7639229Y-14714936D02*
X7629705Y-14724460D01*
X7629705Y-14724460D02*
X7610658Y-14733984D01*
X7610658Y-14733984D02*
X7553515Y-14733984D01*
X7553515Y-14733984D02*
X7534467Y-14724460D01*
X7534467Y-14724460D02*
X7524943Y-14714936D01*
X7772562Y-14533984D02*
X7791610Y-14533984D01*
X7791610Y-14533984D02*
X7810658Y-14543508D01*
X7810658Y-14543508D02*
X7820182Y-14553031D01*
X7820182Y-14553031D02*
X7829705Y-14572079D01*
X7829705Y-14572079D02*
X7839229Y-14610174D01*
X7839229Y-14610174D02*
X7839229Y-14657793D01*
X7839229Y-14657793D02*
X7829705Y-14695888D01*
X7829705Y-14695888D02*
X7820182Y-14714936D01*
X7820182Y-14714936D02*
X7810658Y-14724460D01*
X7810658Y-14724460D02*
X7791610Y-14733984D01*
X7791610Y-14733984D02*
X7772562Y-14733984D01*
X7772562Y-14733984D02*
X7753515Y-14724460D01*
X7753515Y-14724460D02*
X7743991Y-14714936D01*
X7743991Y-14714936D02*
X7734467Y-14695888D01*
X7734467Y-14695888D02*
X7724943Y-14657793D01*
X7724943Y-14657793D02*
X7724943Y-14610174D01*
X7724943Y-14610174D02*
X7734467Y-14572079D01*
X7734467Y-14572079D02*
X7743991Y-14553031D01*
X7743991Y-14553031D02*
X7753515Y-14543508D01*
X7753515Y-14543508D02*
X7772562Y-14533984D01*
X7963039Y-14533984D02*
X7982086Y-14533984D01*
X7982086Y-14533984D02*
X8001134Y-14543508D01*
X8001134Y-14543508D02*
X8010658Y-14553031D01*
X8010658Y-14553031D02*
X8020182Y-14572079D01*
X8020182Y-14572079D02*
X8029705Y-14610174D01*
X8029705Y-14610174D02*
X8029705Y-14657793D01*
X8029705Y-14657793D02*
X8020182Y-14695888D01*
X8020182Y-14695888D02*
X8010658Y-14714936D01*
X8010658Y-14714936D02*
X8001134Y-14724460D01*
X8001134Y-14724460D02*
X7982086Y-14733984D01*
X7982086Y-14733984D02*
X7963039Y-14733984D01*
X7963039Y-14733984D02*
X7943991Y-14724460D01*
X7943991Y-14724460D02*
X7934467Y-14714936D01*
X7934467Y-14714936D02*
X7924943Y-14695888D01*
X7924943Y-14695888D02*
X7915420Y-14657793D01*
X7915420Y-14657793D02*
X7915420Y-14610174D01*
X7915420Y-14610174D02*
X7924943Y-14572079D01*
X7924943Y-14572079D02*
X7934467Y-14553031D01*
X7934467Y-14553031D02*
X7943991Y-14543508D01*
X7943991Y-14543508D02*
X7963039Y-14533984D01*
X8115420Y-14733984D02*
X8115420Y-14600650D01*
X8115420Y-14619698D02*
X8124943Y-14610174D01*
X8124943Y-14610174D02*
X8143991Y-14600650D01*
X8143991Y-14600650D02*
X8172563Y-14600650D01*
X8172563Y-14600650D02*
X8191610Y-14610174D01*
X8191610Y-14610174D02*
X8201134Y-14629222D01*
X8201134Y-14629222D02*
X8201134Y-14733984D01*
X8201134Y-14629222D02*
X8210658Y-14610174D01*
X8210658Y-14610174D02*
X8229705Y-14600650D01*
X8229705Y-14600650D02*
X8258277Y-14600650D01*
X8258277Y-14600650D02*
X8277324Y-14610174D01*
X8277324Y-14610174D02*
X8286848Y-14629222D01*
X8286848Y-14629222D02*
X8286848Y-14733984D01*
X8382086Y-14733984D02*
X8382086Y-14600650D01*
X8382086Y-14619698D02*
X8391610Y-14610174D01*
X8391610Y-14610174D02*
X8410658Y-14600650D01*
X8410658Y-14600650D02*
X8439229Y-14600650D01*
X8439229Y-14600650D02*
X8458277Y-14610174D01*
X8458277Y-14610174D02*
X8467801Y-14629222D01*
X8467801Y-14629222D02*
X8467801Y-14733984D01*
X8467801Y-14629222D02*
X8477325Y-14610174D01*
X8477325Y-14610174D02*
X8496372Y-14600650D01*
X8496372Y-14600650D02*
X8524944Y-14600650D01*
X8524944Y-14600650D02*
X8543991Y-14610174D01*
X8543991Y-14610174D02*
X8553515Y-14629222D01*
X8553515Y-14629222D02*
X8553515Y-14733984D01*
X8943991Y-14524460D02*
X8772563Y-14781603D01*
X9201134Y-14533984D02*
X9220182Y-14533984D01*
X9220182Y-14533984D02*
X9239229Y-14543508D01*
X9239229Y-14543508D02*
X9248753Y-14553031D01*
X9248753Y-14553031D02*
X9258277Y-14572079D01*
X9258277Y-14572079D02*
X9267801Y-14610174D01*
X9267801Y-14610174D02*
X9267801Y-14657793D01*
X9267801Y-14657793D02*
X9258277Y-14695888D01*
X9258277Y-14695888D02*
X9248753Y-14714936D01*
X9248753Y-14714936D02*
X9239229Y-14724460D01*
X9239229Y-14724460D02*
X9220182Y-14733984D01*
X9220182Y-14733984D02*
X9201134Y-14733984D01*
X9201134Y-14733984D02*
X9182087Y-14724460D01*
X9182087Y-14724460D02*
X9172563Y-14714936D01*
X9172563Y-14714936D02*
X9163039Y-14695888D01*
X9163039Y-14695888D02*
X9153515Y-14657793D01*
X9153515Y-14657793D02*
X9153515Y-14610174D01*
X9153515Y-14610174D02*
X9163039Y-14572079D01*
X9163039Y-14572079D02*
X9172563Y-14553031D01*
X9172563Y-14553031D02*
X9182087Y-14543508D01*
X9182087Y-14543508D02*
X9201134Y-14533984D01*
X9353515Y-14714936D02*
X9363039Y-14724460D01*
X9363039Y-14724460D02*
X9353515Y-14733984D01*
X9353515Y-14733984D02*
X9343991Y-14724460D01*
X9343991Y-14724460D02*
X9353515Y-14714936D01*
X9353515Y-14714936D02*
X9353515Y-14733984D01*
X9486848Y-14533984D02*
X9505896Y-14533984D01*
X9505896Y-14533984D02*
X9524944Y-14543508D01*
X9524944Y-14543508D02*
X9534468Y-14553031D01*
X9534468Y-14553031D02*
X9543991Y-14572079D01*
X9543991Y-14572079D02*
X9553515Y-14610174D01*
X9553515Y-14610174D02*
X9553515Y-14657793D01*
X9553515Y-14657793D02*
X9543991Y-14695888D01*
X9543991Y-14695888D02*
X9534468Y-14714936D01*
X9534468Y-14714936D02*
X9524944Y-14724460D01*
X9524944Y-14724460D02*
X9505896Y-14733984D01*
X9505896Y-14733984D02*
X9486848Y-14733984D01*
X9486848Y-14733984D02*
X9467801Y-14724460D01*
X9467801Y-14724460D02*
X9458277Y-14714936D01*
X9458277Y-14714936D02*
X9448753Y-14695888D01*
X9448753Y-14695888D02*
X9439229Y-14657793D01*
X9439229Y-14657793D02*
X9439229Y-14610174D01*
X9439229Y-14610174D02*
X9448753Y-14572079D01*
X9448753Y-14572079D02*
X9458277Y-14553031D01*
X9458277Y-14553031D02*
X9467801Y-14543508D01*
X9467801Y-14543508D02*
X9486848Y-14533984D01*
X9743991Y-14733984D02*
X9629706Y-14733984D01*
X9686848Y-14733984D02*
X9686848Y-14533984D01*
X9686848Y-14533984D02*
X9667801Y-14562555D01*
X9667801Y-14562555D02*
X9648753Y-14581603D01*
X9648753Y-14581603D02*
X9629706Y-14591127D01*
X9934468Y-14733984D02*
X9820182Y-14733984D01*
X9877325Y-14733984D02*
X9877325Y-14533984D01*
X9877325Y-14533984D02*
X9858277Y-14562555D01*
X9858277Y-14562555D02*
X9839229Y-14581603D01*
X9839229Y-14581603D02*
X9820182Y-14591127D01*
X10048753Y-14619698D02*
X10029706Y-14610174D01*
X10029706Y-14610174D02*
X10020182Y-14600650D01*
X10020182Y-14600650D02*
X10010658Y-14581603D01*
X10010658Y-14581603D02*
X10010658Y-14572079D01*
X10010658Y-14572079D02*
X10020182Y-14553031D01*
X10020182Y-14553031D02*
X10029706Y-14543508D01*
X10029706Y-14543508D02*
X10048753Y-14533984D01*
X10048753Y-14533984D02*
X10086849Y-14533984D01*
X10086849Y-14533984D02*
X10105896Y-14543508D01*
X10105896Y-14543508D02*
X10115420Y-14553031D01*
X10115420Y-14553031D02*
X10124944Y-14572079D01*
X10124944Y-14572079D02*
X10124944Y-14581603D01*
X10124944Y-14581603D02*
X10115420Y-14600650D01*
X10115420Y-14600650D02*
X10105896Y-14610174D01*
X10105896Y-14610174D02*
X10086849Y-14619698D01*
X10086849Y-14619698D02*
X10048753Y-14619698D01*
X10048753Y-14619698D02*
X10029706Y-14629222D01*
X10029706Y-14629222D02*
X10020182Y-14638746D01*
X10020182Y-14638746D02*
X10010658Y-14657793D01*
X10010658Y-14657793D02*
X10010658Y-14695888D01*
X10010658Y-14695888D02*
X10020182Y-14714936D01*
X10020182Y-14714936D02*
X10029706Y-14724460D01*
X10029706Y-14724460D02*
X10048753Y-14733984D01*
X10048753Y-14733984D02*
X10086849Y-14733984D01*
X10086849Y-14733984D02*
X10105896Y-14724460D01*
X10105896Y-14724460D02*
X10115420Y-14714936D01*
X10115420Y-14714936D02*
X10124944Y-14695888D01*
X10124944Y-14695888D02*
X10124944Y-14657793D01*
X10124944Y-14657793D02*
X10115420Y-14638746D01*
X10115420Y-14638746D02*
X10105896Y-14629222D01*
X10105896Y-14629222D02*
X10086849Y-14619698D01*
X10201134Y-14533984D02*
X10201134Y-14572079D01*
X10277325Y-14533984D02*
X10277325Y-14572079D01*
X10572563Y-14810174D02*
X10563039Y-14800650D01*
X10563039Y-14800650D02*
X10543991Y-14772079D01*
X10543991Y-14772079D02*
X10534468Y-14753031D01*
X10534468Y-14753031D02*
X10524944Y-14724460D01*
X10524944Y-14724460D02*
X10515420Y-14676841D01*
X10515420Y-14676841D02*
X10515420Y-14638746D01*
X10515420Y-14638746D02*
X10524944Y-14591127D01*
X10524944Y-14591127D02*
X10534468Y-14562555D01*
X10534468Y-14562555D02*
X10543991Y-14543508D01*
X10543991Y-14543508D02*
X10563039Y-14514936D01*
X10563039Y-14514936D02*
X10572563Y-14505412D01*
X10639230Y-14553031D02*
X10648753Y-14543508D01*
X10648753Y-14543508D02*
X10667801Y-14533984D01*
X10667801Y-14533984D02*
X10715420Y-14533984D01*
X10715420Y-14533984D02*
X10734468Y-14543508D01*
X10734468Y-14543508D02*
X10743991Y-14553031D01*
X10743991Y-14553031D02*
X10753515Y-14572079D01*
X10753515Y-14572079D02*
X10753515Y-14591127D01*
X10753515Y-14591127D02*
X10743991Y-14619698D01*
X10743991Y-14619698D02*
X10629706Y-14733984D01*
X10629706Y-14733984D02*
X10753515Y-14733984D01*
X10943991Y-14733984D02*
X10829706Y-14733984D01*
X10886849Y-14733984D02*
X10886849Y-14533984D01*
X10886849Y-14533984D02*
X10867801Y-14562555D01*
X10867801Y-14562555D02*
X10848753Y-14581603D01*
X10848753Y-14581603D02*
X10829706Y-14591127D01*
X11115420Y-14600650D02*
X11115420Y-14733984D01*
X11067801Y-14524460D02*
X11020182Y-14667317D01*
X11020182Y-14667317D02*
X11143991Y-14667317D01*
X11372563Y-14733984D02*
X11372563Y-14533984D01*
X11458277Y-14733984D02*
X11458277Y-14629222D01*
X11458277Y-14629222D02*
X11448753Y-14610174D01*
X11448753Y-14610174D02*
X11429706Y-14600650D01*
X11429706Y-14600650D02*
X11401134Y-14600650D01*
X11401134Y-14600650D02*
X11382087Y-14610174D01*
X11382087Y-14610174D02*
X11372563Y-14619698D01*
X11582087Y-14733984D02*
X11563039Y-14724460D01*
X11563039Y-14724460D02*
X11553515Y-14714936D01*
X11553515Y-14714936D02*
X11543991Y-14695888D01*
X11543991Y-14695888D02*
X11543991Y-14638746D01*
X11543991Y-14638746D02*
X11553515Y-14619698D01*
X11553515Y-14619698D02*
X11563039Y-14610174D01*
X11563039Y-14610174D02*
X11582087Y-14600650D01*
X11582087Y-14600650D02*
X11610658Y-14600650D01*
X11610658Y-14600650D02*
X11629706Y-14610174D01*
X11629706Y-14610174D02*
X11639230Y-14619698D01*
X11639230Y-14619698D02*
X11648753Y-14638746D01*
X11648753Y-14638746D02*
X11648753Y-14695888D01*
X11648753Y-14695888D02*
X11639230Y-14714936D01*
X11639230Y-14714936D02*
X11629706Y-14724460D01*
X11629706Y-14724460D02*
X11610658Y-14733984D01*
X11610658Y-14733984D02*
X11582087Y-14733984D01*
X11763039Y-14733984D02*
X11743991Y-14724460D01*
X11743991Y-14724460D02*
X11734468Y-14705412D01*
X11734468Y-14705412D02*
X11734468Y-14533984D01*
X11915420Y-14724460D02*
X11896372Y-14733984D01*
X11896372Y-14733984D02*
X11858277Y-14733984D01*
X11858277Y-14733984D02*
X11839230Y-14724460D01*
X11839230Y-14724460D02*
X11829706Y-14705412D01*
X11829706Y-14705412D02*
X11829706Y-14629222D01*
X11829706Y-14629222D02*
X11839230Y-14610174D01*
X11839230Y-14610174D02*
X11858277Y-14600650D01*
X11858277Y-14600650D02*
X11896372Y-14600650D01*
X11896372Y-14600650D02*
X11915420Y-14610174D01*
X11915420Y-14610174D02*
X11924944Y-14629222D01*
X11924944Y-14629222D02*
X11924944Y-14648269D01*
X11924944Y-14648269D02*
X11829706Y-14667317D01*
X12001134Y-14724460D02*
X12020182Y-14733984D01*
X12020182Y-14733984D02*
X12058277Y-14733984D01*
X12058277Y-14733984D02*
X12077325Y-14724460D01*
X12077325Y-14724460D02*
X12086849Y-14705412D01*
X12086849Y-14705412D02*
X12086849Y-14695888D01*
X12086849Y-14695888D02*
X12077325Y-14676841D01*
X12077325Y-14676841D02*
X12058277Y-14667317D01*
X12058277Y-14667317D02*
X12029706Y-14667317D01*
X12029706Y-14667317D02*
X12010658Y-14657793D01*
X12010658Y-14657793D02*
X12001134Y-14638746D01*
X12001134Y-14638746D02*
X12001134Y-14629222D01*
X12001134Y-14629222D02*
X12010658Y-14610174D01*
X12010658Y-14610174D02*
X12029706Y-14600650D01*
X12029706Y-14600650D02*
X12058277Y-14600650D01*
X12058277Y-14600650D02*
X12077325Y-14610174D01*
X12153515Y-14810174D02*
X12163039Y-14800650D01*
X12163039Y-14800650D02*
X12182087Y-14772079D01*
X12182087Y-14772079D02*
X12191611Y-14753031D01*
X12191611Y-14753031D02*
X12201134Y-14724460D01*
X12201134Y-14724460D02*
X12210658Y-14676841D01*
X12210658Y-14676841D02*
X12210658Y-14638746D01*
X12210658Y-14638746D02*
X12201134Y-14591127D01*
X12201134Y-14591127D02*
X12191611Y-14562555D01*
X12191611Y-14562555D02*
X12182087Y-14543508D01*
X12182087Y-14543508D02*
X12163039Y-14514936D01*
X12163039Y-14514936D02*
X12153515Y-14505412D01*
D12*
X6997500Y-14906500D02*
G75*
G02*
X6921300Y-14906500I-38100J0D01*
G01*
X6921300Y-14906500D02*
G75*
G02*
X6997500Y-14906500I38100J0D01*
G01*
D11*
X7296372Y-14797984D02*
X7315420Y-14797984D01*
X7315420Y-14797984D02*
X7334467Y-14807508D01*
X7334467Y-14807508D02*
X7343991Y-14817031D01*
X7343991Y-14817031D02*
X7353515Y-14836079D01*
X7353515Y-14836079D02*
X7363039Y-14874174D01*
X7363039Y-14874174D02*
X7363039Y-14921793D01*
X7363039Y-14921793D02*
X7353515Y-14959888D01*
X7353515Y-14959888D02*
X7343991Y-14978936D01*
X7343991Y-14978936D02*
X7334467Y-14988460D01*
X7334467Y-14988460D02*
X7315420Y-14997984D01*
X7315420Y-14997984D02*
X7296372Y-14997984D01*
X7296372Y-14997984D02*
X7277324Y-14988460D01*
X7277324Y-14988460D02*
X7267801Y-14978936D01*
X7267801Y-14978936D02*
X7258277Y-14959888D01*
X7258277Y-14959888D02*
X7248753Y-14921793D01*
X7248753Y-14921793D02*
X7248753Y-14874174D01*
X7248753Y-14874174D02*
X7258277Y-14836079D01*
X7258277Y-14836079D02*
X7267801Y-14817031D01*
X7267801Y-14817031D02*
X7277324Y-14807508D01*
X7277324Y-14807508D02*
X7296372Y-14797984D01*
X7448753Y-14978936D02*
X7458277Y-14988460D01*
X7458277Y-14988460D02*
X7448753Y-14997984D01*
X7448753Y-14997984D02*
X7439229Y-14988460D01*
X7439229Y-14988460D02*
X7448753Y-14978936D01*
X7448753Y-14978936D02*
X7448753Y-14997984D01*
X7524943Y-14797984D02*
X7658277Y-14797984D01*
X7658277Y-14797984D02*
X7572562Y-14997984D01*
X7820182Y-14797984D02*
X7782086Y-14797984D01*
X7782086Y-14797984D02*
X7763039Y-14807508D01*
X7763039Y-14807508D02*
X7753515Y-14817031D01*
X7753515Y-14817031D02*
X7734467Y-14845603D01*
X7734467Y-14845603D02*
X7724943Y-14883698D01*
X7724943Y-14883698D02*
X7724943Y-14959888D01*
X7724943Y-14959888D02*
X7734467Y-14978936D01*
X7734467Y-14978936D02*
X7743991Y-14988460D01*
X7743991Y-14988460D02*
X7763039Y-14997984D01*
X7763039Y-14997984D02*
X7801134Y-14997984D01*
X7801134Y-14997984D02*
X7820182Y-14988460D01*
X7820182Y-14988460D02*
X7829705Y-14978936D01*
X7829705Y-14978936D02*
X7839229Y-14959888D01*
X7839229Y-14959888D02*
X7839229Y-14912269D01*
X7839229Y-14912269D02*
X7829705Y-14893222D01*
X7829705Y-14893222D02*
X7820182Y-14883698D01*
X7820182Y-14883698D02*
X7801134Y-14874174D01*
X7801134Y-14874174D02*
X7763039Y-14874174D01*
X7763039Y-14874174D02*
X7743991Y-14883698D01*
X7743991Y-14883698D02*
X7734467Y-14893222D01*
X7734467Y-14893222D02*
X7724943Y-14912269D01*
X7915420Y-14817031D02*
X7924943Y-14807508D01*
X7924943Y-14807508D02*
X7943991Y-14797984D01*
X7943991Y-14797984D02*
X7991610Y-14797984D01*
X7991610Y-14797984D02*
X8010658Y-14807508D01*
X8010658Y-14807508D02*
X8020182Y-14817031D01*
X8020182Y-14817031D02*
X8029705Y-14836079D01*
X8029705Y-14836079D02*
X8029705Y-14855127D01*
X8029705Y-14855127D02*
X8020182Y-14883698D01*
X8020182Y-14883698D02*
X7905896Y-14997984D01*
X7905896Y-14997984D02*
X8029705Y-14997984D01*
X8115420Y-14997984D02*
X8115420Y-14864650D01*
X8115420Y-14883698D02*
X8124943Y-14874174D01*
X8124943Y-14874174D02*
X8143991Y-14864650D01*
X8143991Y-14864650D02*
X8172563Y-14864650D01*
X8172563Y-14864650D02*
X8191610Y-14874174D01*
X8191610Y-14874174D02*
X8201134Y-14893222D01*
X8201134Y-14893222D02*
X8201134Y-14997984D01*
X8201134Y-14893222D02*
X8210658Y-14874174D01*
X8210658Y-14874174D02*
X8229705Y-14864650D01*
X8229705Y-14864650D02*
X8258277Y-14864650D01*
X8258277Y-14864650D02*
X8277324Y-14874174D01*
X8277324Y-14874174D02*
X8286848Y-14893222D01*
X8286848Y-14893222D02*
X8286848Y-14997984D01*
X8382086Y-14997984D02*
X8382086Y-14864650D01*
X8382086Y-14883698D02*
X8391610Y-14874174D01*
X8391610Y-14874174D02*
X8410658Y-14864650D01*
X8410658Y-14864650D02*
X8439229Y-14864650D01*
X8439229Y-14864650D02*
X8458277Y-14874174D01*
X8458277Y-14874174D02*
X8467801Y-14893222D01*
X8467801Y-14893222D02*
X8467801Y-14997984D01*
X8467801Y-14893222D02*
X8477325Y-14874174D01*
X8477325Y-14874174D02*
X8496372Y-14864650D01*
X8496372Y-14864650D02*
X8524944Y-14864650D01*
X8524944Y-14864650D02*
X8543991Y-14874174D01*
X8543991Y-14874174D02*
X8553515Y-14893222D01*
X8553515Y-14893222D02*
X8553515Y-14997984D01*
X8943991Y-14788460D02*
X8772563Y-15045603D01*
X9201134Y-14797984D02*
X9220182Y-14797984D01*
X9220182Y-14797984D02*
X9239229Y-14807508D01*
X9239229Y-14807508D02*
X9248753Y-14817031D01*
X9248753Y-14817031D02*
X9258277Y-14836079D01*
X9258277Y-14836079D02*
X9267801Y-14874174D01*
X9267801Y-14874174D02*
X9267801Y-14921793D01*
X9267801Y-14921793D02*
X9258277Y-14959888D01*
X9258277Y-14959888D02*
X9248753Y-14978936D01*
X9248753Y-14978936D02*
X9239229Y-14988460D01*
X9239229Y-14988460D02*
X9220182Y-14997984D01*
X9220182Y-14997984D02*
X9201134Y-14997984D01*
X9201134Y-14997984D02*
X9182087Y-14988460D01*
X9182087Y-14988460D02*
X9172563Y-14978936D01*
X9172563Y-14978936D02*
X9163039Y-14959888D01*
X9163039Y-14959888D02*
X9153515Y-14921793D01*
X9153515Y-14921793D02*
X9153515Y-14874174D01*
X9153515Y-14874174D02*
X9163039Y-14836079D01*
X9163039Y-14836079D02*
X9172563Y-14817031D01*
X9172563Y-14817031D02*
X9182087Y-14807508D01*
X9182087Y-14807508D02*
X9201134Y-14797984D01*
X9353515Y-14978936D02*
X9363039Y-14988460D01*
X9363039Y-14988460D02*
X9353515Y-14997984D01*
X9353515Y-14997984D02*
X9343991Y-14988460D01*
X9343991Y-14988460D02*
X9353515Y-14978936D01*
X9353515Y-14978936D02*
X9353515Y-14997984D01*
X9486848Y-14797984D02*
X9505896Y-14797984D01*
X9505896Y-14797984D02*
X9524944Y-14807508D01*
X9524944Y-14807508D02*
X9534468Y-14817031D01*
X9534468Y-14817031D02*
X9543991Y-14836079D01*
X9543991Y-14836079D02*
X9553515Y-14874174D01*
X9553515Y-14874174D02*
X9553515Y-14921793D01*
X9553515Y-14921793D02*
X9543991Y-14959888D01*
X9543991Y-14959888D02*
X9534468Y-14978936D01*
X9534468Y-14978936D02*
X9524944Y-14988460D01*
X9524944Y-14988460D02*
X9505896Y-14997984D01*
X9505896Y-14997984D02*
X9486848Y-14997984D01*
X9486848Y-14997984D02*
X9467801Y-14988460D01*
X9467801Y-14988460D02*
X9458277Y-14978936D01*
X9458277Y-14978936D02*
X9448753Y-14959888D01*
X9448753Y-14959888D02*
X9439229Y-14921793D01*
X9439229Y-14921793D02*
X9439229Y-14874174D01*
X9439229Y-14874174D02*
X9448753Y-14836079D01*
X9448753Y-14836079D02*
X9458277Y-14817031D01*
X9458277Y-14817031D02*
X9467801Y-14807508D01*
X9467801Y-14807508D02*
X9486848Y-14797984D01*
X9620182Y-14797984D02*
X9743991Y-14797984D01*
X9743991Y-14797984D02*
X9677325Y-14874174D01*
X9677325Y-14874174D02*
X9705896Y-14874174D01*
X9705896Y-14874174D02*
X9724944Y-14883698D01*
X9724944Y-14883698D02*
X9734468Y-14893222D01*
X9734468Y-14893222D02*
X9743991Y-14912269D01*
X9743991Y-14912269D02*
X9743991Y-14959888D01*
X9743991Y-14959888D02*
X9734468Y-14978936D01*
X9734468Y-14978936D02*
X9724944Y-14988460D01*
X9724944Y-14988460D02*
X9705896Y-14997984D01*
X9705896Y-14997984D02*
X9648753Y-14997984D01*
X9648753Y-14997984D02*
X9629706Y-14988460D01*
X9629706Y-14988460D02*
X9620182Y-14978936D01*
X9867801Y-14797984D02*
X9886849Y-14797984D01*
X9886849Y-14797984D02*
X9905896Y-14807508D01*
X9905896Y-14807508D02*
X9915420Y-14817031D01*
X9915420Y-14817031D02*
X9924944Y-14836079D01*
X9924944Y-14836079D02*
X9934468Y-14874174D01*
X9934468Y-14874174D02*
X9934468Y-14921793D01*
X9934468Y-14921793D02*
X9924944Y-14959888D01*
X9924944Y-14959888D02*
X9915420Y-14978936D01*
X9915420Y-14978936D02*
X9905896Y-14988460D01*
X9905896Y-14988460D02*
X9886849Y-14997984D01*
X9886849Y-14997984D02*
X9867801Y-14997984D01*
X9867801Y-14997984D02*
X9848753Y-14988460D01*
X9848753Y-14988460D02*
X9839229Y-14978936D01*
X9839229Y-14978936D02*
X9829706Y-14959888D01*
X9829706Y-14959888D02*
X9820182Y-14921793D01*
X9820182Y-14921793D02*
X9820182Y-14874174D01*
X9820182Y-14874174D02*
X9829706Y-14836079D01*
X9829706Y-14836079D02*
X9839229Y-14817031D01*
X9839229Y-14817031D02*
X9848753Y-14807508D01*
X9848753Y-14807508D02*
X9867801Y-14797984D01*
X10058277Y-14797984D02*
X10077325Y-14797984D01*
X10077325Y-14797984D02*
X10096372Y-14807508D01*
X10096372Y-14807508D02*
X10105896Y-14817031D01*
X10105896Y-14817031D02*
X10115420Y-14836079D01*
X10115420Y-14836079D02*
X10124944Y-14874174D01*
X10124944Y-14874174D02*
X10124944Y-14921793D01*
X10124944Y-14921793D02*
X10115420Y-14959888D01*
X10115420Y-14959888D02*
X10105896Y-14978936D01*
X10105896Y-14978936D02*
X10096372Y-14988460D01*
X10096372Y-14988460D02*
X10077325Y-14997984D01*
X10077325Y-14997984D02*
X10058277Y-14997984D01*
X10058277Y-14997984D02*
X10039229Y-14988460D01*
X10039229Y-14988460D02*
X10029706Y-14978936D01*
X10029706Y-14978936D02*
X10020182Y-14959888D01*
X10020182Y-14959888D02*
X10010658Y-14921793D01*
X10010658Y-14921793D02*
X10010658Y-14874174D01*
X10010658Y-14874174D02*
X10020182Y-14836079D01*
X10020182Y-14836079D02*
X10029706Y-14817031D01*
X10029706Y-14817031D02*
X10039229Y-14807508D01*
X10039229Y-14807508D02*
X10058277Y-14797984D01*
X10201134Y-14797984D02*
X10201134Y-14836079D01*
X10277325Y-14797984D02*
X10277325Y-14836079D01*
X10572563Y-15074174D02*
X10563039Y-15064650D01*
X10563039Y-15064650D02*
X10543991Y-15036079D01*
X10543991Y-15036079D02*
X10534468Y-15017031D01*
X10534468Y-15017031D02*
X10524944Y-14988460D01*
X10524944Y-14988460D02*
X10515420Y-14940841D01*
X10515420Y-14940841D02*
X10515420Y-14902746D01*
X10515420Y-14902746D02*
X10524944Y-14855127D01*
X10524944Y-14855127D02*
X10534468Y-14826555D01*
X10534468Y-14826555D02*
X10543991Y-14807508D01*
X10543991Y-14807508D02*
X10563039Y-14778936D01*
X10563039Y-14778936D02*
X10572563Y-14769412D01*
X10743991Y-14797984D02*
X10648753Y-14797984D01*
X10648753Y-14797984D02*
X10639230Y-14893222D01*
X10639230Y-14893222D02*
X10648753Y-14883698D01*
X10648753Y-14883698D02*
X10667801Y-14874174D01*
X10667801Y-14874174D02*
X10715420Y-14874174D01*
X10715420Y-14874174D02*
X10734468Y-14883698D01*
X10734468Y-14883698D02*
X10743991Y-14893222D01*
X10743991Y-14893222D02*
X10753515Y-14912269D01*
X10753515Y-14912269D02*
X10753515Y-14959888D01*
X10753515Y-14959888D02*
X10743991Y-14978936D01*
X10743991Y-14978936D02*
X10734468Y-14988460D01*
X10734468Y-14988460D02*
X10715420Y-14997984D01*
X10715420Y-14997984D02*
X10667801Y-14997984D01*
X10667801Y-14997984D02*
X10648753Y-14988460D01*
X10648753Y-14988460D02*
X10639230Y-14978936D01*
X10924944Y-14797984D02*
X10886849Y-14797984D01*
X10886849Y-14797984D02*
X10867801Y-14807508D01*
X10867801Y-14807508D02*
X10858277Y-14817031D01*
X10858277Y-14817031D02*
X10839230Y-14845603D01*
X10839230Y-14845603D02*
X10829706Y-14883698D01*
X10829706Y-14883698D02*
X10829706Y-14959888D01*
X10829706Y-14959888D02*
X10839230Y-14978936D01*
X10839230Y-14978936D02*
X10848753Y-14988460D01*
X10848753Y-14988460D02*
X10867801Y-14997984D01*
X10867801Y-14997984D02*
X10905896Y-14997984D01*
X10905896Y-14997984D02*
X10924944Y-14988460D01*
X10924944Y-14988460D02*
X10934468Y-14978936D01*
X10934468Y-14978936D02*
X10943991Y-14959888D01*
X10943991Y-14959888D02*
X10943991Y-14912269D01*
X10943991Y-14912269D02*
X10934468Y-14893222D01*
X10934468Y-14893222D02*
X10924944Y-14883698D01*
X10924944Y-14883698D02*
X10905896Y-14874174D01*
X10905896Y-14874174D02*
X10867801Y-14874174D01*
X10867801Y-14874174D02*
X10848753Y-14883698D01*
X10848753Y-14883698D02*
X10839230Y-14893222D01*
X10839230Y-14893222D02*
X10829706Y-14912269D01*
X11182087Y-14997984D02*
X11182087Y-14797984D01*
X11267801Y-14997984D02*
X11267801Y-14893222D01*
X11267801Y-14893222D02*
X11258277Y-14874174D01*
X11258277Y-14874174D02*
X11239230Y-14864650D01*
X11239230Y-14864650D02*
X11210658Y-14864650D01*
X11210658Y-14864650D02*
X11191610Y-14874174D01*
X11191610Y-14874174D02*
X11182087Y-14883698D01*
X11391610Y-14997984D02*
X11372563Y-14988460D01*
X11372563Y-14988460D02*
X11363039Y-14978936D01*
X11363039Y-14978936D02*
X11353515Y-14959888D01*
X11353515Y-14959888D02*
X11353515Y-14902746D01*
X11353515Y-14902746D02*
X11363039Y-14883698D01*
X11363039Y-14883698D02*
X11372563Y-14874174D01*
X11372563Y-14874174D02*
X11391610Y-14864650D01*
X11391610Y-14864650D02*
X11420182Y-14864650D01*
X11420182Y-14864650D02*
X11439230Y-14874174D01*
X11439230Y-14874174D02*
X11448753Y-14883698D01*
X11448753Y-14883698D02*
X11458277Y-14902746D01*
X11458277Y-14902746D02*
X11458277Y-14959888D01*
X11458277Y-14959888D02*
X11448753Y-14978936D01*
X11448753Y-14978936D02*
X11439230Y-14988460D01*
X11439230Y-14988460D02*
X11420182Y-14997984D01*
X11420182Y-14997984D02*
X11391610Y-14997984D01*
X11572563Y-14997984D02*
X11553515Y-14988460D01*
X11553515Y-14988460D02*
X11543991Y-14969412D01*
X11543991Y-14969412D02*
X11543991Y-14797984D01*
X11724944Y-14988460D02*
X11705896Y-14997984D01*
X11705896Y-14997984D02*
X11667801Y-14997984D01*
X11667801Y-14997984D02*
X11648753Y-14988460D01*
X11648753Y-14988460D02*
X11639230Y-14969412D01*
X11639230Y-14969412D02*
X11639230Y-14893222D01*
X11639230Y-14893222D02*
X11648753Y-14874174D01*
X11648753Y-14874174D02*
X11667801Y-14864650D01*
X11667801Y-14864650D02*
X11705896Y-14864650D01*
X11705896Y-14864650D02*
X11724944Y-14874174D01*
X11724944Y-14874174D02*
X11734468Y-14893222D01*
X11734468Y-14893222D02*
X11734468Y-14912269D01*
X11734468Y-14912269D02*
X11639230Y-14931317D01*
X11810658Y-14988460D02*
X11829706Y-14997984D01*
X11829706Y-14997984D02*
X11867801Y-14997984D01*
X11867801Y-14997984D02*
X11886849Y-14988460D01*
X11886849Y-14988460D02*
X11896372Y-14969412D01*
X11896372Y-14969412D02*
X11896372Y-14959888D01*
X11896372Y-14959888D02*
X11886849Y-14940841D01*
X11886849Y-14940841D02*
X11867801Y-14931317D01*
X11867801Y-14931317D02*
X11839230Y-14931317D01*
X11839230Y-14931317D02*
X11820182Y-14921793D01*
X11820182Y-14921793D02*
X11810658Y-14902746D01*
X11810658Y-14902746D02*
X11810658Y-14893222D01*
X11810658Y-14893222D02*
X11820182Y-14874174D01*
X11820182Y-14874174D02*
X11839230Y-14864650D01*
X11839230Y-14864650D02*
X11867801Y-14864650D01*
X11867801Y-14864650D02*
X11886849Y-14874174D01*
X11963039Y-15074174D02*
X11972563Y-15064650D01*
X11972563Y-15064650D02*
X11991611Y-15036079D01*
X11991611Y-15036079D02*
X12001134Y-15017031D01*
X12001134Y-15017031D02*
X12010658Y-14988460D01*
X12010658Y-14988460D02*
X12020182Y-14940841D01*
X12020182Y-14940841D02*
X12020182Y-14902746D01*
X12020182Y-14902746D02*
X12010658Y-14855127D01*
X12010658Y-14855127D02*
X12001134Y-14826555D01*
X12001134Y-14826555D02*
X11991611Y-14807508D01*
X11991611Y-14807508D02*
X11972563Y-14778936D01*
X11972563Y-14778936D02*
X11963039Y-14769412D01*
M02*
