M48
; DRILL file {KiCad 8.0.5} date 2025-02-27T20:45:05-0800
; FORMAT={-:-/ absolute / inch / decimal}
; #@! TF.CreationDate,2025-02-27T20:45:05-08:00
; #@! TF.GenerationSoftware,Kicad,Pcbnew,8.0.5
; #@! TF.FileFunction,Plated,1,2,PTH
FMAT,2
INCH
; #@! TA.AperFunction,Plated,PTH,ViaDrill
T1C0.0118
; #@! TA.AperFunction,Plated,PTH,ComponentDrill
T2C0.0300
%
G90
G05
T1
X3.0079Y-3.4646
X3.0157Y-2.7717
X3.0433Y-4.5315
X3.0591Y-4.9094
X3.0669Y-2.7717
X3.0906Y-1.9528
X3.1Y-2.25
X3.1063Y-2.7717
X3.1063Y-3.5472
X3.122Y-2.5079
X3.126Y-4.6614
X3.1339Y-2.3622
X3.1417Y-2.0984
X3.15Y-2.15
X3.1575Y-3.2835
X3.1929Y-4.5232
X3.2008Y-1.7402
X3.2008Y-1.8307
X3.2323Y-3.2756
X3.2436Y-3.0035
X3.2441Y-5.0591
X3.248Y-4.7677
X3.2953Y-4.5079
X3.2992Y-1.7677
X3.3071Y-3.2795
X3.315Y-3.0
X3.3268Y-5.0394
X3.3268Y-5.1732
X3.3504Y-4.6496
X3.3976Y-1.7756
X3.4016Y-3.3976
X3.4134Y-4.4724
X3.4213Y-2.0079
X3.4213Y-2.1142
X3.4213Y-2.2165
X3.4213Y-2.3268
X3.4213Y-2.4094
X3.4213Y-2.5236
X3.4213Y-2.5984
X3.4252Y-2.7008
X3.4331Y-3.311
X3.4449Y-4.4754
X3.4685Y-5.0394
X3.4921Y-1.7756
X3.5039Y-4.5551
X3.5157Y-1.874
X3.5709Y-4.5157
X3.5721Y-3.2717
X3.5748Y-4.3661
X3.5945Y-3.3425
X3.5984Y-3.0079
X3.6142Y-4.6535
X3.6378Y-1.7165
X3.6378Y-1.8425
X3.6378Y-5.0669
X3.6417Y-5.3228
X3.6601Y-5.0394
X3.6715Y-5.1223
X3.69Y-5.3228
X3.6908Y-5.1496
X3.6969Y-1.811
X3.6988Y-4.5689
X3.6992Y-4.5331
X3.7126Y-4.9685
X3.7308Y-5.0255
X3.7321Y-4.5298
X3.7402Y-1.7323
X3.7402Y-4.6811
X3.742Y-4.4979
X3.7461Y-4.463
X3.752Y-1.7717
X3.752Y-1.878
X3.752Y-4.4016
X3.752Y-4.6496
X3.7638Y-2.7717
X3.7642Y-4.3547
X3.7677Y-2.4409
X3.7717Y-1.8031
X3.7717Y-4.7677
X3.7717Y-4.9685
X3.7717Y-5.2795
X3.8346Y-4.4764
X3.8819Y-2.4665
X3.8976Y-3.9724
X3.9735Y-4.624
X3.9764Y-2.4409
X4.0157Y-2.0079
X4.0157Y-2.126
X4.0157Y-2.2441
X4.0157Y-3.9646
X4.0377Y-4.9668
X4.0502Y-4.3489
X4.075Y-4.9685
X4.0906Y-3.8504
X4.0906Y-4.4488
X4.0906Y-4.4921
X4.0906Y-4.5394
X4.0906Y-4.5827
X4.0945Y-5.0059
X4.1024Y-4.9134
X4.1299Y-4.4488
X4.1299Y-4.4921
X4.1299Y-4.5394
X4.1299Y-4.5827
X4.1732Y-4.4488
X4.1732Y-4.4921
X4.1732Y-4.5394
X4.1732Y-4.5827
X4.1914Y-5.128
X4.2126Y-4.4488
X4.2126Y-4.4921
X4.2126Y-4.5394
X4.2126Y-4.5827
X4.2402Y-3.8504
X4.252Y-5.2362
X4.2835Y-4.0157
X4.2913Y-4.0945
X4.2913Y-5.2362
X4.3307Y-5.2362
X4.3425Y-4.4498
X4.3465Y-4.8622
X4.3504Y-4.9291
X4.3543Y-4.7874
X4.3661Y-4.1575
X4.374Y-2.1457
X4.4094Y-4.7913
X4.4151Y-4.8243
X4.4315Y-2.2441
X4.4331Y-5.0689
X4.4488Y-2.0512
X4.4606Y-3.5906
X4.4606Y-3.6417
X4.4606Y-3.6969
X4.4606Y-3.7362
X4.4685Y-1.7441
X4.4724Y-2.3543
X4.4823Y-5.2362
X4.5049Y-5.2136
X4.5276Y-5.1909
X4.5394Y-5.0472
X4.5466Y-1.7617
X4.5551Y-3.0039
X4.5551Y-3.5433
X4.5569Y-1.7935
X4.5669Y-4.4094
X4.5787Y-2.6936
X4.5827Y-5.3701
X4.5984Y-1.9764
X4.6178Y-2.7326
X4.622Y-4.6693
X4.6378Y-2.5394
X4.639Y-4.6036
X4.6429Y-4.6437
X4.6435Y-5.2011
X4.6457Y-4.4055
X4.6614Y-1.8346
X4.6693Y-3.4724
X4.6772Y-5.2913
X4.6781Y-4.1969
X4.6811Y-2.5394
X4.6888Y-3.0628
X4.7087Y-5.1654
X4.7205Y-2.5394
X4.7402Y-4.4409
X4.7441Y-4.4843
X4.7546Y-4.6346
X4.7734Y-1.7821
X4.7747Y-3.0512
X4.7821Y-4.6614
X4.7874Y-4.9606
X4.8084Y-5.0796
X4.8189Y-1.7756
X4.8425Y-4.995
X4.8496Y-5.0945
X4.8504Y-3.0433
X4.8701Y-3.3976
X4.878Y-2.7638
X4.878Y-5.1299
X4.8839Y-2.2992
X4.8839Y-2.4016
X4.8839Y-2.5
X4.8858Y-2.0
X4.8858Y-2.2008
X4.8898Y-2.0945
X4.9094Y-3.0472
X4.9147Y-1.7718
X4.9291Y-2.7638
X4.9608Y-5.0081
X4.9646Y-1.8674
X4.9685Y-2.7638
X4.9764Y-3.3031
X4.9764Y-4.6421
X4.9764Y-5.1575
X5.0472Y-4.4882
X5.0472Y-5.185
X5.0591Y-5.315
X5.0772Y-4.4504
X5.1047Y-3.2618
X5.1063Y-5.3386
X5.1102Y-4.7323
X5.1693Y-4.5923
X5.2047Y-3.3465
X5.2047Y-5.0709
X5.2284Y-4.811
X5.2677Y-4.7717
X5.2835Y-3.2126
X5.4252Y-2.2992
X5.4252Y-2.4094
X5.4331Y-2.4961
X5.4331Y-2.5866
X5.4488Y-2.1063
X5.4488Y-2.6969
X5.4567Y-2.0
X5.4567Y-2.2087
T2
X3.1008Y-1.6693
X3.1008Y-3.1693
X3.1008Y-3.7402
X3.1008Y-5.2402
X3.2008Y-1.6693
X3.2008Y-3.1693
X3.2008Y-3.7402
X3.2008Y-5.2402
X3.3008Y-1.6693
X3.3008Y-3.1693
X3.3008Y-3.7402
X3.3008Y-5.2402
X3.4008Y-1.6693
X3.4008Y-3.1693
X3.4008Y-3.7402
X3.4008Y-5.2402
X3.5008Y-1.6693
X3.5008Y-3.1693
X3.5008Y-3.7402
X3.5008Y-5.2402
X3.6008Y-1.6693
X3.6008Y-3.1693
X3.6008Y-3.7402
X3.6008Y-5.2402
X3.7008Y-1.6693
X3.7008Y-3.1693
X3.7008Y-3.7402
X3.7008Y-5.2402
X4.5772Y-1.6693
X4.5772Y-3.1693
X4.5772Y-3.7402
X4.5772Y-5.2402
X4.6772Y-1.6693
X4.6772Y-3.1693
X4.6772Y-3.7402
X4.6772Y-5.2402
X4.7772Y-1.6693
X4.7772Y-3.1693
X4.7772Y-3.7402
X4.7772Y-5.2402
X4.8772Y-1.6693
X4.8772Y-3.1693
X4.8772Y-3.7402
X4.8772Y-5.2402
X4.9772Y-1.6693
X4.9772Y-3.1693
X4.9772Y-3.7402
X4.9772Y-5.2402
X5.0772Y-1.6693
X5.0772Y-3.1693
X5.0772Y-3.7402
X5.0772Y-5.2402
X5.1772Y-1.6693
X5.1772Y-3.1693
X5.1772Y-3.7402
X5.1772Y-5.2402
M30
