%TF.GenerationSoftware,KiCad,Pcbnew,8.0.5*%
%TF.CreationDate,2025-02-27T20:45:01-08:00*%
%TF.ProjectId,ledaray,6c656461-7261-4792-9e6b-696361645f70,rev?*%
%TF.SameCoordinates,Original*%
%TF.FileFunction,Copper,L1,Top*%
%TF.FilePolarity,Positive*%
%FSLAX46Y46*%
G04 Gerber Fmt 4.6, Leading zero omitted, Abs format (unit mm)*
G04 Created by KiCad (PCBNEW 8.0.5) date 2025-02-27 20:45:01*
%MOMM*%
%LPD*%
G01*
G04 APERTURE LIST*
G04 Aperture macros list*
%AMRoundRect*
0 Rectangle with rounded corners*
0 $1 Rounding radius*
0 $2 $3 $4 $5 $6 $7 $8 $9 X,Y pos of 4 corners*
0 Add a 4 corners polygon primitive as box body*
4,1,4,$2,$3,$4,$5,$6,$7,$8,$9,$2,$3,0*
0 Add four circle primitives for the rounded corners*
1,1,$1+$1,$2,$3*
1,1,$1+$1,$4,$5*
1,1,$1+$1,$6,$7*
1,1,$1+$1,$8,$9*
0 Add four rect primitives between the rounded corners*
20,1,$1+$1,$2,$3,$4,$5,0*
20,1,$1+$1,$4,$5,$6,$7,0*
20,1,$1+$1,$6,$7,$8,$9,0*
20,1,$1+$1,$8,$9,$2,$3,0*%
%AMFreePoly0*
4,1,6,1.000000,0.000000,0.500000,-0.750000,-0.500000,-0.750000,-0.500000,0.750000,0.500000,0.750000,1.000000,0.000000,1.000000,0.000000,$1*%
%AMFreePoly1*
4,1,6,0.500000,-0.750000,-0.650000,-0.750000,-0.150000,0.000000,-0.650000,0.750000,0.500000,0.750000,0.500000,-0.750000,0.500000,-0.750000,$1*%
G04 Aperture macros list end*
%TA.AperFunction,SMDPad,CuDef*%
%ADD10FreePoly0,0.000000*%
%TD*%
%TA.AperFunction,SMDPad,CuDef*%
%ADD11FreePoly1,0.000000*%
%TD*%
%TA.AperFunction,SMDPad,CuDef*%
%ADD12FreePoly0,180.000000*%
%TD*%
%TA.AperFunction,SMDPad,CuDef*%
%ADD13FreePoly1,180.000000*%
%TD*%
%TA.AperFunction,SMDPad,CuDef*%
%ADD14RoundRect,0.250000X0.475000X-0.250000X0.475000X0.250000X-0.475000X0.250000X-0.475000X-0.250000X0*%
%TD*%
%TA.AperFunction,SMDPad,CuDef*%
%ADD15RoundRect,0.250000X-0.250000X-0.475000X0.250000X-0.475000X0.250000X0.475000X-0.250000X0.475000X0*%
%TD*%
%TA.AperFunction,SMDPad,CuDef*%
%ADD16RoundRect,0.250000X-0.262500X-0.450000X0.262500X-0.450000X0.262500X0.450000X-0.262500X0.450000X0*%
%TD*%
%TA.AperFunction,SMDPad,CuDef*%
%ADD17RoundRect,0.050000X-0.375000X-0.050000X0.375000X-0.050000X0.375000X0.050000X-0.375000X0.050000X0*%
%TD*%
%TA.AperFunction,SMDPad,CuDef*%
%ADD18RoundRect,0.050000X-0.050000X-0.375000X0.050000X-0.375000X0.050000X0.375000X-0.050000X0.375000X0*%
%TD*%
%TA.AperFunction,HeatsinkPad*%
%ADD19R,4.200000X4.200000*%
%TD*%
%TA.AperFunction,SMDPad,CuDef*%
%ADD20RoundRect,0.250000X0.262500X0.450000X-0.262500X0.450000X-0.262500X-0.450000X0.262500X-0.450000X0*%
%TD*%
%TA.AperFunction,SMDPad,CuDef*%
%ADD21RoundRect,0.250000X0.450000X-0.262500X0.450000X0.262500X-0.450000X0.262500X-0.450000X-0.262500X0*%
%TD*%
%TA.AperFunction,SMDPad,CuDef*%
%ADD22RoundRect,0.250000X0.250000X0.475000X-0.250000X0.475000X-0.250000X-0.475000X0.250000X-0.475000X0*%
%TD*%
%TA.AperFunction,SMDPad,CuDef*%
%ADD23RoundRect,0.250000X1.250000X0.550000X-1.250000X0.550000X-1.250000X-0.550000X1.250000X-0.550000X0*%
%TD*%
%TA.AperFunction,SMDPad,CuDef*%
%ADD24RoundRect,0.255000X-2.245000X-0.255000X2.245000X-0.255000X2.245000X0.255000X-2.245000X0.255000X0*%
%TD*%
%TA.AperFunction,ComponentPad*%
%ADD25C,1.524000*%
%TD*%
%TA.AperFunction,ViaPad*%
%ADD26C,0.600000*%
%TD*%
%TA.AperFunction,Conductor*%
%ADD27C,1.000000*%
%TD*%
%TA.AperFunction,Conductor*%
%ADD28C,0.400000*%
%TD*%
%TA.AperFunction,Conductor*%
%ADD29C,0.500000*%
%TD*%
%TA.AperFunction,Conductor*%
%ADD30C,0.300000*%
%TD*%
%TA.AperFunction,Conductor*%
%ADD31C,0.200000*%
%TD*%
G04 APERTURE END LIST*
D10*
%TO.P,JP10,1,A*%
%TO.N,/VCC*%
X103550002Y-60000000D03*
D11*
%TO.P,JP10,2,B*%
%TO.N,/ADDR1*%
X105000000Y-60000000D03*
%TD*%
D10*
%TO.P,JP9,1,A*%
%TO.N,/SDA*%
X103550002Y-57000000D03*
D11*
%TO.P,JP9,2,B*%
%TO.N,/ADDR1*%
X105000000Y-57000000D03*
%TD*%
D10*
%TO.P,JP8,1,A*%
%TO.N,/SCL*%
X103550001Y-54000000D03*
D11*
%TO.P,JP8,2,B*%
%TO.N,/ADDR1*%
X104999999Y-54000000D03*
%TD*%
D10*
%TO.P,JP7,1,A*%
%TO.N,GND*%
X103550002Y-51000000D03*
D11*
%TO.P,JP7,2,B*%
%TO.N,/ADDR1*%
X105000000Y-51000000D03*
%TD*%
D12*
%TO.P,JP6,1,A*%
%TO.N,/VCC*%
X100999999Y-60000000D03*
D13*
%TO.P,JP6,2,B*%
%TO.N,/ADDR2*%
X99550001Y-60000000D03*
%TD*%
D12*
%TO.P,JP5,1,A*%
%TO.N,/SDA*%
X101000000Y-57000000D03*
D13*
%TO.P,JP5,2,B*%
%TO.N,/ADDR2*%
X99550002Y-57000000D03*
%TD*%
D12*
%TO.P,JP4,1,A*%
%TO.N,/SCL*%
X100999999Y-54000000D03*
D13*
%TO.P,JP4,2,B*%
%TO.N,/ADDR2*%
X99550001Y-54000000D03*
%TD*%
D12*
%TO.P,JP3,1,A*%
%TO.N,GND*%
X101000000Y-51000000D03*
D13*
%TO.P,JP3,2,B*%
%TO.N,/ADDR2*%
X99550002Y-51000000D03*
%TD*%
D14*
%TO.P,C3,1*%
%TO.N,/VCC*%
X118000000Y-114949999D03*
%TO.P,C3,2*%
%TO.N,GND*%
X118000000Y-113050001D03*
%TD*%
D15*
%TO.P,C2,1*%
%TO.N,/VIO*%
X108000000Y-106000000D03*
%TO.P,C2,2*%
%TO.N,GND*%
X109900000Y-106000000D03*
%TD*%
%TO.P,C4,1*%
%TO.N,/VCC*%
X107100002Y-123449999D03*
%TO.P,C4,2*%
%TO.N,GND*%
X109000000Y-123449999D03*
%TD*%
%TO.P,C6,1*%
%TO.N,/VCC*%
X107000000Y-126000000D03*
%TO.P,C6,2*%
%TO.N,GND*%
X108899998Y-126000000D03*
%TD*%
D16*
%TO.P,R2,1*%
%TO.N,/ISET*%
X117000000Y-108000000D03*
%TO.P,R2,2*%
%TO.N,GND*%
X118825000Y-108000000D03*
%TD*%
D17*
%TO.P,U1,1,NC*%
%TO.N,unconnected-(U1-NC-Pad1)*%
X102675000Y-112425000D03*
%TO.P,U1,2,SW1*%
%TO.N,/SW1*%
X102675000Y-112825000D03*
%TO.P,U1,3,SW2*%
%TO.N,/SW2*%
X102675000Y-113225000D03*
%TO.P,U1,4,SW3*%
%TO.N,/SW3*%
X102675000Y-113625000D03*
%TO.P,U1,5,PGND*%
%TO.N,GND*%
X102675000Y-114025000D03*
%TO.P,U1,6,SW4*%
%TO.N,/SW4*%
X102675000Y-114425000D03*
%TO.P,U1,7,SW5*%
%TO.N,/SW5*%
X102675000Y-114825000D03*
%TO.P,U1,8,SW6*%
%TO.N,/SW6*%
X102675000Y-115225000D03*
%TO.P,U1,9,SW7*%
%TO.N,/SW7*%
X102675000Y-115625000D03*
%TO.P,U1,10,SW8*%
%TO.N,/SW8*%
X102675000Y-116025000D03*
%TO.P,U1,11,SW9*%
%TO.N,/SW9*%
X102675000Y-116425000D03*
%TO.P,U1,12,PGND*%
%TO.N,GND*%
X102675000Y-116825000D03*
D18*
%TO.P,U1,13,SW10*%
%TO.N,/SW10*%
X103425000Y-117575000D03*
%TO.P,U1,14,SW11*%
%TO.N,/SW11*%
X103825000Y-117575000D03*
%TO.P,U1,15,SW12*%
%TO.N,/SW12*%
X104225000Y-117575000D03*
%TO.P,U1,16,CS1*%
%TO.N,/CS1*%
X104625000Y-117575000D03*
%TO.P,U1,17,CS2*%
%TO.N,/CS2*%
X105025000Y-117575000D03*
%TO.P,U1,18,CS3*%
%TO.N,/CS3*%
X105425000Y-117575000D03*
%TO.P,U1,19,CS4*%
%TO.N,/CS4*%
X105825000Y-117575000D03*
%TO.P,U1,20,PVCC*%
%TO.N,/VCC*%
X106225000Y-117575000D03*
%TO.P,U1,21,CS5*%
%TO.N,/CS5*%
X106625000Y-117575000D03*
%TO.P,U1,22,CS6*%
%TO.N,/CS6*%
X107025000Y-117575000D03*
%TO.P,U1,23,CS7*%
%TO.N,/CS7*%
X107425000Y-117575000D03*
%TO.P,U1,24,CS8*%
%TO.N,/CS8*%
X107825000Y-117575000D03*
D17*
%TO.P,U1,25,CS9*%
%TO.N,/CS9*%
X108575000Y-116825000D03*
%TO.P,U1,26,CS10*%
%TO.N,/CS10*%
X108575000Y-116425000D03*
%TO.P,U1,27,CS11*%
%TO.N,/CS11*%
X108575000Y-116025000D03*
%TO.P,U1,28,CS12*%
%TO.N,/CS12*%
X108575000Y-115625000D03*
%TO.P,U1,29,PVCC*%
%TO.N,/VCC*%
X108575000Y-115225000D03*
%TO.P,U1,30,CS13*%
%TO.N,/CS13*%
X108575000Y-114825000D03*
%TO.P,U1,31,CS14*%
%TO.N,/CS14*%
X108575000Y-114425000D03*
%TO.P,U1,32,CS15*%
%TO.N,/CS15*%
X108575000Y-114025000D03*
%TO.P,U1,33,CS16*%
%TO.N,/CS16*%
X108575000Y-113625000D03*
%TO.P,U1,34,AGND*%
%TO.N,GND*%
X108575000Y-113225000D03*
%TO.P,U1,35,RSET*%
%TO.N,/ISET*%
X108575000Y-112825000D03*
%TO.P,U1,36,NC*%
%TO.N,unconnected-(U1-NC-Pad36)*%
X108575000Y-112425000D03*
D18*
%TO.P,U1,37,AVCC*%
%TO.N,/VCC*%
X107825000Y-111675000D03*
%TO.P,U1,38,DVCC*%
X107425000Y-111675000D03*
%TO.P,U1,39,VIO*%
%TO.N,/VIO*%
X107025000Y-111675000D03*
%TO.P,U1,40,SYNC*%
%TO.N,/SYNC*%
X106625000Y-111675000D03*
%TO.P,U1,41,SDA*%
%TO.N,/SDA*%
X106225000Y-111675000D03*
%TO.P,U1,42,SCL*%
%TO.N,/SCL*%
X105825000Y-111675000D03*
%TO.P,U1,43,ADDR1*%
%TO.N,/ADDR1*%
X105425000Y-111675000D03*
%TO.P,U1,44,ADDR2*%
%TO.N,/ADDR2*%
X105025000Y-111675000D03*
%TO.P,U1,45,~{INTB}*%
%TO.N,/~{INTB}*%
X104625000Y-111675000D03*
%TO.P,U1,46,~{SDB}*%
%TO.N,/~{SDB}*%
X104225000Y-111675000D03*
%TO.P,U1,47,IICRST*%
%TO.N,Net-(U1-IICRST)*%
X103825000Y-111675000D03*
%TO.P,U1,48,GND*%
%TO.N,GND*%
X103425000Y-111675000D03*
D19*
%TO.P,U1,49,GND*%
X105625000Y-114625000D03*
%TD*%
D20*
%TO.P,R3,1*%
%TO.N,/VIO*%
X111825000Y-98000000D03*
%TO.P,R3,2*%
%TO.N,/~{INTB}*%
X110000000Y-98000000D03*
%TD*%
D21*
%TO.P,R1,2*%
%TO.N,GND*%
X99000000Y-102175000D03*
%TO.P,R1,1*%
%TO.N,Net-(U1-IICRST)*%
X99000000Y-104000000D03*
%TD*%
D22*
%TO.P,C5,1*%
%TO.N,/VCC*%
X112000000Y-104000000D03*
%TO.P,C5,2*%
%TO.N,GND*%
X110100002Y-104000000D03*
%TD*%
D14*
%TO.P,C8,1*%
%TO.N,/VCC*%
X116000000Y-115000000D03*
%TO.P,C8,2*%
%TO.N,GND*%
X116000000Y-113100002D03*
%TD*%
D22*
%TO.P,C7,1*%
%TO.N,/VCC*%
X111899998Y-102000000D03*
%TO.P,C7,2*%
%TO.N,GND*%
X110000000Y-102000000D03*
%TD*%
D23*
%TO.P,C9,1*%
%TO.N,/VCC*%
X118800000Y-72900000D03*
%TO.P,C9,2*%
%TO.N,GND*%
X114400000Y-72900000D03*
%TD*%
D24*
%TO.P,J1,1,Pin_1*%
%TO.N,/VIO*%
X127000000Y-50800000D03*
%TO.P,J1,2,Pin_2*%
%TO.N,GND*%
X134600000Y-50800000D03*
%TO.P,J1,3,Pin_3*%
%TO.N,/SYNC*%
X127000000Y-53340000D03*
%TO.P,J1,4,Pin_4*%
%TO.N,GND*%
X134600000Y-53340000D03*
%TO.P,J1,5,Pin_5*%
%TO.N,/SCL*%
X127000000Y-55880000D03*
%TO.P,J1,6,Pin_6*%
%TO.N,GND*%
X134600000Y-55880000D03*
%TO.P,J1,7,Pin_7*%
%TO.N,/SDA*%
X127000000Y-58420000D03*
%TO.P,J1,8,Pin_8*%
%TO.N,GND*%
X134600000Y-58420000D03*
%TO.P,J1,9,Pin_9*%
%TO.N,/~{INTB}*%
X127000000Y-60960000D03*
%TO.P,J1,10,Pin_10*%
%TO.N,GND*%
X134600000Y-60960000D03*
%TO.P,J1,11,Pin_11*%
%TO.N,/~{SDB}*%
X127000000Y-63500000D03*
%TO.P,J1,12,Pin_12*%
%TO.N,GND*%
X134600000Y-63500000D03*
%TO.P,J1,13,Pin_13*%
%TO.N,/VCC*%
X127000000Y-66040000D03*
%TO.P,J1,14,Pin_14*%
%TO.N,GND*%
X134600000Y-66040000D03*
%TO.P,J1,15,Pin_15*%
%TO.N,/VCC*%
X127000000Y-68580000D03*
%TO.P,J1,16,Pin_16*%
%TO.N,GND*%
X134600000Y-68580000D03*
%TD*%
D21*
%TO.P,R4,1*%
%TO.N,/~{SDB}*%
X102000000Y-104000000D03*
%TO.P,R4,2*%
%TO.N,GND*%
X102000000Y-102175000D03*
%TD*%
D24*
%TO.P,J3,1,Pin_1*%
%TO.N,/VIO*%
X76200000Y-50800000D03*
%TO.P,J3,2,Pin_2*%
%TO.N,GND*%
X83800000Y-50800000D03*
%TO.P,J3,3,Pin_3*%
%TO.N,/SYNC*%
X76200000Y-53340000D03*
%TO.P,J3,4,Pin_4*%
%TO.N,GND*%
X83800000Y-53340000D03*
%TO.P,J3,5,Pin_5*%
%TO.N,/SCL*%
X76200000Y-55880000D03*
%TO.P,J3,6,Pin_6*%
%TO.N,GND*%
X83800000Y-55880000D03*
%TO.P,J3,7,Pin_7*%
%TO.N,/SDA*%
X76200000Y-58420000D03*
%TO.P,J3,8,Pin_8*%
%TO.N,GND*%
X83800000Y-58420000D03*
%TO.P,J3,9,Pin_9*%
%TO.N,/~{INTB}*%
X76200000Y-60960000D03*
%TO.P,J3,10,Pin_10*%
%TO.N,GND*%
X83800000Y-60960000D03*
%TO.P,J3,11,Pin_11*%
%TO.N,/~{SDB}*%
X76200000Y-63500000D03*
%TO.P,J3,12,Pin_12*%
%TO.N,GND*%
X83800000Y-63500000D03*
%TO.P,J3,13,Pin_13*%
%TO.N,/VCC*%
X76200000Y-66040000D03*
%TO.P,J3,14,Pin_14*%
%TO.N,GND*%
X83800000Y-66040000D03*
%TO.P,J3,15,Pin_15*%
%TO.N,/VCC*%
X76200000Y-68580000D03*
%TO.P,J3,16,Pin_16*%
%TO.N,GND*%
X83800000Y-68580000D03*
%TD*%
D25*
%TO.P,U2,1,R5*%
%TO.N,/CS5*%
X131500000Y-80500000D03*
%TO.P,U2,2,R7*%
%TO.N,/CS7*%
X128960000Y-80500000D03*
%TO.P,U2,3,C2*%
%TO.N,/SW2*%
X126420000Y-80500000D03*
%TO.P,U2,4,C3*%
%TO.N,/SW3*%
X123880000Y-80500000D03*
%TO.P,U2,5,R4*%
%TO.N,/CS4*%
X121340000Y-80500000D03*
%TO.P,U2,6,C5*%
%TO.N,/SW5*%
X118800000Y-80500000D03*
%TO.P,U2,7,R6*%
%TO.N,/CS6*%
X116260000Y-80500000D03*
%TO.P,U2,8,R3*%
%TO.N,/CS3*%
X116260000Y-42400000D03*
%TO.P,U2,9,R1*%
%TO.N,/CS1*%
X118800000Y-42400000D03*
%TO.P,U2,10,C4*%
%TO.N,/SW4*%
X121340000Y-42400000D03*
%TO.P,U2,11,C3*%
%TO.N,/SW3*%
X123880000Y-42400000D03*
%TO.P,U2,12,R4*%
%TO.N,/CS4*%
X126420000Y-42400000D03*
%TO.P,U2,13,C1*%
%TO.N,/SW1*%
X128960000Y-42400000D03*
%TO.P,U2,14,R2*%
%TO.N,/CS2*%
X131500000Y-42400000D03*
%TD*%
%TO.P,U5,1,R5*%
%TO.N,/CS12*%
X131500000Y-133100000D03*
%TO.P,U5,2,R7*%
%TO.N,/CS14*%
X128960000Y-133100000D03*
%TO.P,U5,3,C2*%
%TO.N,/SW7*%
X126420000Y-133100000D03*
%TO.P,U5,4,C3*%
%TO.N,/SW8*%
X123880000Y-133100000D03*
%TO.P,U5,5,R4*%
%TO.N,/CS11*%
X121340000Y-133100000D03*
%TO.P,U5,6,C5*%
%TO.N,/SW10*%
X118800000Y-133100000D03*
%TO.P,U5,7,R6*%
%TO.N,/CS13*%
X116260000Y-133100000D03*
%TO.P,U5,8,R3*%
%TO.N,/CS10*%
X116260000Y-95000000D03*
%TO.P,U5,9,R1*%
%TO.N,/CS8*%
X118800000Y-95000000D03*
%TO.P,U5,10,C4*%
%TO.N,/SW9*%
X121340000Y-95000000D03*
%TO.P,U5,11,C3*%
%TO.N,/SW8*%
X123880000Y-95000000D03*
%TO.P,U5,12,R4*%
%TO.N,/CS11*%
X126420000Y-95000000D03*
%TO.P,U5,13,C1*%
%TO.N,/SW6*%
X128960000Y-95000000D03*
%TO.P,U5,14,R2*%
%TO.N,/CS9*%
X131500000Y-95000000D03*
%TD*%
%TO.P,U3,1,R5*%
%TO.N,/CS5*%
X94000000Y-80500000D03*
%TO.P,U3,2,R7*%
%TO.N,/CS7*%
X91460000Y-80500000D03*
%TO.P,U3,3,C2*%
%TO.N,/SW7*%
X88920000Y-80500000D03*
%TO.P,U3,4,C3*%
%TO.N,/SW8*%
X86380000Y-80500000D03*
%TO.P,U3,5,R4*%
%TO.N,/CS4*%
X83840000Y-80500000D03*
%TO.P,U3,6,C5*%
%TO.N,/SW10*%
X81300000Y-80500000D03*
%TO.P,U3,7,R6*%
%TO.N,/CS6*%
X78760000Y-80500000D03*
%TO.P,U3,8,R3*%
%TO.N,/CS3*%
X78760000Y-42400000D03*
%TO.P,U3,9,R1*%
%TO.N,/CS1*%
X81300000Y-42400000D03*
%TO.P,U3,10,C4*%
%TO.N,/SW9*%
X83840000Y-42400000D03*
%TO.P,U3,11,C3*%
%TO.N,/SW8*%
X86380000Y-42400000D03*
%TO.P,U3,12,R4*%
%TO.N,/CS4*%
X88920000Y-42400000D03*
%TO.P,U3,13,C1*%
%TO.N,/SW6*%
X91460000Y-42400000D03*
%TO.P,U3,14,R2*%
%TO.N,/CS2*%
X94000000Y-42400000D03*
%TD*%
%TO.P,U4,1,R5*%
%TO.N,/CS12*%
X94000000Y-133100000D03*
%TO.P,U4,2,R7*%
%TO.N,/CS14*%
X91460000Y-133100000D03*
%TO.P,U4,3,C2*%
%TO.N,/SW2*%
X88920000Y-133100000D03*
%TO.P,U4,4,C3*%
%TO.N,/SW3*%
X86380000Y-133100000D03*
%TO.P,U4,5,R4*%
%TO.N,/CS11*%
X83840000Y-133100000D03*
%TO.P,U4,6,C5*%
%TO.N,/SW5*%
X81300000Y-133100000D03*
%TO.P,U4,7,R6*%
%TO.N,/CS13*%
X78760000Y-133100000D03*
%TO.P,U4,8,R3*%
%TO.N,/CS10*%
X78760000Y-95000000D03*
%TO.P,U4,9,R1*%
%TO.N,/CS8*%
X81300000Y-95000000D03*
%TO.P,U4,10,C4*%
%TO.N,/SW4*%
X83840000Y-95000000D03*
%TO.P,U4,11,C3*%
%TO.N,/SW3*%
X86380000Y-95000000D03*
%TO.P,U4,12,R4*%
%TO.N,/CS11*%
X88920000Y-95000000D03*
%TO.P,U4,13,C1*%
%TO.N,/SW1*%
X91460000Y-95000000D03*
%TO.P,U4,14,R2*%
%TO.N,/CS9*%
X94000000Y-95000000D03*
%TD*%
D26*
%TO.N,GND*%
X115999995Y-112000005D03*
X110400000Y-123500000D03*
X108800000Y-102000000D03*
X109000000Y-104000000D03*
%TO.N,/VCC*%
X95700000Y-62000000D03*
%TO.N,/~{INTB}*%
X113600000Y-59800000D03*
%TO.N,/VCC*%
X95600000Y-70400000D03*
%TO.N,/~{SDB}*%
X98600000Y-62650000D03*
%TO.N,/SCL*%
X111100000Y-54500000D03*
%TO.N,/SDA*%
X112560091Y-57000000D03*
X78740000Y-57150000D03*
%TO.N,/SCL*%
X80010000Y-54610000D03*
%TO.N,GND*%
X102000000Y-51000000D03*
%TO.N,/VCC*%
X101000000Y-62000000D03*
%TO.N,/SCL*%
X102000000Y-54000000D03*
%TO.N,/SDA*%
X102000000Y-57000000D03*
%TO.N,GND*%
X106000000Y-115300000D03*
X110500000Y-125200000D03*
X118000000Y-111900000D03*
X86900000Y-64100000D03*
X138000000Y-63400000D03*
X107000000Y-115300000D03*
X103900000Y-114100000D03*
X103900000Y-116400000D03*
X138400000Y-53500000D03*
X110899996Y-105600000D03*
X97400000Y-113700000D03*
X117800000Y-64500000D03*
X104900000Y-113000000D03*
X86900000Y-59100000D03*
X118900000Y-64500000D03*
X86900000Y-61200000D03*
X113300000Y-93900000D03*
X86900000Y-51000000D03*
X137800000Y-58400000D03*
X86900000Y-53700000D03*
X113300000Y-94900000D03*
X107000000Y-113000000D03*
X103900000Y-113000000D03*
X110300000Y-113025000D03*
X103900000Y-115300000D03*
X137800000Y-61200000D03*
X138400000Y-68500000D03*
X138600000Y-50800000D03*
X138600000Y-56100000D03*
X106000000Y-116400000D03*
X113300000Y-91200000D03*
X118825000Y-106600000D03*
X102875001Y-110462502D03*
X104900000Y-115300000D03*
X87000000Y-68600000D03*
X86900000Y-66000000D03*
X138000000Y-65700000D03*
X107000000Y-116400000D03*
X119900000Y-64500000D03*
X99000000Y-100900000D03*
X104900000Y-116400000D03*
X106000000Y-114100000D03*
X100926160Y-117449382D03*
X86900000Y-56300000D03*
X104900000Y-114100000D03*
X113300000Y-92500010D03*
X102000000Y-100700000D03*
X106000000Y-113000000D03*
%TO.N,/VIO*%
X124100000Y-50800000D03*
X116800000Y-50200000D03*
X78500000Y-49600000D03*
%TO.N,/VCC*%
X126200000Y-70200000D03*
X113850000Y-133000000D03*
X108000000Y-133000000D03*
X114425000Y-132425000D03*
X125200000Y-70200000D03*
X123900000Y-70200000D03*
X116300000Y-68417978D03*
X115000000Y-131850000D03*
X77900000Y-70400000D03*
X109000000Y-133000000D03*
X76600000Y-70400000D03*
X78900000Y-70400000D03*
X110000000Y-133000000D03*
X117291012Y-69408990D03*
%TO.N,/~{INTB}*%
X103900000Y-97800000D03*
X124050000Y-61000000D03*
X79600000Y-60000000D03*
X107700000Y-97800000D03*
%TO.N,/~{SDB}*%
X124050000Y-63500000D03*
X79300000Y-63700000D03*
%TO.N,/SW8*%
X93255663Y-130105864D03*
X91801623Y-118200002D03*
X95300000Y-118100000D03*
X123900000Y-130300000D03*
X86300000Y-45100000D03*
X85099998Y-118100000D03*
%TO.N,/SW4*%
X115482646Y-44746515D03*
X84000000Y-83300000D03*
X95045842Y-114245509D03*
X90732000Y-83100000D03*
X95300000Y-45000000D03*
X83700000Y-114500000D03*
%TO.N,/SW2*%
X95300000Y-111800002D03*
X87500000Y-113675665D03*
X126400000Y-83900000D03*
X87200000Y-84100000D03*
%TO.N,/SW6*%
X93959545Y-115140455D03*
X92965513Y-128000000D03*
X92400000Y-46800000D03*
X90700000Y-114700000D03*
X126005025Y-127205025D03*
X92400000Y-43600000D03*
%TO.N,/CS5*%
X132800246Y-122200000D03*
X112143284Y-122537839D03*
X129660000Y-82848575D03*
%TO.N,/CS12*%
X131300000Y-116644975D03*
X93724783Y-135200000D03*
X129700000Y-135600000D03*
X117831253Y-116930544D03*
%TO.N,/CS1*%
X77700000Y-124700000D03*
X81300000Y-44200000D03*
X81300000Y-46500000D03*
X104200000Y-124800000D03*
%TO.N,/CS2*%
X94300000Y-126200000D03*
X103504588Y-126199986D03*
X126100000Y-47431945D03*
X121243516Y-45266534D03*
X118400000Y-46600000D03*
X93900000Y-46000000D03*
%TO.N,/SW9*%
X83800000Y-44900000D03*
X79400000Y-118400000D03*
X94762713Y-127646608D03*
X80200000Y-83400000D03*
X123000000Y-126874242D03*
X82100000Y-83200000D03*
X95000000Y-118900000D03*
%TO.N,/SW7*%
X126400000Y-131000000D03*
X89000000Y-115700000D03*
X93949925Y-116050075D03*
X93746254Y-130800000D03*
%TO.N,/CS10*%
X78900000Y-90100000D03*
X115700000Y-90000000D03*
X121466014Y-118400000D03*
X117400000Y-118600000D03*
%TO.N,/SCL*%
X124100000Y-55900000D03*
%TO.N,/CS13*%
X120500000Y-113900000D03*
X128200000Y-114000000D03*
X117945535Y-132108774D03*
X116400000Y-136400000D03*
X128200000Y-131700000D03*
%TO.N,/CS4*%
X115744975Y-45555025D03*
X123180000Y-129400000D03*
X122400000Y-45100000D03*
X106462713Y-130250000D03*
X124832410Y-45004283D03*
X88700000Y-45100000D03*
X95800000Y-45800000D03*
X95300000Y-47700000D03*
X84200000Y-76200000D03*
X89300000Y-47600000D03*
X119094975Y-77794975D03*
%TO.N,/SW1*%
X90800000Y-110900000D03*
X95609620Y-110609620D03*
X132200000Y-85000000D03*
X91300000Y-84900000D03*
%TO.N,/SDA*%
X124050000Y-58400000D03*
%TO.N,/SYNC*%
X79800000Y-53300000D03*
X124200004Y-53200000D03*
X113000000Y-52100000D03*
%TO.N,/CS6*%
X115700000Y-76300000D03*
X133800000Y-121200000D03*
X112000000Y-121700000D03*
X82388672Y-76288672D03*
X134200000Y-81600000D03*
%TO.N,/CS11*%
X119600000Y-131200000D03*
X88100000Y-128000000D03*
X84500000Y-131400000D03*
X117930602Y-117949132D03*
X120766014Y-117718139D03*
X126400000Y-117908591D03*
X84500000Y-128000000D03*
%TO.N,/SW10*%
X82500000Y-121100000D03*
X95800000Y-121100000D03*
X95800000Y-134100000D03*
X102557312Y-126157312D03*
X95800000Y-126200000D03*
X118800000Y-134400000D03*
%TO.N,/CS8*%
X122132843Y-129022794D03*
X112600000Y-128750000D03*
X82400000Y-128500000D03*
%TO.N,/CS14*%
X128500000Y-135000000D03*
X92500000Y-135200000D03*
X120400000Y-112800000D03*
X128960000Y-113040000D03*
%TO.N,/CS7*%
X121278001Y-77500000D03*
X91400000Y-76400000D03*
X110600000Y-121600000D03*
X123200000Y-77300000D03*
X124700000Y-77400000D03*
X129800000Y-120200000D03*
%TO.N,/SW5*%
X94796422Y-115058093D03*
X77300000Y-115100000D03*
X118600000Y-88200000D03*
X81100000Y-114890476D03*
X76400000Y-88000000D03*
%TO.N,/SW3*%
X86400000Y-86300000D03*
X123700000Y-86300000D03*
X95151729Y-113361445D03*
X86700000Y-113600000D03*
%TO.N,/CS3*%
X95000000Y-44000000D03*
X113500000Y-44300000D03*
X121600000Y-126000000D03*
X104000000Y-127149996D03*
%TO.N,/CS9*%
X115300000Y-128200000D03*
X132200000Y-128800000D03*
X92400198Y-128700000D03*
%TO.N,GND*%
X107000000Y-114100000D03*
%TD*%
D27*
%TO.N,/VCC*%
X117291012Y-71391012D02*
X117291012Y-69408990D01*
X116300000Y-68417978D02*
X117291012Y-69408990D01*
X118800000Y-72900000D02*
X117291012Y-71391012D01*
D28*
%TO.N,GND*%
X109900000Y-106000000D02*
X110499996Y-106000000D01*
X110499996Y-106000000D02*
X110899996Y-105600000D01*
D29*
%TO.N,/VCC*%
X112000000Y-106431371D02*
X110431371Y-108000000D01*
X112000000Y-104000000D02*
X112000000Y-106431371D01*
X110431371Y-108000000D02*
X108400000Y-108000000D01*
D30*
%TO.N,GND*%
X118825000Y-108000000D02*
X118825000Y-106600000D01*
D29*
X116000000Y-113100002D02*
X116000000Y-112000010D01*
X116000000Y-112000010D02*
X115999995Y-112000005D01*
X118000000Y-113050001D02*
X118000000Y-111900000D01*
X110349999Y-123449999D02*
X110400000Y-123500000D01*
X109000000Y-123449999D02*
X110349999Y-123449999D01*
X110000000Y-102000000D02*
X108800000Y-102000000D01*
X110100002Y-104000000D02*
X109000000Y-104000000D01*
X110100002Y-102100002D02*
X110000000Y-102000000D01*
X110100002Y-104000000D02*
X110100002Y-102100002D01*
X109700000Y-126000000D02*
X110500000Y-125200000D01*
X108899998Y-126000000D02*
X109700000Y-126000000D01*
X109000000Y-125899998D02*
X108899998Y-126000000D01*
X109000000Y-123449999D02*
X109000000Y-125899998D01*
D31*
%TO.N,/ISET*%
X112025000Y-112375000D02*
X116400000Y-108000000D01*
X109651104Y-112375000D02*
X112025000Y-112375000D01*
X116400000Y-108000000D02*
X117000000Y-108000000D01*
X108575000Y-112825000D02*
X109201104Y-112825000D01*
X109201104Y-112825000D02*
X109651104Y-112375000D01*
D30*
%TO.N,GND*%
X109787500Y-112875000D02*
X110150000Y-112875000D01*
X110150000Y-112875000D02*
X110300000Y-113025000D01*
D31*
%TO.N,/~{SDB}*%
X104225000Y-106225000D02*
X104225000Y-111675000D01*
X102000000Y-104000000D02*
X104225000Y-106225000D01*
%TO.N,Net-(U1-IICRST)*%
X103825000Y-108825000D02*
X103825000Y-111675000D01*
X99000000Y-104000000D02*
X103825000Y-108825000D01*
D30*
%TO.N,/SW9*%
X96007106Y-118900000D02*
X95000000Y-118900000D01*
X98107106Y-116800000D02*
X96007106Y-118900000D01*
X100546880Y-116800000D02*
X98107106Y-116800000D01*
X100621880Y-116875000D02*
X100546880Y-116800000D01*
%TO.N,/SW7*%
X96000000Y-116300000D02*
X96400000Y-115900000D01*
X94411983Y-116300000D02*
X96000000Y-116300000D01*
X94162058Y-116050075D02*
X94411983Y-116300000D01*
X93949925Y-116050075D02*
X94162058Y-116050075D01*
%TO.N,/SW6*%
X95407106Y-115800000D02*
X95832106Y-115375000D01*
X94619090Y-115800000D02*
X95407106Y-115800000D01*
X93959545Y-115140455D02*
X94619090Y-115800000D01*
%TO.N,/CS2*%
X92975000Y-124875000D02*
X94300000Y-126200000D01*
X96300000Y-109000000D02*
X92975000Y-112325000D01*
X95731996Y-74012757D02*
X95731996Y-77236596D01*
X96300000Y-77804600D02*
X96300000Y-109000000D01*
X94453553Y-73346447D02*
X95065686Y-73346447D01*
X93900000Y-72792894D02*
X94453553Y-73346447D01*
X93900000Y-46000000D02*
X93900000Y-72792894D01*
X95065686Y-73346447D02*
X95731996Y-74012757D01*
X92975000Y-112325000D02*
X92975000Y-124875000D01*
X95731996Y-77236596D02*
X96300000Y-77804600D01*
%TO.N,/SW8*%
X86380000Y-80500000D02*
X85099998Y-81780002D01*
X85099998Y-81780002D02*
X85099998Y-118100000D01*
X91801623Y-124691573D02*
X91801623Y-118200002D01*
X93680608Y-126570558D02*
X91801623Y-124691573D01*
X93680608Y-129680919D02*
X93680608Y-126570558D01*
X93255663Y-130105864D02*
X93680608Y-129680919D01*
X96100000Y-118100000D02*
X95300000Y-118100000D01*
X97825000Y-116375000D02*
X96100000Y-118100000D01*
%TO.N,/SW9*%
X95050911Y-127358410D02*
X95050911Y-118950911D01*
X94762713Y-127646608D02*
X95050911Y-127358410D01*
X95050911Y-118950911D02*
X95000000Y-118900000D01*
%TO.N,/SW6*%
X90199991Y-115200009D02*
X90700000Y-114700000D01*
X90199991Y-125234478D02*
X90199991Y-115200009D01*
X95442894Y-109150000D02*
X90700000Y-113892894D01*
X95442894Y-79564980D02*
X95442894Y-109150000D01*
X92400000Y-46800000D02*
X92400000Y-76522086D01*
X90700000Y-113892894D02*
X90700000Y-114700000D01*
X92965513Y-128000000D02*
X90199991Y-125234478D01*
X92400000Y-76522086D02*
X95442894Y-79564980D01*
%TO.N,/SW3*%
X96748605Y-113361445D02*
X95151729Y-113361445D01*
X97110050Y-113000000D02*
X96748605Y-113361445D01*
X97689950Y-113000000D02*
X97110050Y-113000000D01*
X97944975Y-113255025D02*
X97689950Y-113000000D01*
%TO.N,/SW2*%
X97197059Y-111800002D02*
X95300000Y-111800002D01*
X98272057Y-112875000D02*
X97197059Y-111800002D01*
D31*
%TO.N,/SW1*%
X96643073Y-110609620D02*
X98858453Y-112825000D01*
X95609620Y-110609620D02*
X96643073Y-110609620D01*
X98858453Y-112825000D02*
X102675000Y-112825000D01*
D30*
X91460000Y-110240000D02*
X90800000Y-110900000D01*
X91460000Y-95000000D02*
X91460000Y-110240000D01*
%TO.N,/SW7*%
X89000000Y-111107107D02*
X89000000Y-115700000D01*
X89420000Y-110687107D02*
X89000000Y-111107107D01*
X90032000Y-102260894D02*
X89420000Y-102872894D01*
X89420000Y-102872894D02*
X89420000Y-110687107D01*
X90032000Y-81612000D02*
X90032000Y-102260894D01*
X88920000Y-80500000D02*
X90032000Y-81612000D01*
X92871549Y-130800000D02*
X89000000Y-126928451D01*
X93746254Y-130800000D02*
X92871549Y-130800000D01*
%TO.N,/CS9*%
X89700000Y-125999802D02*
X92400198Y-128700000D01*
X89700000Y-113800000D02*
X89700000Y-125999802D01*
X94000000Y-95000000D02*
X94000000Y-109500000D01*
X94000000Y-109500000D02*
X89700000Y-113800000D01*
%TO.N,/SW7*%
X89000000Y-126928451D02*
X89000000Y-115700000D01*
%TO.N,/CS10*%
X122400000Y-117466014D02*
X121466014Y-118400000D01*
X122400000Y-105197918D02*
X122400000Y-117466014D01*
X116260000Y-99057918D02*
X122400000Y-105197918D01*
X116260000Y-95000000D02*
X116260000Y-99057918D01*
%TO.N,/CS6*%
X111400000Y-122300000D02*
X112000000Y-121700000D01*
X110310050Y-122300000D02*
X111400000Y-122300000D01*
X108794239Y-121974999D02*
X109985049Y-121974999D01*
X109985049Y-121974999D02*
X110310050Y-122300000D01*
X107375000Y-120555760D02*
X108794239Y-121974999D01*
%TO.N,/CS5*%
X133400000Y-117407106D02*
X132800246Y-118006860D01*
X131500000Y-93427394D02*
X133400000Y-95327394D01*
X132800246Y-118006860D02*
X132800246Y-122200000D01*
X131500000Y-80500000D02*
X131500000Y-93427394D01*
X133400000Y-95327394D02*
X133400000Y-117407106D01*
%TO.N,/SW10*%
X102875000Y-118787500D02*
X102875000Y-125839624D01*
%TO.N,/CS2*%
X104875000Y-125143325D02*
X103818339Y-126199986D01*
X103818339Y-126199986D02*
X103504588Y-126199986D01*
X104875000Y-118787500D02*
X104875000Y-125143325D01*
%TO.N,/SW10*%
X95800000Y-121100000D02*
X95800000Y-126200000D01*
X95800000Y-134100000D02*
X95800000Y-126200000D01*
X102875000Y-125839624D02*
X102557312Y-126157312D01*
%TO.N,/CS12*%
X94000000Y-133100000D02*
X94000000Y-134924783D01*
X94000000Y-134924783D02*
X93724783Y-135200000D01*
%TO.N,GND*%
X83800000Y-63500000D02*
X86300000Y-63500000D01*
X86300000Y-63500000D02*
X86900000Y-64100000D01*
%TO.N,/~{SDB}*%
X79100000Y-63500000D02*
X79300000Y-63700000D01*
X76200000Y-63500000D02*
X79100000Y-63500000D01*
%TO.N,/VCC*%
X95600000Y-62100000D02*
X95700000Y-62000000D01*
X95600000Y-70400000D02*
X95600000Y-62100000D01*
%TO.N,/SCL*%
X105875000Y-59425000D02*
X110800000Y-54500000D01*
X105875000Y-76432106D02*
X105875000Y-59425000D01*
X110800000Y-54500000D02*
X111100000Y-54500000D01*
%TO.N,/VIO*%
X114200000Y-63700000D02*
X114200000Y-63500000D01*
X114200000Y-63500000D02*
X114160091Y-63460091D01*
%TO.N,/~{INTB}*%
X113200000Y-69136396D02*
X113200000Y-65800000D01*
X110800000Y-71536396D02*
X113200000Y-69136396D01*
D29*
%TO.N,/VIO*%
X114200000Y-65648528D02*
X114200000Y-63700000D01*
X111825000Y-98000000D02*
X111825000Y-72023528D01*
D30*
%TO.N,/~{INTB}*%
X110800000Y-73600000D02*
X110800000Y-71536396D01*
D28*
%TO.N,/VIO*%
X116800000Y-50200000D02*
X116800000Y-57660661D01*
D30*
%TO.N,/SDA*%
X112300000Y-66627208D02*
X106375000Y-72552208D01*
X112200000Y-63572792D02*
X112560091Y-63932883D01*
X106375000Y-72552208D02*
X106375000Y-76639212D01*
X112200000Y-59544365D02*
X112200000Y-63572792D01*
X112560091Y-59184274D02*
X112200000Y-59544365D01*
%TO.N,/~{INTB}*%
X113200000Y-65800000D02*
X113600000Y-65400000D01*
D31*
%TO.N,/SYNC*%
X113210091Y-52310091D02*
X113000000Y-52100000D01*
X112850000Y-59530761D02*
X113210091Y-59170670D01*
X112850000Y-63586396D02*
X112850000Y-59530761D01*
D30*
%TO.N,/SDA*%
X112560091Y-57000000D02*
X112560091Y-59184274D01*
D31*
%TO.N,/SYNC*%
X113010091Y-63746487D02*
X112850000Y-63586396D01*
X113010091Y-65353513D02*
X113010091Y-63746487D01*
D30*
%TO.N,/SDA*%
X112560091Y-65167117D02*
X112300000Y-65427208D01*
D31*
%TO.N,/SYNC*%
X112750000Y-65613604D02*
X113010091Y-65353513D01*
X112750000Y-66813604D02*
X112750000Y-65613604D01*
X107000000Y-72563604D02*
X112750000Y-66813604D01*
X113210091Y-59170670D02*
X113210091Y-52310091D01*
D29*
%TO.N,/VIO*%
X114000000Y-65848528D02*
X114200000Y-65648528D01*
D28*
X116800000Y-57660661D02*
X114160091Y-60300570D01*
D29*
X114000000Y-69848528D02*
X114000000Y-65848528D01*
D30*
%TO.N,/~{INTB}*%
X113600000Y-65400000D02*
X113600000Y-59800000D01*
D27*
%TO.N,GND*%
X114850000Y-70342030D02*
X114400000Y-70792030D01*
D29*
%TO.N,/VIO*%
X111825000Y-72023528D02*
X114000000Y-69848528D01*
D31*
%TO.N,/SYNC*%
X106625000Y-106738604D02*
X107000000Y-106363604D01*
D27*
%TO.N,GND*%
X114400000Y-70792030D02*
X114400000Y-72900000D01*
X114950000Y-70242031D02*
X114850000Y-70342030D01*
X115050000Y-68542031D02*
X114950000Y-68642030D01*
X117800000Y-64500000D02*
X117800000Y-64802944D01*
X115050000Y-67552944D02*
X115050000Y-68542031D01*
X114950000Y-68642030D02*
X114950000Y-70242031D01*
D31*
%TO.N,/SYNC*%
X107000000Y-106363604D02*
X107000000Y-72563604D01*
D27*
%TO.N,GND*%
X117800000Y-64802944D02*
X115050000Y-67552944D01*
D30*
%TO.N,/SDA*%
X112300000Y-65427208D02*
X112300000Y-66627208D01*
D31*
%TO.N,/SYNC*%
X106625000Y-111675000D02*
X106625000Y-106738604D01*
D30*
%TO.N,/SDA*%
X112560091Y-63932883D02*
X112560091Y-65167117D01*
%TO.N,/~{INTB}*%
X110000000Y-74400000D02*
X110800000Y-73600000D01*
X110000000Y-98000000D02*
X110000000Y-74400000D01*
D27*
X110000000Y-97800000D02*
X110100000Y-97700000D01*
X110000000Y-98000000D02*
X110000000Y-97800000D01*
D30*
%TO.N,/~{SDB}*%
X99000000Y-63050000D02*
X98600000Y-62650000D01*
X99000000Y-73400000D02*
X99000000Y-63050000D01*
X103900000Y-95400000D02*
X103900000Y-78300000D01*
X103900000Y-78300000D02*
X99000000Y-73400000D01*
X103300000Y-96400000D02*
X103300000Y-96000000D01*
X103050000Y-96650000D02*
X103300000Y-96400000D01*
X102000000Y-104000000D02*
X103050000Y-102950000D01*
%TO.N,/ADDR2*%
X104400000Y-79375000D02*
X105025000Y-80000000D01*
X104400000Y-77092893D02*
X104400000Y-79375000D01*
X99550001Y-72242894D02*
X104400000Y-77092893D01*
X99550001Y-60000000D02*
X99550001Y-72242894D01*
%TO.N,/~{SDB}*%
X103050000Y-102950000D02*
X103050000Y-96650000D01*
X103300000Y-96000000D02*
X103900000Y-95400000D01*
%TO.N,/SDA*%
X77470000Y-57150000D02*
X78740000Y-57150000D01*
X77320000Y-57300000D02*
X77470000Y-57150000D01*
%TO.N,/SCL*%
X78740000Y-55880000D02*
X80010000Y-54610000D01*
X76200000Y-55880000D02*
X78740000Y-55880000D01*
%TO.N,GND*%
X101000000Y-51000000D02*
X103550002Y-51000000D01*
%TO.N,/VCC*%
X100999999Y-61999999D02*
X101000000Y-62000000D01*
X100999999Y-60000000D02*
X100999999Y-61999999D01*
%TO.N,/SCL*%
X102000000Y-54000000D02*
X100999999Y-54000000D01*
X103550001Y-54000000D02*
X102000000Y-54000000D01*
%TO.N,/SDA*%
X101000000Y-57000000D02*
X102000000Y-57000000D01*
D31*
%TO.N,/ADDR2*%
X105025000Y-111675000D02*
X105025000Y-80000000D01*
%TO.N,/SCL*%
X106000000Y-76968628D02*
X105875000Y-76843628D01*
X106000000Y-80227082D02*
X106000000Y-76968628D01*
X105825000Y-80402082D02*
X106000000Y-80227082D01*
%TO.N,/ADDR1*%
X105425000Y-78763604D02*
X105425000Y-76275000D01*
%TO.N,/SCL*%
X105875000Y-76843628D02*
X105875000Y-76432106D01*
%TO.N,/ADDR1*%
X105475000Y-78813604D02*
X105425000Y-78763604D01*
X105425000Y-76275000D02*
X105375000Y-76225000D01*
X105475000Y-80186396D02*
X105475000Y-78813604D01*
%TO.N,/SCL*%
X105825000Y-111675000D02*
X105825000Y-80402082D01*
%TO.N,/ADDR1*%
X105425000Y-80236396D02*
X105475000Y-80186396D01*
X105425000Y-111675000D02*
X105425000Y-80236396D01*
D30*
X105375000Y-60375000D02*
X105375000Y-76225000D01*
X105000000Y-60000000D02*
X105375000Y-60375000D01*
X105000000Y-57000000D02*
X105000000Y-60000000D01*
X104999999Y-56999999D02*
X105000000Y-57000000D01*
X104999999Y-54000000D02*
X104999999Y-56999999D01*
X104999999Y-52000001D02*
X104999999Y-54000000D01*
X105000000Y-52000000D02*
X104999999Y-52000001D01*
X105000000Y-51000000D02*
X105000000Y-52000000D01*
%TO.N,/ADDR2*%
X99550002Y-53550000D02*
X99550002Y-51000000D01*
X99550001Y-53550001D02*
X99550002Y-53550000D01*
X99550001Y-54000000D02*
X99550001Y-53550001D01*
X99550002Y-56550002D02*
X99550001Y-56550001D01*
X99550001Y-56550001D02*
X99550001Y-54000000D01*
X99550002Y-57000000D02*
X99550002Y-56550002D01*
X99550001Y-57000001D02*
X99550002Y-57000000D01*
X99550001Y-60000000D02*
X99550001Y-57000001D01*
%TO.N,/SDA*%
X103550002Y-57000000D02*
X101000000Y-57000000D01*
%TO.N,GND*%
X86540000Y-53340000D02*
X86900000Y-53700000D01*
D28*
X86980000Y-68580000D02*
X87000000Y-68600000D01*
D27*
X118900000Y-64500000D02*
X119900000Y-64500000D01*
X117800000Y-64500000D02*
X118900000Y-64500000D01*
D30*
X138320000Y-68580000D02*
X138400000Y-68500000D01*
D31*
X109787500Y-112875000D02*
X109437500Y-113225000D01*
D30*
X83800000Y-58420000D02*
X84480000Y-59100000D01*
X137660000Y-66040000D02*
X138000000Y-65700000D01*
X86660000Y-60960000D02*
X86900000Y-61200000D01*
X134600000Y-68580000D02*
X138320000Y-68580000D01*
X134600000Y-50800000D02*
X138600000Y-50800000D01*
D27*
X114400000Y-72900000D02*
X113300000Y-74000000D01*
D31*
X109437500Y-113225000D02*
X108575000Y-113225000D01*
D30*
X102000000Y-102175000D02*
X102000000Y-100700000D01*
D28*
X86860000Y-66040000D02*
X86900000Y-66000000D01*
D27*
X113300000Y-93900000D02*
X113300000Y-92500010D01*
D31*
X102675000Y-114025000D02*
X97725000Y-114025000D01*
D30*
X83800000Y-60960000D02*
X86660000Y-60960000D01*
D31*
X103425000Y-111675000D02*
X103425000Y-111319326D01*
D30*
X137900000Y-63500000D02*
X138000000Y-63400000D01*
D28*
X117949999Y-113100002D02*
X118000000Y-113050001D01*
D27*
X113300000Y-93900000D02*
X113300000Y-94900000D01*
D30*
X137780000Y-58420000D02*
X137800000Y-58400000D01*
X137560000Y-60960000D02*
X137800000Y-61200000D01*
D31*
X102875000Y-110769326D02*
X102875000Y-110462500D01*
D27*
X113300000Y-74000000D02*
X113300000Y-91200000D01*
D31*
X102675000Y-116825000D02*
X101475000Y-116825000D01*
D30*
X134600000Y-60960000D02*
X137560000Y-60960000D01*
X134600000Y-66040000D02*
X137660000Y-66040000D01*
X134600000Y-58420000D02*
X137780000Y-58420000D01*
X86700000Y-50800000D02*
X86900000Y-51000000D01*
X83800000Y-55880000D02*
X86480000Y-55880000D01*
D31*
X103425000Y-111319326D02*
X102875000Y-110769326D01*
D30*
X138240000Y-53340000D02*
X138400000Y-53500000D01*
D27*
X113300000Y-91200000D02*
X113300000Y-92500010D01*
D30*
X134600000Y-55880000D02*
X138380000Y-55880000D01*
X138380000Y-55880000D02*
X138600000Y-56100000D01*
D28*
X83800000Y-68580000D02*
X86980000Y-68580000D01*
D30*
X83800000Y-53340000D02*
X86540000Y-53340000D01*
X84480000Y-59100000D02*
X86900000Y-59100000D01*
X83800000Y-50800000D02*
X86700000Y-50800000D01*
X134600000Y-53340000D02*
X138240000Y-53340000D01*
X99000000Y-102175000D02*
X99000000Y-100900000D01*
D28*
X83800000Y-66040000D02*
X86860000Y-66040000D01*
D31*
X101475000Y-116825000D02*
X100900000Y-117400000D01*
D30*
X134600000Y-63500000D02*
X137900000Y-63500000D01*
D28*
X116000000Y-113100002D02*
X117949999Y-113100002D01*
D30*
X97575000Y-113875000D02*
X97400000Y-113700000D01*
X86480000Y-55880000D02*
X86900000Y-56300000D01*
D28*
%TO.N,/VIO*%
X124100000Y-50800000D02*
X127000000Y-50800000D01*
D30*
X107375000Y-110462500D02*
X107375000Y-106625000D01*
D31*
X107025000Y-110812500D02*
X107025000Y-111675000D01*
D30*
X109300000Y-99800000D02*
X110025000Y-99800000D01*
D31*
X107375000Y-110462500D02*
X107025000Y-110812500D01*
D30*
X108000000Y-106000000D02*
X108000000Y-101100000D01*
X108000000Y-101100000D02*
X109300000Y-99800000D01*
D28*
X78500000Y-49600000D02*
X77400000Y-49600000D01*
D30*
X110025000Y-99800000D02*
X111825000Y-98000000D01*
X107375000Y-106625000D02*
X108000000Y-106000000D01*
D28*
X77400000Y-49600000D02*
X76200000Y-50800000D01*
D27*
%TO.N,/VCC*%
X114500000Y-91697056D02*
X114500000Y-99297056D01*
X117000000Y-101000000D02*
X120550000Y-104550000D01*
X114700000Y-76714214D02*
X115410000Y-77424214D01*
X121550000Y-115394639D02*
X120883788Y-116060851D01*
X107000000Y-126000000D02*
X107000000Y-126725000D01*
X118800000Y-72900000D02*
X117685786Y-72900000D01*
D30*
X108400000Y-109100000D02*
X108375000Y-109125000D01*
X107875000Y-110462500D02*
X107875000Y-108225000D01*
D27*
X77900000Y-70400000D02*
X78900000Y-70400000D01*
X114700000Y-89585786D02*
X114700000Y-90414214D01*
X127000000Y-66040000D02*
X130440000Y-66040000D01*
D30*
X113050000Y-108000000D02*
X113050000Y-106050000D01*
D27*
X115150000Y-131850000D02*
X119000000Y-128000000D01*
D31*
X107425000Y-111075000D02*
X107425000Y-111675000D01*
X112767879Y-115300000D02*
X114000000Y-115300000D01*
D27*
X116050001Y-114949999D02*
X116000000Y-115000000D01*
D30*
X106375000Y-122724997D02*
X107100002Y-123449999D01*
D27*
X119000000Y-128000000D02*
X119000000Y-117175430D01*
X77900000Y-70400000D02*
X76600000Y-70400000D01*
X120114579Y-116060851D02*
X119000000Y-117175430D01*
X115241421Y-90955635D02*
X114500000Y-91697056D01*
D30*
X108375000Y-109125000D02*
X108375000Y-110462500D01*
D27*
X115410000Y-77424214D02*
X115410000Y-79282419D01*
D30*
X112250000Y-108800000D02*
X113050000Y-108000000D01*
D27*
X115000000Y-131850000D02*
X115150000Y-131850000D01*
X110000000Y-133000000D02*
X109000000Y-133000000D01*
X130440000Y-66040000D02*
X130500000Y-66100000D01*
D29*
X111899998Y-102000000D02*
X111899998Y-103899998D01*
D27*
X126300000Y-70100000D02*
X126200000Y-70200000D01*
D29*
X114300000Y-115000000D02*
X116000000Y-115000000D01*
D30*
X113100000Y-105200000D02*
X116202944Y-102097056D01*
X107875000Y-108225000D02*
X108100000Y-108000000D01*
X112000000Y-108800000D02*
X112250000Y-108800000D01*
X108100000Y-108000000D02*
X108400000Y-108000000D01*
D31*
X107825000Y-111675000D02*
X107825000Y-111012500D01*
D27*
X115800000Y-82107581D02*
X115800000Y-88485786D01*
X114700000Y-90414214D02*
X115241421Y-90955635D01*
X76140000Y-66100000D02*
X76200000Y-66040000D01*
X130500000Y-66100000D02*
X130500000Y-68500000D01*
D30*
X113100000Y-106000000D02*
X113100000Y-105200000D01*
D27*
X121550000Y-110000000D02*
X121550000Y-115394639D01*
X115800000Y-88485786D02*
X114700000Y-89585786D01*
D30*
X112899998Y-101000000D02*
X116202944Y-101000000D01*
D27*
X130500000Y-69300000D02*
X129700000Y-70100000D01*
D31*
X106225000Y-122574997D02*
X106375000Y-122724997D01*
X107825000Y-111012500D02*
X108375000Y-110462500D01*
D27*
X76180000Y-68600000D02*
X76200000Y-68580000D01*
D30*
X108375000Y-108025000D02*
X108400000Y-108000000D01*
D27*
X120883788Y-116060851D02*
X120114579Y-116060851D01*
X114500000Y-99297056D02*
X116202944Y-101000000D01*
X120550000Y-104550000D02*
X120550000Y-109000000D01*
X118000000Y-114949999D02*
X116050001Y-114949999D01*
D31*
X106225000Y-117575000D02*
X106225000Y-122574997D01*
D27*
X114798000Y-79894419D02*
X114798000Y-81105581D01*
D29*
X114000000Y-115300000D02*
X114300000Y-115000000D01*
D27*
X73000000Y-68600000D02*
X73000000Y-66100000D01*
D31*
X107875000Y-110462500D02*
X107875000Y-110625000D01*
D27*
X76600000Y-70400000D02*
X73000000Y-70400000D01*
X73000000Y-68600000D02*
X76180000Y-68600000D01*
D31*
X112692879Y-115225000D02*
X112767879Y-115300000D01*
D27*
X120550000Y-109000000D02*
X121550000Y-110000000D01*
X115000000Y-131850000D02*
X113850000Y-133000000D01*
X73000000Y-70400000D02*
X73000000Y-68600000D01*
X130500000Y-68500000D02*
X130420000Y-68580000D01*
X130420000Y-68580000D02*
X127000000Y-68580000D01*
X129700000Y-70100000D02*
X126300000Y-70100000D01*
X107000000Y-126725000D02*
X108000000Y-127725000D01*
D31*
X107875000Y-110625000D02*
X107425000Y-111075000D01*
D27*
X114798000Y-81105581D02*
X115800000Y-82107581D01*
X126200000Y-70200000D02*
X124112132Y-70200000D01*
X120114579Y-116060851D02*
X119003727Y-114949999D01*
X73000000Y-66100000D02*
X76140000Y-66100000D01*
D30*
X107100002Y-123449999D02*
X107100002Y-125899998D01*
D27*
X109000000Y-133000000D02*
X108000000Y-133000000D01*
D30*
X111899998Y-102000000D02*
X112899998Y-101000000D01*
D27*
X117685786Y-72900000D02*
X114700000Y-75885786D01*
D30*
X108400000Y-109100000D02*
X111700000Y-109100000D01*
D27*
X116202944Y-101000000D02*
X117000000Y-101000000D01*
D30*
X116202944Y-102097056D02*
X116202944Y-101000000D01*
D27*
X115410000Y-79282419D02*
X114798000Y-79894419D01*
X114700000Y-75885786D02*
X114700000Y-76714214D01*
X119003727Y-114949999D02*
X118000000Y-114949999D01*
D30*
X111700000Y-109100000D02*
X112000000Y-108800000D01*
D27*
X108000000Y-127725000D02*
X108000000Y-133000000D01*
D31*
X108575000Y-115225000D02*
X112692879Y-115225000D01*
D27*
X130500000Y-68500000D02*
X130500000Y-69300000D01*
D31*
%TO.N,/~{INTB}*%
X104625000Y-111675000D02*
X104625000Y-105625000D01*
X104300000Y-105100000D02*
X104375000Y-105025000D01*
X104375000Y-105025000D02*
X104375000Y-104500000D01*
D30*
X103900000Y-104025000D02*
X103900000Y-97800000D01*
D31*
X104625000Y-105625000D02*
X104300000Y-105300000D01*
X104300000Y-105300000D02*
X104300000Y-105100000D01*
D30*
X76200000Y-60960000D02*
X77160000Y-60000000D01*
X124090000Y-60960000D02*
X127000000Y-60960000D01*
X104375000Y-104500000D02*
X103900000Y-104025000D01*
X107700000Y-97800000D02*
X109800000Y-97800000D01*
X77160000Y-60000000D02*
X79600000Y-60000000D01*
X124050000Y-61000000D02*
X124090000Y-60960000D01*
%TO.N,/~{SDB}*%
X124050000Y-63500000D02*
X127000000Y-63500000D01*
%TO.N,/SW8*%
X88900000Y-77980000D02*
X86380000Y-80500000D01*
X88900000Y-67385787D02*
X88900000Y-77980000D01*
X125000000Y-129200000D02*
X125000000Y-98400000D01*
X123880000Y-97280000D02*
X123880000Y-95000000D01*
X123880000Y-133100000D02*
X123880000Y-130320000D01*
X123900000Y-130300000D02*
X125000000Y-129200000D01*
X88607107Y-47407107D02*
X88607107Y-67092894D01*
X123880000Y-130320000D02*
X123900000Y-130300000D01*
X88607107Y-67092894D02*
X88900000Y-67385787D01*
X125000000Y-98400000D02*
X123880000Y-97280000D01*
D31*
X102675000Y-116025000D02*
X98175000Y-116025000D01*
D30*
X86300000Y-45100000D02*
X88607107Y-47407107D01*
D31*
X98175000Y-116025000D02*
X97825000Y-116375000D01*
D30*
%TO.N,/SW4*%
X119673466Y-44066534D02*
X116333466Y-44066534D01*
X95045842Y-114358998D02*
X95045842Y-114245509D01*
D31*
X95045842Y-114245509D02*
X95225333Y-114425000D01*
D30*
X115653485Y-44746515D02*
X115482646Y-44746515D01*
X95186844Y-114500000D02*
X95045842Y-114358998D01*
X95300000Y-45000000D02*
X91000000Y-45000000D01*
X90732000Y-81532000D02*
X90732000Y-83100000D01*
X90400000Y-77100000D02*
X90348000Y-77152000D01*
D31*
X95225333Y-114425000D02*
X102675000Y-114425000D01*
D30*
X83840000Y-83460000D02*
X84000000Y-83300000D01*
X90600000Y-76900000D02*
X90400000Y-77100000D01*
X90600000Y-46400000D02*
X90600000Y-76900000D01*
X121340000Y-42400000D02*
X119673466Y-44066534D01*
X90348000Y-81148000D02*
X90732000Y-81532000D01*
X116333466Y-44066534D02*
X115653485Y-44746515D01*
X91000000Y-45000000D02*
X91000000Y-46000000D01*
X95175333Y-114375000D02*
X95045842Y-114245509D01*
X83840000Y-114360000D02*
X83840000Y-95000000D01*
X83840000Y-95000000D02*
X83840000Y-83460000D01*
X83700000Y-114500000D02*
X83840000Y-114360000D01*
X91000000Y-46000000D02*
X90600000Y-46400000D01*
X90348000Y-77152000D02*
X90348000Y-81148000D01*
%TO.N,/SW2*%
X87400000Y-131580000D02*
X87400000Y-113775665D01*
X126400000Y-83900000D02*
X126400000Y-83500000D01*
X87400000Y-113775665D02*
X87500000Y-113675665D01*
D31*
X98622057Y-113225000D02*
X98272057Y-112875000D01*
D30*
X88920000Y-133100000D02*
X87400000Y-131580000D01*
X87200000Y-84100000D02*
X87492000Y-84392000D01*
X126400000Y-83500000D02*
X126420000Y-83480000D01*
X87492000Y-113667665D02*
X87500000Y-113675665D01*
X126420000Y-83480000D02*
X126420000Y-80500000D01*
X87492000Y-84392000D02*
X87492000Y-113667665D01*
D31*
X102675000Y-113225000D02*
X98622057Y-113225000D01*
D30*
%TO.N,/SW6*%
X91460000Y-42660000D02*
X92400000Y-43600000D01*
X127100000Y-126110050D02*
X126005025Y-127205025D01*
X127100000Y-96860000D02*
X127100000Y-126110050D01*
X128960000Y-95000000D02*
X127100000Y-96860000D01*
D31*
X95982106Y-115225000D02*
X102675000Y-115225000D01*
X95832106Y-115375000D02*
X95982106Y-115225000D01*
%TO.N,/CS5*%
X106625000Y-117575000D02*
X106625000Y-120534743D01*
X106945128Y-120854872D02*
X108515256Y-122424999D01*
D30*
X129660000Y-82340000D02*
X129660000Y-82848575D01*
D31*
X106625000Y-120534743D02*
X106875000Y-120784743D01*
D30*
X131500000Y-80500000D02*
X129660000Y-82340000D01*
D31*
X111931123Y-122750000D02*
X112143284Y-122537839D01*
X110123654Y-122750000D02*
X111931123Y-122750000D01*
X108515256Y-122424999D02*
X109798653Y-122424999D01*
X106875000Y-120784743D02*
X106945128Y-120854872D01*
X109798653Y-122424999D02*
X110123654Y-122750000D01*
D30*
%TO.N,/CS12*%
X131500000Y-133100000D02*
X131500000Y-116844975D01*
D31*
X108575000Y-115625000D02*
X112527193Y-115625000D01*
D30*
X129700000Y-134900000D02*
X129700000Y-135600000D01*
X131500000Y-133100000D02*
X129700000Y-134900000D01*
X131500000Y-116844975D02*
X131300000Y-116644975D01*
D31*
X112527193Y-115625000D02*
X112752193Y-115850000D01*
X112752193Y-115850000D02*
X116750709Y-115850000D01*
X116750709Y-115850000D02*
X117831253Y-116930544D01*
D30*
%TO.N,/CS1*%
X104375000Y-118787500D02*
X104375000Y-124936218D01*
X81300000Y-42400000D02*
X81300000Y-44200000D01*
D31*
X104375000Y-118346360D02*
X104375000Y-118787500D01*
D30*
X77648000Y-78941950D02*
X87700000Y-68889950D01*
X82412000Y-41288000D02*
X117688000Y-41288000D01*
X84507107Y-46500000D02*
X81300000Y-46500000D01*
X78000000Y-114810050D02*
X77648000Y-114458050D01*
X87700000Y-68889950D02*
X87700000Y-68310050D01*
X77648000Y-114458050D02*
X77648000Y-78941950D01*
X87607107Y-49600000D02*
X84507107Y-46500000D01*
X81300000Y-42400000D02*
X82412000Y-41288000D01*
X117688000Y-41288000D02*
X118800000Y-42400000D01*
X87700000Y-68310050D02*
X87607107Y-68217157D01*
X87607107Y-68217157D02*
X87607107Y-49600000D01*
X77700000Y-124700000D02*
X78000000Y-124400000D01*
D31*
X104625000Y-118096360D02*
X104375000Y-118346360D01*
X104625000Y-117575000D02*
X104625000Y-118096360D01*
D30*
X78000000Y-124400000D02*
X78000000Y-114810050D01*
D31*
%TO.N,/CS2*%
X105025000Y-117575000D02*
X105025000Y-118501104D01*
D30*
X131500000Y-42400000D02*
X126468055Y-47431945D01*
D31*
X104875000Y-118651104D02*
X104875000Y-118787500D01*
D30*
X119910050Y-46600000D02*
X121243516Y-45266534D01*
D31*
X105025000Y-118501104D02*
X104875000Y-118651104D01*
D30*
X119910050Y-46600000D02*
X118400000Y-46600000D01*
X126468055Y-47431945D02*
X126100000Y-47431945D01*
%TO.N,/SW9*%
X79400000Y-118400000D02*
X80188000Y-117612000D01*
D31*
X100621880Y-116875000D02*
X101071880Y-116425000D01*
D30*
X123000000Y-124000000D02*
X124000000Y-123000000D01*
X87907107Y-72700000D02*
X88300000Y-72307107D01*
X124000000Y-123000000D02*
X124000000Y-104185786D01*
X88300000Y-67492894D02*
X88107107Y-67300001D01*
X80188000Y-83412000D02*
X80200000Y-83400000D01*
X86707107Y-72700000D02*
X87907107Y-72700000D01*
X88300000Y-72307107D02*
X88300000Y-67492894D01*
D31*
X101071880Y-116425000D02*
X102675000Y-116425000D01*
D30*
X83088672Y-76578622D02*
X83088672Y-76318435D01*
X121340000Y-101525786D02*
X121340000Y-95000000D01*
X123000000Y-126874242D02*
X123000000Y-124000000D01*
X124000000Y-104185786D02*
X121340000Y-101525786D01*
X82678622Y-76988672D02*
X83088672Y-76578622D01*
X88107107Y-67300001D02*
X88107107Y-49207107D01*
X83088672Y-76318435D02*
X86707107Y-72700000D01*
X88107107Y-49207107D02*
X83800000Y-44900000D01*
X82100000Y-83200000D02*
X82678622Y-82621378D01*
X82678622Y-82621378D02*
X82678622Y-76988672D01*
X80188000Y-117612000D02*
X80188000Y-83412000D01*
D31*
%TO.N,/SW7*%
X96675000Y-115625000D02*
X96400000Y-115900000D01*
D30*
X126400000Y-131000000D02*
X126400000Y-133080000D01*
D31*
X102675000Y-115625000D02*
X96675000Y-115625000D01*
D30*
%TO.N,/CS10*%
X116260000Y-90560000D02*
X115700000Y-90000000D01*
D31*
X114711396Y-116875000D02*
X115350000Y-117513604D01*
X110275000Y-116875000D02*
X114711396Y-116875000D01*
D30*
X78900000Y-90600000D02*
X78760000Y-90740000D01*
X78760000Y-90740000D02*
X78760000Y-95000000D01*
X115989950Y-118600000D02*
X117400000Y-118600000D01*
X116260000Y-95000000D02*
X116260000Y-90560000D01*
D31*
X108575000Y-116425000D02*
X109825000Y-116425000D01*
D30*
X115344975Y-117955025D02*
X115989950Y-118600000D01*
D31*
X115350000Y-117513604D02*
X115350000Y-117950000D01*
D30*
X78900000Y-90100000D02*
X78900000Y-90600000D01*
D31*
X109825000Y-116425000D02*
X110275000Y-116875000D01*
X115350000Y-117950000D02*
X115344975Y-117955025D01*
%TO.N,/SDA*%
X106600000Y-76864212D02*
X106375000Y-76639212D01*
D30*
%TO.N,/SCL*%
X124120000Y-55880000D02*
X124100000Y-55900000D01*
D31*
%TO.N,/SDA*%
X106600000Y-100597058D02*
X106600000Y-76864212D01*
X106225000Y-111675000D02*
X106225000Y-100972058D01*
X106225000Y-100972058D02*
X106600000Y-100597058D01*
D30*
%TO.N,/SCL*%
X127000000Y-55880000D02*
X124120000Y-55880000D01*
%TO.N,/CS13*%
X116260000Y-133100000D02*
X117251226Y-132108774D01*
D31*
X120500000Y-113900000D02*
X113690258Y-113900000D01*
D30*
X128200000Y-114000000D02*
X128200000Y-131700000D01*
X117251226Y-132108774D02*
X117945535Y-132108774D01*
D31*
X112765258Y-114825000D02*
X108575000Y-114825000D01*
X113690258Y-113900000D02*
X112765258Y-114825000D01*
D30*
X116260000Y-136260000D02*
X116260000Y-133100000D01*
X116400000Y-136400000D02*
X116260000Y-136260000D01*
%TO.N,/CS4*%
X116723416Y-44566534D02*
X115807106Y-45482844D01*
X105607106Y-125825432D02*
X105100000Y-126332538D01*
X105607107Y-125825432D02*
X105607106Y-125825432D01*
X115807106Y-45492894D02*
X115744975Y-45555025D01*
X121340000Y-80500000D02*
X119094975Y-78254975D01*
X120578001Y-76029105D02*
X122200000Y-74407106D01*
X120578001Y-79738001D02*
X120578001Y-76029105D01*
X105100000Y-128887287D02*
X106462713Y-130250000D01*
X89300000Y-47600000D02*
X89300000Y-45700000D01*
X106100000Y-125332539D02*
X105607107Y-125825432D01*
X95800000Y-47200000D02*
X95300000Y-47700000D01*
X122200000Y-74407106D02*
X122200000Y-45300000D01*
X121340000Y-80500000D02*
X120578001Y-79738001D01*
X95800000Y-45800000D02*
X95800000Y-47200000D01*
X122768000Y-101653786D02*
X124500000Y-103385786D01*
D31*
X105825000Y-117575000D02*
X105825000Y-123800000D01*
D30*
X121340000Y-80500000D02*
X122768000Y-81928000D01*
X122768000Y-81928000D02*
X122768000Y-101653786D01*
X115807106Y-45482844D02*
X115807106Y-45492894D01*
X124500000Y-128080000D02*
X123180000Y-129400000D01*
X84200000Y-76200000D02*
X83840000Y-76560000D01*
X106100000Y-124120835D02*
X106100000Y-125332539D01*
X122200000Y-45300000D02*
X122400000Y-45100000D01*
X119094975Y-78254975D02*
X119094975Y-77794975D01*
X126420000Y-42400000D02*
X124832410Y-43987590D01*
X122400000Y-45100000D02*
X121866534Y-44566534D01*
X124500000Y-103385786D02*
X124500000Y-128080000D01*
X124832410Y-43987590D02*
X124832410Y-45004283D01*
X105875000Y-123895835D02*
X106100000Y-124120835D01*
X121866534Y-44566534D02*
X116723416Y-44566534D01*
X105100000Y-126332538D02*
X105100000Y-128887287D01*
X83840000Y-76560000D02*
X83840000Y-80500000D01*
X89300000Y-45700000D02*
X88700000Y-45100000D01*
%TO.N,/SW1*%
X91460000Y-95000000D02*
X91460000Y-85060000D01*
X132200000Y-85000000D02*
X132112000Y-84912000D01*
X123600000Y-47760000D02*
X128960000Y-42400000D01*
X123600000Y-50310050D02*
X123600000Y-47760000D01*
X132112000Y-84912000D02*
X132112000Y-82932365D01*
X123200000Y-50710050D02*
X123600000Y-50310050D01*
X132612000Y-79901950D02*
X123200000Y-70489950D01*
X132612000Y-82432365D02*
X132612000Y-79901950D01*
X132112000Y-82932365D02*
X132612000Y-82432365D01*
X91460000Y-85060000D02*
X91300000Y-84900000D01*
X123200000Y-70489950D02*
X123200000Y-50710050D01*
%TO.N,/SDA*%
X76200000Y-58420000D02*
X77320000Y-57300000D01*
X124050000Y-58400000D02*
X126980000Y-58400000D01*
%TO.N,/SYNC*%
X127000000Y-53340000D02*
X124340004Y-53340000D01*
X76200000Y-53340000D02*
X79760000Y-53340000D01*
X124340004Y-53340000D02*
X124200004Y-53200000D01*
X79760000Y-53340000D02*
X79800000Y-53300000D01*
%TO.N,/CS6*%
X79521999Y-79067951D02*
X82301278Y-76288672D01*
X116260000Y-76860000D02*
X115700000Y-76300000D01*
D31*
X107025000Y-118262046D02*
X107375000Y-118612045D01*
D30*
X133800000Y-121200000D02*
X133800000Y-120700000D01*
X79521999Y-79738001D02*
X79521999Y-79067951D01*
X133800000Y-120700000D02*
X134200000Y-120300000D01*
X116260000Y-80500000D02*
X116260000Y-76860000D01*
X78760000Y-80500000D02*
X79521999Y-79738001D01*
D31*
X107375000Y-118612045D02*
X107375000Y-120555760D01*
D30*
X134200000Y-120300000D02*
X134200000Y-81600000D01*
X82301278Y-76288672D02*
X82388672Y-76288672D01*
D31*
X107025000Y-117575000D02*
X107025000Y-118262046D01*
D30*
%TO.N,/CS11*%
X83840000Y-133100000D02*
X83840000Y-132060000D01*
X119900000Y-131500000D02*
X121340000Y-131500000D01*
D31*
X116381470Y-116400000D02*
X117930602Y-117949132D01*
X111734314Y-116400000D02*
X116381470Y-116400000D01*
X108575000Y-116025000D02*
X111359314Y-116025000D01*
D30*
X119600000Y-131200000D02*
X119900000Y-131500000D01*
X120000000Y-125360000D02*
X120000000Y-118484153D01*
X121340000Y-131500000D02*
X121340000Y-126700000D01*
X88920000Y-110480000D02*
X88200000Y-111200000D01*
X126420000Y-117888591D02*
X126400000Y-117908591D01*
X121340000Y-131500000D02*
X121340000Y-133100000D01*
X88920000Y-95000000D02*
X88920000Y-110480000D01*
X88200000Y-127900000D02*
X88100000Y-128000000D01*
X126420000Y-95000000D02*
X126420000Y-117888591D01*
X120000000Y-118484153D02*
X120766014Y-117718139D01*
D31*
X111359314Y-116025000D02*
X111734314Y-116400000D01*
D30*
X83840000Y-132060000D02*
X84500000Y-131400000D01*
X88200000Y-111200000D02*
X88200000Y-127900000D01*
X121340000Y-126700000D02*
X120000000Y-125360000D01*
X84500000Y-128000000D02*
X84500000Y-131400000D01*
%TO.N,/SW10*%
X81300000Y-80500000D02*
X81300000Y-91600000D01*
X81300000Y-91600000D02*
X82600000Y-92900000D01*
D31*
X103425000Y-117575000D02*
X103425000Y-118237500D01*
D30*
X118800000Y-133100000D02*
X118800000Y-134400000D01*
X82600000Y-121000000D02*
X82500000Y-121100000D01*
X82600000Y-92900000D02*
X82600000Y-121000000D01*
D31*
X103425000Y-118237500D02*
X102875000Y-118787500D01*
D30*
%TO.N,/CS8*%
X110177450Y-118787500D02*
X108375000Y-118787500D01*
X81800000Y-95500000D02*
X81800000Y-128000000D01*
X118800000Y-99692893D02*
X123500000Y-104392894D01*
X112600000Y-128750000D02*
X112800000Y-128550000D01*
X123500000Y-104392894D02*
X123500000Y-122792893D01*
X123500000Y-122792893D02*
X122500000Y-123792893D01*
X122132843Y-126557107D02*
X122132843Y-129022794D01*
X81800000Y-128000000D02*
X81900000Y-128100000D01*
X118800000Y-95000000D02*
X118800000Y-99692893D01*
X81900000Y-128100000D02*
X82000000Y-128100000D01*
X81300000Y-95000000D02*
X81800000Y-95500000D01*
X112800000Y-128550000D02*
X112800000Y-121410050D01*
D31*
X108375000Y-118125000D02*
X108375000Y-118787500D01*
D30*
X112800000Y-121410050D02*
X110177450Y-118787500D01*
X122500000Y-123792893D02*
X122500000Y-126189950D01*
X122500000Y-126189950D02*
X122132843Y-126557107D01*
X82000000Y-128100000D02*
X82400000Y-128500000D01*
D31*
X107825000Y-117575000D02*
X108375000Y-118125000D01*
D30*
%TO.N,/CS14*%
X128960000Y-134540000D02*
X128500000Y-135000000D01*
X92500000Y-135200000D02*
X92500000Y-134140000D01*
D31*
X118650000Y-111050000D02*
X115974572Y-111050000D01*
D30*
X92500000Y-134140000D02*
X91460000Y-133100000D01*
D31*
X115974572Y-111050000D02*
X112599572Y-114425000D01*
X120400000Y-112800000D02*
X118650000Y-111050000D01*
X112599572Y-114425000D02*
X108575000Y-114425000D01*
D30*
X128960000Y-133100000D02*
X128960000Y-113040000D01*
X128960000Y-133100000D02*
X128960000Y-134540000D01*
D31*
%TO.N,/CS7*%
X107875000Y-118546360D02*
X107425000Y-118096360D01*
D30*
X128960000Y-78060000D02*
X128960000Y-80500000D01*
X130072000Y-119928000D02*
X130072000Y-87272000D01*
D31*
X107875000Y-118787500D02*
X107875000Y-118546360D01*
D30*
X123000000Y-77500000D02*
X121278001Y-77500000D01*
X128700000Y-85900000D02*
X128960000Y-85640000D01*
X107875000Y-118787500D02*
X107875000Y-119628120D01*
D31*
X107425000Y-118096360D02*
X107425000Y-117575000D01*
D30*
X91460000Y-76460000D02*
X91460000Y-80500000D01*
D31*
X107875000Y-118787500D02*
X107875000Y-119557410D01*
D30*
X109721879Y-121474999D02*
X110474999Y-121474999D01*
X125300000Y-77600000D02*
X128500000Y-77600000D01*
X107875000Y-119628120D02*
X109721879Y-121474999D01*
X124700000Y-77400000D02*
X125100000Y-77400000D01*
X123200000Y-77300000D02*
X123000000Y-77500000D01*
X128960000Y-85640000D02*
X128960000Y-80500000D01*
X125100000Y-77400000D02*
X125300000Y-77600000D01*
X130072000Y-87272000D02*
X128700000Y-85900000D01*
X110474999Y-121474999D02*
X110600000Y-121600000D01*
X128500000Y-77600000D02*
X128960000Y-78060000D01*
X91400000Y-76400000D02*
X91460000Y-76460000D01*
X129800000Y-120200000D02*
X130072000Y-119928000D01*
%TO.N,/SW5*%
X118800000Y-80500000D02*
X118800000Y-88000000D01*
X81300000Y-133100000D02*
X81300000Y-115090476D01*
D31*
X102675000Y-114825000D02*
X95675000Y-114825000D01*
D30*
X81300000Y-115090476D02*
X81100000Y-114890476D01*
X76400000Y-114200000D02*
X77300000Y-115100000D01*
X95441907Y-115058093D02*
X94796422Y-115058093D01*
X118800000Y-88000000D02*
X118600000Y-88200000D01*
X95625000Y-114875000D02*
X95441907Y-115058093D01*
X76400000Y-88000000D02*
X76400000Y-114200000D01*
D31*
X95675000Y-114825000D02*
X95625000Y-114875000D01*
D30*
%TO.N,/SW3*%
X123880000Y-71877057D02*
X122700000Y-70697057D01*
X86380000Y-86320000D02*
X86380000Y-95000000D01*
X123100000Y-43180000D02*
X123880000Y-42400000D01*
X86380000Y-113920000D02*
X86380000Y-133100000D01*
X123880000Y-80500000D02*
X123880000Y-71877057D01*
X123880000Y-86120000D02*
X123700000Y-86300000D01*
X122700000Y-50502944D02*
X123100000Y-50102944D01*
X122700000Y-70697057D02*
X122700000Y-50502944D01*
X86380000Y-113280000D02*
X86700000Y-113600000D01*
X86400000Y-86300000D02*
X86380000Y-86320000D01*
X86380000Y-95000000D02*
X86380000Y-113280000D01*
D31*
X98314950Y-113625000D02*
X97944975Y-113255025D01*
X102675000Y-113625000D02*
X98314950Y-113625000D01*
D30*
X86700000Y-113600000D02*
X86380000Y-113920000D01*
X123880000Y-80500000D02*
X123880000Y-86120000D01*
X123100000Y-50102944D02*
X123100000Y-43180000D01*
%TO.N,/CS3*%
X117400000Y-99000000D02*
X122900000Y-104500000D01*
X78760000Y-43477630D02*
X80182370Y-44900000D01*
X120300000Y-71700000D02*
X120650000Y-72050000D01*
X80182370Y-44900000D02*
X81589950Y-44900000D01*
X120947488Y-65147488D02*
X120947488Y-66352513D01*
X104000000Y-126725432D02*
X104000000Y-127149996D01*
X120300000Y-67000001D02*
X120300000Y-71700000D01*
X121200000Y-123992894D02*
X121200000Y-125600000D01*
X92110050Y-44300000D02*
X94700000Y-44300000D01*
X121350001Y-52150001D02*
X121350001Y-64744975D01*
X82589950Y-43900000D02*
X91710050Y-43900000D01*
X121000000Y-74900000D02*
X117600000Y-78300000D01*
X120947488Y-66352513D02*
X120300000Y-67000001D01*
X122200000Y-122885786D02*
X122200000Y-122992894D01*
X120650000Y-74550000D02*
X121000000Y-74900000D01*
D31*
X105425000Y-117575000D02*
X105425000Y-118737500D01*
D30*
X105375000Y-124102942D02*
X105400000Y-124127942D01*
X122900000Y-122185786D02*
X122200000Y-122885786D01*
X94700000Y-44300000D02*
X95000000Y-44000000D01*
X121200000Y-125600000D02*
X121600000Y-126000000D01*
X120650000Y-72050000D02*
X120650000Y-74550000D01*
X78760000Y-42400000D02*
X78760000Y-43477630D01*
X121350001Y-64744975D02*
X120947488Y-65147488D01*
X122200000Y-122992894D02*
X121200000Y-123992894D01*
X105400000Y-125325432D02*
X104000000Y-126725432D01*
D31*
X105425000Y-118737500D02*
X105375000Y-118787500D01*
D30*
X81589950Y-44900000D02*
X82589950Y-43900000D01*
X105400000Y-124127942D02*
X105400000Y-125325432D01*
X91710050Y-43900000D02*
X92110050Y-44300000D01*
X114360000Y-44300000D02*
X113500000Y-44300000D01*
X113500000Y-44300000D02*
X121350001Y-52150001D01*
X114360000Y-44300000D02*
X116260000Y-42400000D01*
X117600000Y-78300000D02*
X117600000Y-98800000D01*
X105375000Y-118787500D02*
X105375000Y-124102942D01*
X117600000Y-98800000D02*
X117400000Y-99000000D01*
X122900000Y-104500000D02*
X122900000Y-122185786D01*
%TO.N,/CS9*%
X132000000Y-95500000D02*
X132000000Y-128600000D01*
X109787500Y-117375000D02*
X114057844Y-117375000D01*
D31*
X109775000Y-117375000D02*
X109787500Y-117375000D01*
D30*
X132000000Y-128600000D02*
X132200000Y-128800000D01*
D31*
X108575000Y-116825000D02*
X109225000Y-116825000D01*
X109225000Y-116825000D02*
X109775000Y-117375000D01*
D30*
X131500000Y-95000000D02*
X132000000Y-95500000D01*
X114057844Y-117375000D02*
X115300000Y-118617156D01*
X115300000Y-118617156D02*
X115300000Y-128200000D01*
%TO.N,/VCC*%
X100999999Y-60000000D02*
X103550002Y-60000000D01*
D28*
%TO.N,/VIO*%
X114160091Y-60300570D02*
X114160091Y-63460091D01*
%TD*%
M02*
